<svg xmlns="http://www.w3.org/2000/svg" width="256.186" height="192.979" viewBox="0 0 256.186 192.979">
  <g id="banner-triangle-graphic-1" transform="translate(256.186) rotate(90)" fill="rgba(255,255,255,0)" stroke-dasharray="4">
    <path d="M96.489,0l96.489,256.186H0Z" stroke="none"/>
    <path d="M 96.48936462402344 0 C 96.48936462402344 0 96.58100128173828 0.243316650390625 96.71755218505859 0.605865478515625 L 98.09223175048828 4.255722045898438 L 97.71546936035156 5.25604248046875 L 95.79917907714844 4.534271240234375 L 95.09175872802734 4.80072021484375 L 94.88649749755859 4.2557373046875 L 96.48936462402344 0 Z M 99.30911254882812 7.486618041992188 L 99.93355560302734 9.144546508789062 C 99.93372344970703 9.145004272460938 99.93383026123047 9.145294189453125 99.93400573730469 9.145751953125 L 99.94096374511719 9.164215087890625 C 99.94155883789062 9.165817260742188 99.94216918945312 9.16741943359375 99.94276428222656 9.169021606445312 L 99.9537353515625 9.198150634765625 C 99.95407867431641 9.199050903320312 99.95443725585938 9.199996948242188 99.95478057861328 9.200897216796875 L 99.95731353759766 9.2076416015625 C 99.95933532714844 9.212997436523438 99.96134948730469 9.218353271484375 99.96336364746094 9.223709106445312 L 99.96564483642578 9.229766845703125 C 99.96642303466797 9.2318115234375 99.96724700927734 9.2340087890625 99.968017578125 9.236068725585938 L 99.96958160400391 9.240219116210938 C 99.97014617919922 9.24169921875 99.97065734863281 9.243072509765625 99.97121429443359 9.244552612304688 L 99.97431182861328 9.252761840820312 C 99.97473907470703 9.25390625 99.97512054443359 9.254928588867188 99.97555541992188 9.256057739257812 L 99.98341369628906 9.276931762695312 C 99.98783874511719 9.2886962890625 99.99236297607422 9.300704956054688 99.99679565429688 9.312469482421875 L 99.99797821044922 9.31561279296875 C 100.0003890991211 9.322006225585938 100.002799987793 9.328414916992188 100.0052108764648 9.334808349609375 L 100.0063934326172 9.33795166015625 C 100.0073852539062 9.340576171875 100.0083923339844 9.34326171875 100.0093841552734 9.34588623046875 L 100.0102005004883 9.348052978515625 C 100.0113220214844 9.351028442382812 100.0124664306641 9.35406494140625 100.0135803222656 9.357040405273438 L 100.0144653320312 9.359375 C 100.3667984008789 10.29484558105469 100.7189712524414 11.22990417480469 100.7189712524414 11.22990417480469 L 97.91150665283203 12.28729248046875 L 96.50161743164062 8.54400634765625 L 99.30911254882812 7.486618041992188 Z M 102.1288299560547 14.97319030761719 C 102.1288299560547 14.97319030761719 102.4805145263672 15.90690612792969 102.8325958251953 16.84170532226562 L 102.8348541259766 16.84768676757812 C 102.8370056152344 16.8533935546875 102.839111328125 16.85899353027344 102.8412628173828 16.86470031738281 L 102.8438110351562 16.8714599609375 C 102.8439788818359 16.87191772460938 102.8442001342773 16.87251281738281 102.8443756103516 16.87297058105469 L 103.5387115478516 18.71647644042969 L 100.7312545776367 19.77389526367188 L 99.32136535644531 16.03057861328125 L 102.1288299560547 14.97319030761719 Z M 104.9485778808594 22.45979309082031 C 104.9485778808594 22.45979309082031 105.1635589599609 23.03056335449219 105.4255828857422 23.72624206542969 L 105.4262771606445 23.72808837890625 C 105.4308242797852 23.74017333984375 105.435432434082 23.75241088867188 105.4400100708008 23.76455688476562 L 105.4472274780273 23.78370666503906 C 105.4474334716797 23.78425598144531 105.4476318359375 23.7847900390625 105.4478378295898 23.78533935546875 L 106.3584594726562 26.20307922363281 L 103.5509719848633 27.26046752929688 L 102.14111328125 23.51718139648438 L 104.9485778808594 22.45979309082031 Z M 107.7683181762695 29.94636535644531 L 108.314338684082 31.39607238769531 C 108.3148803710938 31.39752197265625 108.3154067993164 31.39892578125 108.3159561157227 31.40037536621094 L 108.3180923461914 31.40605163574219 C 108.3204879760742 31.41241455078125 108.3228759765625 31.41873168945312 108.3252792358398 31.42512512207031 L 108.3258285522461 31.42658996582031 C 108.3311004638672 31.44058227539062 108.3363189697266 31.45443725585938 108.3416137695312 31.46849060058594 L 108.3418884277344 31.46923828125 C 108.7321853637695 32.50550842285156 109.1781845092773 33.68968200683594 109.1781845092773 33.68968200683594 L 106.370719909668 34.74708557128906 L 104.9608612060547 31.00379943847656 L 107.7683258056641 29.94636535644531 Z M 110.5880661010742 37.4329833984375 L 111.997932434082 41.17625427246094 L 109.1904754638672 42.23368835449219 L 107.7805786132812 38.49037170410156 L 110.5880813598633 37.43296813964844 Z M 113.4077911376953 44.91958618164062 C 113.4077911376953 44.91958618164062 113.9440383911133 46.34332275390625 114.355094909668 47.43467712402344 L 114.8176803588867 48.66287231445312 L 112.0101852416992 49.72026062011719 L 110.6003265380859 45.97697448730469 L 113.4077911376953 44.91958618164062 Z M 116.2275390625 52.40615844726562 L 116.2278671264648 52.40701293945312 C 116.2278671264648 52.40701293945312 116.2278671264648 52.40701293945312 116.2278671264648 52.40702819824219 L 116.2281875610352 52.40786743164062 C 116.2282257080078 52.40797424316406 116.2282638549805 52.40806579589844 116.2283096313477 52.40818786621094 L 116.228874206543 52.40968322753906 C 116.2289352416992 52.40985107421875 116.2289962768555 52.41000366210938 116.2290573120117 52.41017150878906 L 116.2292404174805 52.41064453125 C 116.2294006347656 52.41107177734375 116.2295608520508 52.41151428222656 116.2297439575195 52.41200256347656 L 116.2299423217773 52.41252136230469 C 116.230110168457 52.4129638671875 116.2302856445312 52.41343688964844 116.2304763793945 52.41392517089844 L 116.2323455810547 52.41889953613281 C 116.2323684692383 52.41896057128906 116.2323837280273 52.41900634765625 116.2324066162109 52.4190673828125 L 116.2328186035156 52.420166015625 C 116.2331314086914 52.42098999023438 116.2334518432617 52.42182922363281 116.2337875366211 52.4227294921875 L 116.2338485717773 52.42289733886719 C 116.2346572875977 52.42503356933594 116.2355346679688 52.42738342285156 116.2364883422852 52.42990112304688 L 116.2366027832031 52.43020629882812 C 116.2375640869141 52.43275451660156 116.2386016845703 52.43550109863281 116.2397003173828 52.43843078613281 L 116.2397613525391 52.43858337402344 C 116.2407836914062 52.44129943847656 116.2418823242188 52.44422912597656 116.2430267333984 52.447265625 L 116.2440948486328 52.45010375976562 C 116.2464599609375 52.45637512207031 116.2490844726562 52.46334838867188 116.2519149780273 52.47087097167969 L 116.2521514892578 52.47149658203125 C 116.2552642822266 52.47975158691406 116.258659362793 52.48876953125 116.2623138427734 52.49845886230469 L 116.2624588012695 52.49887084960938 C 116.2698822021484 52.51856994628906 116.2784042358398 52.54119873046875 116.2879409790039 52.56651306152344 L 116.2883071899414 52.56748962402344 C 116.5584487915039 53.28472900390625 117.6373977661133 56.14942932128906 117.6373977661133 56.14942932128906 L 114.8299331665039 57.20686340332031 L 113.4200820922852 53.46354675292969 L 116.2275466918945 52.40615844726562 Z M 119.0472869873047 59.89276123046875 L 119.7741546630859 61.8226318359375 C 119.7747955322266 61.8243408203125 119.7755126953125 61.82623291015625 119.7761535644531 61.82794189453125 L 119.7774505615234 61.83139038085938 C 119.7798156738281 61.83766174316406 119.7821502685547 61.84385681152344 119.7845153808594 61.85014343261719 L 119.7861480712891 61.8544921875 C 119.7968063354492 61.88278198242188 119.8074569702148 61.91105651855469 119.8180847167969 61.93927001953125 L 119.8183288574219 61.93992614746094 C 120.1474304199219 62.81370544433594 120.4571533203125 63.63604736328125 120.4571533203125 63.63604736328125 L 117.6496887207031 64.69343566894531 L 116.2398300170898 60.95014953613281 L 119.0472946166992 59.89276123046875 Z M 121.8670043945312 67.37933349609375 C 121.8670043945312 67.37933349609375 123.0228958129883 70.44825744628906 123.2414627075195 71.028564453125 L 123.2426986694336 71.0318603515625 C 123.2443237304688 71.03616333007812 123.2459030151367 71.04035949707031 123.2474212646484 71.04437255859375 L 123.2474822998047 71.04454040527344 C 123.249153137207 71.04898071289062 123.2507705688477 71.05326843261719 123.2523040771484 71.05735778808594 L 123.2525863647461 71.05810546875 C 123.2540969848633 71.06210327148438 123.2555236816406 71.06588745117188 123.2568969726562 71.06953430175781 L 123.2570419311523 71.06993103027344 C 123.2576599121094 71.07156372070312 123.2582473754883 71.07313537597656 123.2588424682617 71.07470703125 L 123.2594528198242 71.07632446289062 C 123.2598571777344 71.077392578125 123.2602615356445 71.07847595214844 123.2606506347656 71.07951354980469 L 123.2624282836914 71.084228515625 C 123.2624664306641 71.08432006835938 123.2624969482422 71.08442687988281 123.2625350952148 71.08451843261719 L 123.2631454467773 71.08613586425781 C 123.2635498046875 71.08721923828125 123.2639465332031 71.0882568359375 123.2643280029297 71.08927917480469 L 123.2650375366211 71.09115600585938 C 123.2654037475586 71.09213256835938 123.2657699584961 71.09309387207031 123.2661209106445 71.09402465820312 L 123.2667236328125 71.09562683105469 C 123.2670211791992 71.096435546875 123.267333984375 71.09724426269531 123.2676162719727 71.09800720214844 L 123.2681655883789 71.09945678710938 C 123.2685241699219 71.10040283203125 123.2688751220703 71.10134887695312 123.2692108154297 71.10223388671875 L 123.2694244384766 71.10279846191406 C 123.2696990966797 71.103515625 123.2699508666992 71.10420227050781 123.2702102661133 71.10488891601562 L 123.2708435058594 71.1065673828125 C 123.2714385986328 71.108154296875 123.2720031738281 71.10964965820312 123.2725143432617 71.11099243164062 L 123.2733764648438 71.11329650878906 C 123.2734680175781 71.11354064941406 123.273551940918 71.11376953125 123.2736434936523 71.114013671875 L 123.2739562988281 71.11482238769531 C 123.2739944458008 71.11494445800781 123.2740478515625 71.11508178710938 123.2740936279297 71.11518859863281 L 123.2747573852539 71.11695861816406 C 123.274787902832 71.11705017089844 123.2748260498047 71.11714172363281 123.2748565673828 71.11723327636719 L 123.2750930786133 71.11784362792969 C 123.2751235961914 71.11795043945312 123.2751541137695 71.11802673339844 123.2751922607422 71.11811828613281 L 123.2754135131836 71.11869812011719 C 123.2754516601562 71.11882019042969 123.275505065918 71.11894226074219 123.2755432128906 71.11904907226562 L 123.2756881713867 71.11943054199219 C 123.2757110595703 71.1195068359375 123.2757339477539 71.11956787109375 123.275764465332 71.11962890625 L 123.275993347168 71.12025451660156 C 123.2760009765625 71.12026977539062 123.276008605957 71.12028503417969 123.2760162353516 71.12031555175781 L 123.2762145996094 71.12083435058594 C 123.2762222290039 71.120849609375 123.2762222290039 71.120849609375 123.2762298583984 71.12086486816406 L 123.2769012451172 71.12265014648438 L 120.4694366455078 72.18003845214844 L 119.0595397949219 68.43675231933594 L 121.8670043945312 67.37933349609375 Z M 124.6867599487305 74.86593627929688 C 124.6867599487305 74.86593627929688 124.8845520019531 75.39108276367188 125.1319351196289 76.04788208007812 L 125.1338806152344 76.05303955078125 C 125.1359786987305 76.05862426757812 125.138069152832 76.06417846679688 125.1401748657227 76.06976318359375 L 125.1416931152344 76.07379150390625 C 125.1421737670898 76.07508850097656 125.1427383422852 76.07656860351562 125.1432266235352 76.07786560058594 L 126.0966339111328 78.60922241210938 L 123.2891540527344 79.66661071777344 L 121.8792953491211 75.92332458496094 L 124.6867599487305 74.86593627929688 Z M 127.5065002441406 82.35250854492188 L 128.084716796875 83.8876953125 C 128.0856018066406 83.89006042480469 128.0863952636719 83.89218139648438 128.0872802734375 83.89454650878906 L 128.0892944335938 83.89987182617188 C 128.4773712158203 84.93026733398438 128.9163665771484 86.0958251953125 128.9163665771484 86.0958251953125 L 126.1089019775391 87.15322875976562 L 124.6990432739258 83.40994262695312 L 127.5065078735352 82.35250854492188 Z M 130.3262481689453 89.83912658691406 L 131.7361145019531 93.5823974609375 L 128.9286499023438 94.63983154296875 L 127.5187606811523 90.89651489257812 L 130.3262634277344 89.839111328125 Z M 133.1459655761719 97.32572937011719 C 133.1459655761719 97.32572937011719 133.6623992919922 98.69685363769531 134.0701599121094 99.77944946289062 L 134.5558471679688 101.0690155029297 L 131.7483673095703 102.1264038085938 L 130.3385009765625 98.38311767578125 L 133.1459655761719 97.32572937011719 Z M 135.9657287597656 104.8123016357422 L 135.9722747802734 104.8296966552734 C 135.9723205566406 104.8298034667969 135.9723663330078 104.8299407958984 135.972412109375 104.8300476074219 L 135.9735260009766 104.8330078125 C 135.9736022949219 104.8332061767578 135.9736938476562 104.8334503173828 135.9737701416016 104.8336486816406 L 135.9791870117188 104.8480377197266 C 135.9792022705078 104.8480834960938 135.9792175292969 104.84814453125 135.979248046875 104.8481903076172 L 135.9839172363281 104.860595703125 C 135.9840545654297 104.8609619140625 135.9841918945312 104.8613433837891 135.9843444824219 104.8617248535156 L 135.9850463867188 104.8636169433594 C 135.9850769042969 104.8636932373047 135.985107421875 104.8637542724609 135.9851379394531 104.8638305664062 L 135.9861602783203 104.8665618896484 C 135.9865417480469 104.8675994873047 135.9869232177734 104.8685913085938 135.9873199462891 104.8696441650391 L 135.9882049560547 104.8719940185547 C 135.9884643554688 104.8726806640625 135.9887237548828 104.8733673095703 135.9889831542969 104.8740692138672 L 135.9891052246094 104.8743896484375 C 135.9892883300781 104.8748626708984 135.9894714355469 104.8753509521484 135.9896545410156 104.8758392333984 L 135.9920043945312 104.8820495605469 C 135.9920043945312 104.8820953369141 135.9920196533203 104.8821105957031 135.9920349121094 104.8821411132812 L 135.9928131103516 104.8842163085938 C 135.9935760498047 104.8862609863281 135.9943542480469 104.8883209228516 135.9951477050781 104.8904418945312 L 135.9951782226562 104.8905181884766 C 135.996826171875 104.8948974609375 135.9985198974609 104.8993835449219 136.0003051757812 104.9040985107422 L 136.0007629394531 104.9053344726562 C 136.2183227539062 105.4829559326172 137.3755798339844 108.5556182861328 137.3755798339844 108.5556182861328 L 134.568115234375 109.6130065917969 L 133.1582641601562 105.8697204589844 L 135.9657287597656 104.8122863769531 Z M 138.7854614257812 112.2989044189453 L 139.5417175292969 114.3067932128906 C 139.5431823730469 114.3106689453125 139.5446929931641 114.3146820068359 139.546142578125 114.3185577392578 L 139.5618743896484 114.3603057861328 C 139.5622100830078 114.3612213134766 139.5626831054688 114.3624420166016 139.5630187988281 114.3633422851562 L 139.5656433105469 114.3703155517578 C 139.5665893554688 114.3728179931641 139.5675201416016 114.3753051757812 139.5684661865234 114.3778076171875 L 139.5704650878906 114.3831024169922 C 139.5705871582031 114.3834381103516 139.5707092285156 114.3837738037109 139.5708312988281 114.3841094970703 L 139.57373046875 114.3917694091797 C 139.5785980224609 114.4047241210938 139.5835418701172 114.4178314208984 139.5884094238281 114.4307403564453 L 139.5901336669922 114.4353332519531 C 139.6007080078125 114.4634094238281 139.6112823486328 114.4915008544922 139.6217956542969 114.5193939208984 L 139.6219482421875 114.5198211669922 C 139.9254913330078 115.3257293701172 140.1953277587891 116.0421905517578 140.1953277587891 116.0421905517578 L 137.3878631591797 117.0995788574219 L 135.9780120849609 113.3562927246094 L 138.7854766845703 112.2989044189453 Z M 141.6051940917969 119.7854766845703 L 143.0150756835938 123.5287933349609 L 140.2076110839844 124.586181640625 L 138.7977294921875 120.8428955078125 L 141.605224609375 119.7854766845703 Z M 144.4249267578125 127.2720794677734 C 144.4249267578125 127.2720794677734 144.6109008789062 127.7658233642578 144.8477325439453 128.3946228027344 L 144.8491516113281 128.3983612060547 C 144.8495788574219 128.3995208740234 144.8500366210938 128.4007568359375 144.8504791259766 128.4019165039062 L 145.8348083496094 131.015380859375 L 143.0273284912109 132.0727844238281 L 141.6174774169922 128.3294677734375 L 144.4249267578125 127.2720794677734 Z M 147.2446899414062 134.7586975097656 C 147.2446899414062 134.7586975097656 148.654541015625 138.5019836425781 148.654541015625 138.5019836425781 L 145.8470764160156 139.5593566894531 L 144.4372253417969 135.8160705566406 L 147.2446899414062 134.7586975097656 Z M 150.0644226074219 142.2452697753906 L 151.4742889404297 145.9885559082031 L 148.6668243408203 147.0459747314453 L 147.2569274902344 143.3026428222656 L 150.0644378662109 142.2452545166016 Z M 152.8841552734375 149.7318725585938 C 152.8841552734375 149.7318725585938 153.3677368164062 151.0158081054688 153.7684783935547 152.0797576904297 L 153.7698669433594 152.0834655761719 C 153.7708435058594 152.0860290527344 153.7718811035156 152.0888366699219 153.7728576660156 152.0913696289062 L 154.2940368652344 153.4751586914062 L 151.486572265625 154.5325469970703 L 150.0766906738281 150.7892608642578 L 152.8841552734375 149.7318725585938 Z M 155.7039031982422 157.2184448242188 L 155.7740478515625 157.4046630859375 C 155.7756958007812 157.4090423583984 155.7774047851562 157.4136047363281 155.7790985107422 157.4181213378906 L 155.7816009521484 157.4247436523438 C 156.0769958496094 158.2090301513672 157.1137542724609 160.9617614746094 157.1137542724609 160.9617614746094 L 154.3062896728516 162.0191497802734 L 152.8964385986328 158.2758636474609 L 155.7039031982422 157.2184448242188 Z M 158.5236511230469 164.7050476074219 L 159.4022827148438 167.0378723144531 C 159.4024505615234 167.038330078125 159.4025726318359 167.0386505126953 159.4027404785156 167.0390930175781 L 159.4182586669922 167.080322265625 C 159.4197235107422 167.0841827392578 159.4212036132812 167.088134765625 159.4226684570312 167.0919952392578 L 159.4251556396484 167.0986175537109 C 159.7012023925781 167.8315124511719 159.9335021972656 168.4483337402344 159.9335021972656 168.4483337402344 L 157.1260375976562 169.5057678222656 L 155.7161865234375 165.7624359130859 L 158.5236511230469 164.7050476074219 Z M 161.3433837890625 172.191650390625 L 162.7532501220703 175.9349365234375 L 159.94580078125 176.9923400878906 L 158.5359039306641 173.2490539550781 L 161.3433990478516 172.191650390625 Z M 164.1631164550781 179.67822265625 C 164.1631164550781 179.67822265625 164.3370971679688 180.1401672363281 164.5628051757812 180.7394104003906 L 164.5640106201172 180.7426147460938 C 164.5647125244141 180.7444763183594 164.5655212402344 180.7466125488281 164.5662231445312 180.7484893798828 L 164.5680389404297 180.7532958984375 C 164.5686645507812 180.7549743652344 164.5693054199219 180.7566833496094 164.5699462890625 180.7583465576172 L 165.572998046875 183.4215087890625 L 162.7655029296875 184.4789428710938 L 161.3556518554688 180.7356262207031 L 164.1631164550781 179.67822265625 Z M 166.9828643798828 187.1648254394531 C 166.9828643798828 187.1648254394531 168.3927154541016 190.9081115722656 168.3927154541016 190.9081115722656 L 165.5852508544922 191.9655151367188 L 164.1753997802734 188.2222290039062 L 166.9828643798828 187.1648254394531 Z M 169.8025970458984 194.6513977050781 L 170.7391357421875 197.1379699707031 C 170.9995422363281 197.8293609619141 171.2124633789062 198.3947143554688 171.2124633789062 198.3947143554688 L 168.4050140380859 199.4521179199219 L 166.9951171875 195.7088317871094 L 169.8026123046875 194.6513977050781 Z M 172.6223297119141 202.1380004882812 C 172.6223297119141 202.1380004882812 173.0929565429688 203.3875122070312 173.4903869628906 204.4427185058594 L 174.0322113037109 205.8813018798828 L 171.2247619628906 206.9386901855469 L 169.8148651123047 203.1954040527344 L 172.6223297119141 202.1380004882812 Z M 175.4420776367188 209.6245727539062 L 175.5367584228516 209.8759765625 C 175.8528747558594 210.7152709960938 176.8519287109375 213.3679046630859 176.8519287109375 213.3679046630859 L 174.0444641113281 214.42529296875 L 172.6346130371094 210.6820068359375 L 175.4420776367188 209.6245727539062 Z M 178.2618255615234 217.1111907958984 L 179.2002258300781 219.6026916503906 C 179.2002563476562 219.6027984619141 179.2003326416016 219.6030120849609 179.2003784179688 219.6031188964844 L 179.2031860351562 219.6105804443359 C 179.2037658691406 219.6120910644531 179.2043762207031 219.6137084960938 179.2049407958984 219.6152191162109 L 179.2196655273438 219.6543426513672 C 179.2197875976562 219.6546630859375 179.2199096679688 219.6549835205078 179.2200317382812 219.6553039550781 L 179.2300567626953 219.6819000244141 C 179.2309417724609 219.6842498779297 179.2318725585938 219.6867065429688 179.2327423095703 219.6890563964844 L 179.2340087890625 219.6923980712891 C 179.4778747558594 220.3398895263672 179.6716918945312 220.8544769287109 179.6716918945312 220.8544769287109 L 176.8642272949219 221.9118957519531 L 175.4543609619141 218.1685791015625 L 178.2618255615234 217.1111907958984 Z M 181.0815734863281 224.5977935791016 L 182.4914398193359 228.3410797119141 L 179.6839752197266 229.3984680175781 L 178.2740783691406 225.6551818847656 L 181.0815734863281 224.5977935791016 Z M 183.9012908935547 232.0843658447266 C 183.9012908935547 232.0843658447266 184.2898559570312 233.1160278320312 184.6590118408203 234.0961303710938 L 185.3111877441406 235.8276824951172 L 182.5036926269531 236.8850860595703 L 181.0938262939453 233.1417999267578 L 183.9012908935547 232.0843658447266 Z M 186.7210388183594 239.5709686279297 C 186.7210388183594 239.5709686279297 188.1309051513672 243.3142547607422 188.1309051513672 243.3142547607422 L 185.3234405517578 244.3716430664062 L 183.91357421875 240.6283721923828 L 186.7210388183594 239.5709686279297 Z M 189.5407867431641 247.0575561523438 L 190.5079803466797 249.6255340576172 C 190.7542266845703 250.2793273925781 190.9506530761719 250.8008728027344 190.9506530761719 250.8008728027344 L 188.1431884765625 251.8582611083984 L 186.7333221435547 248.1149749755859 L 189.5407867431641 247.0575408935547 Z M 190.7326507568359 253.1855010986328 L 191.8488006591797 253.1855010986328 L 192.9787292480469 256.1855163574219 C 192.9787292480469 256.1855163574219 192.9787292480469 256.1855163574219 192.9787292480469 256.1855163574219 C 192.9787292480469 256.1855163574219 192.9787292480469 256.1855163574219 192.9787292480469 256.1855163574219 L 192.9787292480469 256.1855163574219 C 192.9787292480469 256.1855163574219 192.9787292480469 256.1855163574219 192.9787292480469 256.1855163574219 L 189.7729949951172 256.1855163574219 L 189.5530395507812 255.6015472412109 L 190.7326507568359 255.1572570800781 L 190.7326507568359 253.1855010986328 Z M 182.7326507568359 253.1855010986328 L 186.7326507568359 253.1855010986328 L 186.7326507568359 256.1855163574219 C 186.7326507568359 256.1855163574219 182.7326507568359 256.1855163574219 182.7326507568359 256.1855163574219 L 182.7326507568359 253.1855010986328 Z M 174.7326507568359 253.1855010986328 L 178.7326507568359 253.1855010986328 L 178.7326507568359 256.1855163574219 C 178.7326507568359 256.1855163574219 174.7326507568359 256.1855163574219 174.7326507568359 256.1855163574219 L 174.7326507568359 253.1855010986328 Z M 166.7326507568359 253.1855010986328 L 170.7326507568359 253.1855010986328 L 170.7326507568359 256.1855163574219 C 170.7326507568359 256.1855163574219 166.7326507568359 256.1855163574219 166.7326507568359 256.1855163574219 L 166.7326507568359 253.1855010986328 Z M 158.7326507568359 253.1855010986328 L 162.7326507568359 253.1855010986328 L 162.7326507568359 256.1855163574219 C 162.7326507568359 256.1855163574219 158.7326507568359 256.1855163574219 158.7326507568359 256.1855163574219 L 158.7326507568359 253.1855010986328 Z M 150.7326507568359 253.1855010986328 L 154.7326507568359 253.1855010986328 L 154.7326507568359 256.1855163574219 C 154.7326507568359 256.1855163574219 150.7326507568359 256.1855163574219 150.7326507568359 256.1855163574219 L 150.7326507568359 253.1855010986328 Z M 142.7326507568359 253.1855010986328 L 146.7326507568359 253.1855010986328 L 146.7326507568359 256.1855163574219 C 146.7326507568359 256.1855163574219 142.7326507568359 256.1855163574219 142.7326507568359 256.1855163574219 L 142.7326507568359 253.1855010986328 Z M 134.7326507568359 253.1855010986328 L 138.7326507568359 253.1855010986328 L 138.7326507568359 256.1855163574219 C 138.7326507568359 256.1855163574219 134.7326507568359 256.1855163574219 134.7326507568359 256.1855163574219 L 134.7326507568359 253.1855010986328 Z M 126.7326507568359 253.1855010986328 L 130.7326507568359 253.1855010986328 L 130.7326507568359 256.1855163574219 C 130.7326507568359 256.1855163574219 126.7326507568359 256.1855163574219 126.7326507568359 256.1855163574219 L 126.7326507568359 253.1855010986328 Z M 118.7326507568359 253.1855010986328 L 122.7326507568359 253.1855010986328 L 122.7326507568359 256.1855163574219 C 122.7326507568359 256.1855163574219 118.7326507568359 256.1855163574219 118.7326507568359 256.1855163574219 L 118.7326507568359 253.1855010986328 Z M 110.7326507568359 253.1855010986328 L 114.7326507568359 253.1855010986328 L 114.7326507568359 256.1855163574219 C 114.7326507568359 256.1855163574219 110.7326507568359 256.1855163574219 110.7326507568359 256.1855163574219 L 110.7326507568359 253.1855010986328 Z M 102.7326507568359 253.1855010986328 L 106.7326507568359 253.1855010986328 L 106.7326507568359 256.1855163574219 C 106.7326507568359 256.1855163574219 102.7326507568359 256.1855163574219 102.7326507568359 256.1855163574219 L 102.7326507568359 253.1855010986328 Z M 94.73265075683594 253.1855010986328 L 98.73265075683594 253.1855010986328 L 98.73265075683594 256.1855163574219 C 98.73265075683594 256.1855163574219 94.73265075683594 256.1855163574219 94.73265075683594 256.1855163574219 L 94.73265075683594 253.1855010986328 Z M 86.73265075683594 253.1855010986328 L 90.73265075683594 253.1855010986328 L 90.73265075683594 256.1855163574219 C 90.73265075683594 256.1855163574219 86.73265075683594 256.1855163574219 86.73265075683594 256.1855163574219 L 86.73265075683594 253.1855010986328 Z M 78.73265075683594 253.1855010986328 L 82.73265075683594 253.1855010986328 L 82.73265075683594 256.1855163574219 C 82.73265075683594 256.1855163574219 78.73265075683594 256.1855163574219 78.73265075683594 256.1855163574219 L 78.73265075683594 253.1855010986328 Z M 70.73265075683594 253.1855010986328 L 74.73265075683594 253.1855010986328 L 74.73265075683594 256.1855163574219 C 74.73265075683594 256.1855163574219 70.73265075683594 256.1855163574219 70.73265075683594 256.1855163574219 L 70.73265075683594 253.1855010986328 Z M 62.73265075683594 253.1855010986328 L 66.73265075683594 253.1855010986328 L 66.73265075683594 256.1855163574219 C 66.73265075683594 256.1855163574219 62.73265075683594 256.1855163574219 62.73265075683594 256.1855163574219 L 62.73265075683594 253.1855010986328 Z M 54.73265075683594 253.1855010986328 L 58.73265075683594 253.1855010986328 L 58.73265075683594 256.1855163574219 C 58.73265075683594 256.1855163574219 54.73265075683594 256.1855163574219 54.73265075683594 256.1855163574219 L 54.73265075683594 253.1855010986328 Z M 46.73265075683594 253.1855010986328 L 50.73265075683594 253.1855010986328 L 50.73265075683594 256.1855163574219 C 50.73265075683594 256.1855163574219 46.73265075683594 256.1855163574219 46.73265075683594 256.1855163574219 L 46.73265075683594 253.1855010986328 Z M 38.73265075683594 253.1855010986328 L 42.73265075683594 253.1855010986328 L 42.73265075683594 256.1855163574219 C 42.73265075683594 256.1855163574219 38.73265075683594 256.1855163574219 38.73265075683594 256.1855163574219 L 38.73265075683594 253.1855010986328 Z M 30.73265075683594 253.1855010986328 L 34.73265075683594 253.1855010986328 L 34.73265075683594 256.1855163574219 C 34.73265075683594 256.1855163574219 30.73265075683594 256.1855163574219 30.73265075683594 256.1855163574219 L 30.73265075683594 253.1855010986328 Z M 22.73265075683594 253.1855010986328 L 26.73265075683594 253.1855010986328 L 26.73265075683594 256.1855163574219 C 26.73265075683594 256.1855163574219 22.73265075683594 256.1855163574219 22.73265075683594 256.1855163574219 L 22.73265075683594 253.1855010986328 Z M 14.73265075683594 253.1855010986328 L 18.73265075683594 253.1855010986328 L 18.73265075683594 256.1855163574219 C 18.73265075683594 256.1855163574219 14.73265075683594 256.1855163574219 14.73265075683594 256.1855163574219 L 14.73265075683594 253.1855010986328 Z M 6.732650756835938 253.1855010986328 L 10.73265075683594 253.1855010986328 L 10.73265075683594 256.1855163574219 C 10.73265075683594 256.1855163574219 6.732650756835938 256.1855163574219 6.732650756835938 256.1855163574219 L 6.732650756835938 253.1855010986328 Z M 1.129928588867188 253.1855010986328 L 2.732650756835938 253.1855010986328 L 2.732650756835938 255.8604431152344 L 3.254180908203125 256.0568542480469 L 3.205734252929688 256.1855163574219 L 0 256.1855163574219 C 0 256.1855163574219 0 256.1855163574219 0 256.1855163574219 L 0 256.1855163574219 C 0 256.1855163574219 0 256.1855163574219 0 256.1855163574219 L 1.129928588867188 253.1855010986328 Z M 3.266464233398438 247.5128631591797 L 6.073928833007812 248.5702972412109 L 4.664047241210938 252.3135833740234 L 1.856582641601562 251.2561798095703 L 1.963592529296875 250.9720764160156 C 1.96368408203125 250.9718170166016 1.9637451171875 250.9716491699219 1.963851928710938 250.9713897705078 L 1.972732543945312 250.9477844238281 C 1.97308349609375 250.9468536376953 1.973403930664062 250.9459991455078 1.9737548828125 250.945068359375 L 1.977798461914062 250.9343566894531 C 1.978042602539062 250.9336853027344 1.978317260742188 250.9329681396484 1.97857666015625 250.9322814941406 L 1.980377197265625 250.9275054931641 C 1.98040771484375 250.9274444580078 1.980453491210938 250.9272918701172 1.980484008789062 250.9272308349609 L 1.982879638671875 250.9208374023438 C 1.9830322265625 250.9204254150391 1.983154296875 250.9201354980469 1.983306884765625 250.9197235107422 L 1.987533569335938 250.9084777832031 C 2.337234497070312 249.9800109863281 3.266464233398438 247.5128631591797 3.266464233398438 247.5128631591797 Z M 6.086181640625 240.0262908935547 L 8.893646240234375 241.0836791992188 L 7.483795166015625 244.8269653320312 L 4.67633056640625 243.7695770263672 C 4.67633056640625 243.7695770263672 4.896865844726562 243.1840515136719 5.163482666015625 242.4761352539062 L 5.16351318359375 242.47607421875 C 5.168777465820312 242.4620971679688 5.174026489257812 242.4481506347656 5.179336547851562 242.4340667724609 L 5.17938232421875 242.4339447021484 C 5.180618286132812 242.4306488037109 5.181808471679688 242.4275054931641 5.18304443359375 242.4242095947266 L 5.188262939453125 242.4103546142578 C 5.1890869140625 242.4081420898438 5.18994140625 242.4059143066406 5.190765380859375 242.4037017822266 L 6.086196899414062 240.0262908935547 Z M 8.905929565429688 232.5396881103516 L 11.71339416503906 233.5971069335938 L 10.30354309082031 237.3403930664062 L 7.496078491210938 236.2830047607422 C 7.496078491210938 236.2830047607422 8.532135009765625 233.5321655273438 8.827957153320312 232.7467346191406 L 8.830947875976562 232.7387847900391 C 8.832550048828125 232.7345581054688 8.834091186523438 232.7304382324219 8.835647583007812 232.726318359375 L 8.90594482421875 232.5396881103516 Z M 11.72569274902344 225.0531158447266 L 14.53315734863281 226.1105041503906 L 13.123291015625 229.8537902832031 L 10.3157958984375 228.7964019775391 L 10.83792114257812 227.4101409912109 C 10.83842468261719 227.4088134765625 10.83885192871094 227.4076843261719 10.83935546875 227.4063568115234 L 10.841796875 227.3998718261719 C 11.24244689941406 226.3361206054688 11.72569274902344 225.0531158447266 11.72569274902344 225.0531158447266 Z M 14.54539489746094 217.5665130615234 L 17.3529052734375 218.6239013671875 L 15.94300842285156 222.3672180175781 L 13.13554382324219 221.3097991943359 L 14.54541015625 217.5665130615234 Z M 17.36514282226562 210.0798950195312 L 20.172607421875 211.1373291015625 L 18.76275634765625 214.880615234375 L 15.95529174804688 213.8232269287109 C 15.95529174804688 213.8232269287109 16.36390686035156 212.7382965087891 16.74116516113281 211.7366485595703 L 17.36515808105469 210.0798950195312 Z M 20.18490600585938 202.5933227539062 L 22.99237060546875 203.6507263183594 L 21.58250427246094 207.3940124511719 L 18.77500915527344 206.3366088867188 L 19.76234436035156 203.7152252197266 C 19.99906921386719 203.0867309570312 20.18490600585938 202.5933227539062 20.18490600585938 202.5933227539062 Z M 23.00465393066406 195.1067199707031 L 25.81211853027344 196.1641540527344 L 24.4022216796875 199.9074401855469 L 21.59475708007812 198.8500366210938 L 21.66494750976562 198.6636810302734 C 21.66529846191406 198.6627807617188 21.66567993164062 198.6617431640625 21.666015625 198.6608428955078 L 21.67141723632812 198.6465301513672 C 21.67170715332031 198.645751953125 21.67202758789062 198.6448974609375 21.67231750488281 198.6441040039062 L 21.67529296875 198.63623046875 C 21.67588806152344 198.6346435546875 21.67649841308594 198.6330413818359 21.67709350585938 198.6314392089844 L 21.68135070800781 198.6201477050781 C 21.68238830566406 198.6174011230469 21.68344116210938 198.6145629882812 21.68449401855469 198.6117858886719 L 21.69166564941406 198.5927429199219 C 22.01020812988281 197.7470092773438 23.00465393066406 195.1067199707031 23.00465393066406 195.1067199707031 Z M 25.82437133789062 187.6201477050781 L 28.6318359375 188.6775512695312 L 27.22196960449219 192.4208374023438 L 24.41450500488281 191.3634338378906 C 24.41450500488281 191.3634338378906 24.6793212890625 190.6603240966797 24.97943115234375 189.863525390625 L 24.98089599609375 189.859619140625 C 24.9814453125 189.858154296875 24.98194885253906 189.8568420410156 24.98249816894531 189.8553771972656 L 24.98513793945312 189.8483734130859 C 24.985595703125 189.8471374511719 24.98605346679688 189.8459320068359 24.98652648925781 189.8446960449219 L 24.99267578125 189.828369140625 C 24.99365234375 189.8257751464844 24.99461364746094 189.8231964111328 24.99559020996094 189.8206024169922 L 24.996826171875 189.8173217773438 C 24.99913024902344 189.8112182617188 25.00144958496094 189.8050537109375 25.00373840332031 189.7989654541016 L 25.00483703613281 189.7960815429688 C 25.00581359863281 189.7934875488281 25.00685119628906 189.7907257080078 25.00782775878906 189.7881164550781 L 25.0086669921875 189.785888671875 C 25.00956726074219 189.7835083007812 25.01055908203125 189.7808837890625 25.01144409179688 189.7785034179688 L 25.82437133789062 187.6201477050781 Z M 28.64411926269531 180.133544921875 L 31.45158386230469 181.1909332275391 L 30.04171752929688 184.9342651367188 L 27.2342529296875 183.8768310546875 C 27.2342529296875 183.8768310546875 28.16438293457031 181.4072570800781 28.51365661621094 180.4799194335938 L 28.516845703125 180.4714660644531 C 28.51911926269531 180.4653930664062 28.52133178710938 180.4595336914062 28.52357482910156 180.4535980224609 L 28.52442932128906 180.4513244628906 C 28.52680969238281 180.4450073242188 28.52915954589844 180.4387664794922 28.53147888183594 180.4326019287109 L 28.53530883789062 180.4224548339844 C 28.53761291503906 180.4163208007812 28.53988647460938 180.4102783203125 28.54212951660156 180.4043273925781 L 28.54319763183594 180.4014892578125 C 28.54376220703125 180.3999938964844 28.54432678222656 180.3984680175781 28.54489135742188 180.3969879150391 L 28.54510498046875 180.3964233398438 C 28.54655456542969 180.392578125 28.5479736328125 180.3888092041016 28.54939270019531 180.3850402832031 L 28.55656433105469 180.3659973144531 C 28.55680847167969 180.3653564453125 28.55709838867188 180.3645782470703 28.55734252929688 180.3639373779297 L 28.57124328613281 180.3270263671875 C 28.57125854492188 180.3269653320312 28.5712890625 180.326904296875 28.57130432128906 180.3268585205078 L 28.64411926269531 180.133544921875 Z M 31.4638671875 172.64697265625 L 34.27133178710938 173.7043762207031 L 32.86146545410156 177.4476623535156 L 30.05397033691406 176.3902587890625 L 30.5521240234375 175.0676574707031 C 30.95785522460938 173.9904479980469 31.4638671875 172.64697265625 31.4638671875 172.64697265625 Z M 34.28358459472656 165.1603698730469 L 37.09107971191406 166.2177581787109 L 35.68118286132812 169.9610900878906 L 32.87371826171875 168.9036560058594 L 34.28358459472656 165.1603698730469 Z M 37.10333251953125 157.6737670898438 L 39.91079711914062 158.7311859130859 L 38.50093078613281 162.4744720458984 L 35.69346618652344 161.4170837402344 C 35.69346618652344 161.4170837402344 36.114990234375 160.2979125976562 36.49703979492188 159.2835388183594 L 36.49748229980469 159.2823486328125 C 36.49986267089844 159.2760162353516 36.50221252441406 159.269775390625 36.50460815429688 159.2634429931641 L 37.10333251953125 157.6737670898438 Z M 39.92308044433594 150.1871948242188 L 42.73054504394531 151.2445831298828 L 41.3206787109375 154.9878540039062 L 38.51318359375 153.9304809570312 L 39.47920227050781 151.3656768798828 C 39.72602844238281 150.7103881835938 39.92308044433594 150.1871948242188 39.92308044433594 150.1871948242188 Z M 42.74282836914062 142.7005767822266 L 45.55029296875 143.7579650878906 L 44.14039611816406 147.5012969970703 L 41.33293151855469 146.4438629150391 L 42.05851745605469 144.5174560546875 C 42.05851745605469 144.5174560546875 42.05854797363281 144.517333984375 42.05854797363281 144.517333984375 L 42.06411743164062 144.5025787353516 C 42.06613159179688 144.4972229003906 42.06813049316406 144.4918975830078 42.07015991210938 144.4865417480469 L 42.07130432128906 144.4834747314453 C 42.41229248046875 143.5781555175781 42.74282836914062 142.7005767822266 42.74282836914062 142.7005767822266 Z M 45.56254577636719 135.2140045166016 L 48.37004089355469 136.2713928222656 L 46.96014404296875 140.0146789550781 L 44.15267944335938 138.9572906494141 C 44.15267944335938 138.9572906494141 44.4617919921875 138.1365661621094 44.79055786132812 137.2636871337891 L 44.79327392578125 137.2564697265625 C 44.79525756835938 137.251220703125 44.79722595214844 137.2459869384766 44.7991943359375 137.2407531738281 L 44.80023193359375 137.2380218505859 C 44.80271911621094 137.2314147949219 44.80519104003906 137.224853515625 44.80767822265625 137.2182312011719 L 44.80850219726562 137.2160339355469 C 44.81207275390625 137.2065734863281 44.81561279296875 137.1971435546875 44.81918334960938 137.1876831054688 L 45.56254577636719 135.2140197753906 Z M 48.38229370117188 127.7274017333984 L 51.18975830078125 128.7847900390625 L 49.7799072265625 132.5281066894531 L 46.97244262695312 131.4706878662109 C 46.97244262695312 131.4706878662109 48.05097961425781 128.6070556640625 48.32139587402344 127.8890686035156 L 48.322021484375 127.8874359130859 C 48.33148193359375 127.8622894287109 48.33992004394531 127.8398895263672 48.34730529785156 127.8202819824219 L 48.34761047363281 127.8195037841797 C 48.3511962890625 127.8099822998047 48.35452270507812 127.8011474609375 48.35757446289062 127.7930145263672 L 48.35798645019531 127.7919311523438 C 48.3594970703125 127.7879180908203 48.3609619140625 127.7840423583984 48.36233520507812 127.7803955078125 L 48.36239624023438 127.7802429199219 C 48.36344909667969 127.7774353027344 48.36445617675781 127.7747650146484 48.36543273925781 127.7721710205078 L 48.36685180664062 127.7683868408203 C 48.36798095703125 127.7654113769531 48.36903381347656 127.7626190185547 48.37002563476562 127.7599639892578 L 48.37019348144531 127.7595367431641 C 48.37126159667969 127.7566833496094 48.37225341796875 127.7540588378906 48.37318420410156 127.7515716552734 L 48.37339782714844 127.7510375976562 C 48.37431335449219 127.7485809326172 48.37516784667969 127.7463073730469 48.37596130371094 127.7442169189453 L 48.3760986328125 127.7438354492188 C 48.37640380859375 127.7430419921875 48.37669372558594 127.7422485351562 48.37698364257812 127.7415161132812 L 48.379638671875 127.7344665527344 C 48.37971496582031 127.7342529296875 48.37979125976562 127.7340545654297 48.37985229492188 127.7338714599609 L 48.380126953125 127.7331695556641 C 48.38026428222656 127.7327728271484 48.38041687011719 127.7323760986328 48.38055419921875 127.7320251464844 L 48.38081359863281 127.7313385009766 C 48.38084411621094 127.7312316894531 48.38087463378906 127.7311553955078 48.38092041015625 127.7310638427734 L 48.38160705566406 127.729248046875 C 48.38160705566406 127.7292175292969 48.38162231445312 127.7292022705078 48.38162231445312 127.7291870117188 L 48.38229370117188 127.7274017333984 Z M 51.20204162597656 120.2407989501953 L 54.00950622558594 121.2982177734375 L 52.59965515136719 125.04150390625 L 49.79214477539062 123.9841156005859 L 50.7027587890625 121.5664367675781 C 50.70295715332031 121.5658874511719 50.70318603515625 121.5652923583984 50.70338439941406 121.5647430419922 L 50.71086120605469 121.5448913574219 C 50.71095275878906 121.544677734375 50.71104431152344 121.54443359375 50.71112060546875 121.5442047119141 L 50.72142028808594 121.5168609619141 C 50.7220458984375 121.5152282714844 50.72267150878906 121.5135498046875 50.72328186035156 121.5119171142578 L 50.7259521484375 121.5048522949219 C 50.72799682617188 121.4994201660156 50.73002624511719 121.4940185546875 50.73207092285156 121.4886016845703 L 50.73329162597656 121.4853668212891 C 50.73471069335938 121.4815673828125 50.73614501953125 121.4777984619141 50.73756408691406 121.4740142822266 L 50.745361328125 121.4532928466797 C 50.74601745605469 121.4515686035156 50.74673461914062 121.4496612548828 50.74737548828125 121.4479370117188 L 50.74851989746094 121.4449310302734 C 50.75057983398438 121.439453125 50.75263977050781 121.4339752197266 50.75469970703125 121.4285125732422 L 50.75726318359375 121.4216918945312 C 51.00448608398438 120.7653350830078 51.20204162597656 120.2407989501953 51.20204162597656 120.2407989501953 Z M 54.02175903320312 112.7542266845703 L 56.82925415039062 113.8116149902344 L 55.41935729980469 117.5549011230469 L 52.61190795898438 116.4975128173828 L 54.02177429199219 112.7542266845703 Z M 56.84150695800781 105.2676086425781 L 59.64897155761719 106.3250427246094 L 58.23912048339844 110.0683288574219 L 55.43165588378906 109.0109405517578 C 55.43165588378906 109.0109405517578 55.87750244140625 107.8271331787109 56.26774597167969 106.791015625 L 56.26849365234375 106.7890319824219 C 56.27352905273438 106.7756500244141 56.278564453125 106.7622680664062 56.28358459472656 106.7489471435547 L 56.28494262695312 106.745361328125 C 56.28713989257812 106.7395324707031 56.289306640625 106.7337646484375 56.29150390625 106.7279510498047 L 56.84152221679688 105.2676239013672 Z M 59.6612548828125 97.78103637695312 L 62.46871948242188 98.83843994140625 L 61.05886840820312 102.5817260742188 L 58.25140380859375 101.5243225097656 C 58.25140380859375 101.5243225097656 59.6612548828125 97.78103637695312 59.6612548828125 97.78103637695312 Z M 62.48100280761719 90.29443359375 L 65.28847503662109 91.35183715820312 L 63.87858581542969 95.09515380859375 L 61.07112121582031 94.0377197265625 L 61.768798828125 92.18534851074219 C 61.76976013183594 92.18283081054688 61.77069091796875 92.18034362792969 61.77163696289062 92.17782592773438 L 61.77235412597656 92.17591857910156 C 61.77317810058594 92.17375183105469 61.77391052246094 92.17176818847656 61.77473449707031 92.16960144042969 L 61.77751159667969 92.16221618652344 C 62.1295166015625 91.2276611328125 62.48100280761719 90.29443359375 62.48100280761719 90.29443359375 Z M 65.30072021484375 82.80783081054688 L 68.10822296142578 83.86526489257812 L 66.69832611083984 87.60855102539062 L 63.890869140625 86.5511474609375 C 63.890869140625 86.5511474609375 64.014404296875 86.22314453125 64.18829345703125 85.76144409179688 L 64.19149780273438 85.7529296875 C 64.19290161132812 85.74920654296875 64.19427490234375 85.74557495117188 64.1956787109375 85.74183654785156 L 64.1983642578125 85.73472595214844 C 64.19871520996094 85.7337646484375 64.19906616210938 85.73283386230469 64.19943237304688 85.73187255859375 L 65.30073547363281 82.80783081054688 Z M 68.12046813964844 75.32125854492188 L 70.92793273925781 76.37864685058594 L 69.51808166503906 80.12193298339844 L 66.71061706542969 79.06454467773438 C 66.71061706542969 79.06454467773438 68.11995697021484 75.3226318359375 68.12046813964844 75.32125854492188 L 68.12046813964844 75.32125854492188 Z M 70.94022369384766 67.83465576171875 L 73.74768829345703 68.89207458496094 L 72.33782958984375 72.63536071777344 L 69.53032684326172 71.57797241210938 L 70.40057373046875 69.2674560546875 C 70.4013671875 69.26533508300781 70.40215301513672 69.26324462890625 70.40294647216797 69.26113891601562 L 70.40338897705078 69.25996398925781 C 70.40439605712891 69.25729370117188 70.40550231933594 69.25436401367188 70.40650177001953 69.25169372558594 L 70.40776062011719 69.24836730957031 C 70.41005706787109 69.24224853515625 70.41233825683594 69.2362060546875 70.41463470458984 69.2301025390625 L 70.41571807861328 69.22721862792969 C 70.42064666748047 69.21414184570312 70.42555236816406 69.20112609863281 70.43045043945312 69.1881103515625 L 70.43195343017578 69.18411254882812 C 70.70794677734375 68.45135498046875 70.94022369384766 67.83465576171875 70.94022369384766 67.83465576171875 Z M 73.75993347167969 60.34808349609375 L 76.56743621826172 61.40547180175781 L 75.15754699707031 65.14875793457031 L 72.35008239746094 64.09136962890625 L 73.75994873046875 60.34808349609375 Z M 76.57968902587891 52.86146545410156 L 79.38715362548828 53.91886901855469 L 77.977294921875 57.66218566894531 L 75.16983032226562 56.60475158691406 C 75.16983032226562 56.60475158691406 75.19152069091797 56.54718017578125 75.22954559326172 56.44621276855469 L 75.23126983642578 56.44161987304688 C 75.23136901855469 56.44137573242188 75.23143768310547 56.44117736816406 75.23153686523438 56.44091796875 L 75.23255920410156 56.43821716308594 C 75.23291778564453 56.437255859375 75.23331451416016 56.43618774414062 75.23368072509766 56.43522644042969 L 75.23427581787109 56.43365478515625 C 75.23533630371094 56.43083190917969 75.23639678955078 56.42802429199219 75.23748016357422 56.42514038085938 L 75.238037109375 56.42367553710938 C 75.23986053466797 56.4188232421875 75.24169921875 56.4139404296875 75.24359130859375 56.40892028808594 L 75.24379730224609 56.40837097167969 C 75.24420928955078 56.40727233886719 75.24457550048828 56.40629577636719 75.2449951171875 56.40519714355469 L 75.24638366699219 56.40150451660156 C 75.24736785888672 56.39889526367188 75.24833679199219 56.39631652832031 75.24933624267578 56.39366149902344 L 75.24999237060547 56.39192199707031 C 75.25103759765625 56.38914489746094 75.25211334228516 56.38629150390625 75.253173828125 56.38346862792969 L 75.25436401367188 56.38032531738281 C 75.25482177734375 56.37910461425781 75.25531768798828 56.37779235839844 75.25577545166016 56.37655639648438 L 75.25599670410156 56.3759765625 C 75.256591796875 56.37440490722656 75.25713348388672 56.37297058105469 75.25772857666016 56.37136840820312 L 75.258544921875 56.36920166015625 C 75.25881195068359 56.36849975585938 75.25907135009766 56.36781311035156 75.25933837890625 56.36711120605469 L 75.27432250976562 56.32733154296875 C 75.2745361328125 56.32675170898438 75.27471160888672 56.32627868652344 75.27493286132812 56.32571411132812 L 75.27647399902344 56.32160949707031 C 75.27688598632812 56.32051086425781 75.27725219726562 56.31954956054688 75.27766418457031 56.31845092773438 L 75.27854156494141 56.31611633300781 C 75.27888488769531 56.31520080566406 75.27924346923828 56.31425476074219 75.27958679199219 56.31333923339844 L 75.281494140625 56.30827331542969 C 75.28247833251953 56.3056640625 75.28350067138672 56.30296325683594 75.28449249267578 56.30032348632812 L 75.28617095947266 56.29585266113281 C 75.28634643554688 56.29539489746094 75.28651428222656 56.29495239257812 75.28668975830078 56.29449462890625 L 76.57969665527344 52.86148071289062 Z M 79.39943695068359 45.37490844726562 L 82.20690155029297 46.43229675292969 L 80.79704284667969 50.17558288574219 L 77.98957824707031 49.11817932128906 C 77.98957824707031 49.11817932128906 79.39943695068359 45.37490844726562 79.39943695068359 45.37490844726562 Z M 82.21918487548828 37.88829040527344 L 85.02664947509766 38.94569396972656 L 83.61676025390625 42.68901062011719 L 80.80929565429688 41.63157653808594 L 81.47060394287109 39.87577819824219 C 81.47073364257812 39.87544250488281 81.47095489501953 39.87484741210938 81.47108459472656 39.87451171875 L 81.47481536865234 39.8646240234375 C 81.47506713867188 39.86393737792969 81.47528076171875 39.86338806152344 81.47553253173828 39.86270141601562 L 81.47804260253906 39.85604858398438 C 81.47859954833984 39.85455322265625 81.47906494140625 39.85331726074219 81.47962951660156 39.85183715820312 L 81.48251342773438 39.84417724609375 C 81.48474884033203 39.83824157714844 81.4869384765625 39.83241271972656 81.48917388916016 39.82647705078125 L 81.48960876464844 39.82533264160156 C 81.85010528564453 38.86820983886719 82.21918487548828 37.88829040527344 82.21918487548828 37.88829040527344 Z M 85.03890228271484 30.40168762207031 L 87.84639739990234 31.45912170410156 L 86.43650817871094 35.20240783691406 L 83.62904357910156 34.14500427246094 C 83.62904357910156 34.14500427246094 83.76491546630859 33.78424072265625 83.95234680175781 33.28660583496094 L 83.95843505859375 33.27043151855469 C 83.95973205566406 33.26698303222656 83.96105194091797 33.26348876953125 83.96235656738281 33.26002502441406 L 83.96394348144531 33.25581359863281 C 83.96550750732422 33.25166320800781 83.96707153320312 33.24751281738281 83.96864318847656 33.24333190917969 L 83.97168731689453 33.23526000976562 C 83.97224426269531 33.2337646484375 83.97274780273438 33.232421875 83.97331237792969 33.23092651367188 L 83.97457885742188 33.22756958007812 C 83.9752197265625 33.22587585449219 83.97583770751953 33.22422790527344 83.97647857666016 33.2225341796875 L 83.97875213623047 33.21649169921875 C 83.97909545898438 33.21559143066406 83.97945404052734 33.21463012695312 83.97979736328125 33.21372985839844 L 85.03891754150391 30.40168762207031 Z M 87.85865020751953 22.91511535644531 L 90.66611480712891 23.97250366210938 L 89.25625610351562 27.71578979492188 L 86.44879150390625 26.65840148925781 C 86.44879150390625 26.65840148925781 87.85865020751953 22.91511535644531 87.85865020751953 22.91511535644531 Z M 90.67839813232422 15.42851257324219 L 93.48586273193359 16.48590087890625 L 92.07600402832031 20.22921752929688 L 89.26850891113281 19.17179870605469 L 90.3834228515625 16.211669921875 C 90.38417816162109 16.20968627929688 90.38490295410156 16.20774841308594 90.38565063476562 16.20576477050781 L 90.386962890625 16.20228576660156 C 90.38774871826172 16.2001953125 90.38846588134766 16.19830322265625 90.38924407958984 16.19622802734375 L 90.39067840576172 16.19242858886719 C 90.39102935791016 16.19148254394531 90.39131927490234 16.19071960449219 90.39167022705078 16.18977355957031 L 90.39450836181641 16.18223571777344 C 90.39514923095703 16.18055725097656 90.39569854736328 16.17909240722656 90.39633178710938 16.17739868164062 L 90.39652252197266 16.17691040039062 C 90.39746856689453 16.17437744140625 90.39839935302734 16.17190551757812 90.39934539794922 16.16940307617188 L 90.40024566650391 16.16700744628906 C 90.40217590332031 16.16188049316406 90.40413665771484 16.15667724609375 90.40605163574219 16.15159606933594 L 90.40689849853516 16.14933776855469 C 90.56705474853516 15.72413635253906 90.67839813232422 15.42851257324219 90.67839813232422 15.42851257324219 Z M 93.49815368652344 7.941940307617188 L 96.30561828613281 8.99932861328125 L 94.89572143554688 12.74261474609375 L 92.0882568359375 11.68522644042969 L 92.26821899414062 11.20742797851562 C 92.26932525634766 11.20449829101562 92.27042388916016 11.20155334472656 92.27153778076172 11.1986083984375 L 92.27351379394531 11.193359375 C 92.27690124511719 11.18437194824219 92.28026580810547 11.17543029785156 92.28372192382812 11.166259765625 L 92.28489685058594 11.16314697265625 C 92.67253112792969 10.13397216796875 93.49815368652344 7.941940307617188 93.49815368652344 7.941940307617188 Z" stroke="none" fill="#fff"/>
  </g>
</svg>
