<svg xmlns="http://www.w3.org/2000/svg" xmlns:xlink="http://www.w3.org/1999/xlink" width="157.705" height="113.139" viewBox="0 0 157.705 113.139">
  <defs>
    <linearGradient id="linear-gradient" x1="-0.168" y1="0.056" x2="0.5" y2="1" gradientUnits="objectBoundingBox">
      <stop offset="0" stop-color="#0ba6c8"/>
      <stop offset="1" stop-color="#6077c7"/>
    </linearGradient>
  </defs>
  <g id="banner-triangle-graphic-2" transform="translate(-194.467 -146.55)">
    <path id="Polygon_12" data-name="Polygon 12" d="M52.549,0,105.1,138.533H0Z" transform="translate(352.172 146.55) rotate(90)" fill="url(#linear-gradient)"/>
    <g id="Polygon_13" data-name="Polygon 13" transform="translate(342.417 206.533) rotate(90)" fill="rgba(255,255,255,0)">
      <path d="M 50.97895431518555 68.24183654785156 L 2.17686939239502 68.24183654785156 L 26.57791137695312 4.212220191955566 L 50.97895431518555 68.24183654785156 Z" stroke="none"/>
      <path d="M 26.57791137695312 8.424396514892578 L 4.353717803955078 66.74182891845703 L 48.80209350585938 66.74182891845703 L 26.57791137695312 8.424396514892578 M 26.57791137695312 0 L 53.15581893920898 69.74182891845703 L -7.62939453125e-06 69.74182891845703 L 26.57791137695312 0 Z" stroke="none" fill="#f8b954"/>
    </g>
    <path id="Intersection_6" data-name="Intersection 6" d="M0,80.154v-.033a.752.752,0,0,1,1.426-.307l-1.4.527A.738.738,0,0,1,0,80.154Zm7.29-3.632a.751.751,0,1,1,.751.744A.748.748,0,0,1,7.29,76.521Zm-3.645,0a.75.75,0,1,1,.75.744A.748.748,0,0,1,3.645,76.521ZM0,76.538V76.5a.744.744,0,1,1,0,.033Zm11.685-.761a.751.751,0,0,1,.3.061L11,76.206A.751.751,0,0,1,11.685,75.776Zm2.893-2.871a.751.751,0,1,1,.751.744A.748.748,0,0,1,14.579,72.906Zm-3.644,0a.75.75,0,1,1,.751.744A.747.747,0,0,1,10.935,72.906Zm-3.645,0a.751.751,0,1,1,.751.744A.747.747,0,0,1,7.29,72.906Zm-3.645,0a.75.75,0,1,1,.75.744A.748.748,0,0,1,3.645,72.906ZM0,72.922v-.033a.744.744,0,1,1,0,.033Zm18.224-.016a.751.751,0,0,1,1.5,0c0,.006,0,.011,0,.017l-1.3.49A.738.738,0,0,1,18.224,72.906Zm7.29-3.616a.751.751,0,1,1,.75.744A.747.747,0,0,1,25.514,69.29Zm-3.645,0a.751.751,0,1,1,.75.744A.747.747,0,0,1,21.869,69.29Zm-3.645,0a.751.751,0,1,1,.751.744A.748.748,0,0,1,18.224,69.29Zm-3.645,0a.751.751,0,1,1,.751.744A.748.748,0,0,1,14.579,69.29Zm-3.644,0a.75.75,0,1,1,.751.744A.747.747,0,0,1,10.935,69.29Zm-3.645,0a.751.751,0,1,1,.751.744A.747.747,0,0,1,7.29,69.29Zm-3.645,0a.75.75,0,1,1,.75.744A.748.748,0,0,1,3.645,69.29ZM0,69.306v-.033a.744.744,0,1,1,0,.033Zm29.158-.016a.752.752,0,0,1,1.362-.432l-1.357.511A.745.745,0,0,1,29.158,69.29ZM32.8,65.674a.751.751,0,1,1,.75.745A.748.748,0,0,1,32.8,65.674Zm-3.645,0a.751.751,0,1,1,.75.745A.748.748,0,0,1,29.158,65.674Zm-3.644,0a.751.751,0,1,1,.75.745A.748.748,0,0,1,25.514,65.674Zm-3.645,0a.751.751,0,1,1,.75.745A.748.748,0,0,1,21.869,65.674Zm-3.645,0a.751.751,0,1,1,.751.745A.748.748,0,0,1,18.224,65.674Zm-3.645,0a.751.751,0,1,1,.751.745A.748.748,0,0,1,14.579,65.674Zm-3.644,0a.75.75,0,1,1,.751.745A.748.748,0,0,1,10.935,65.674Zm-3.645,0a.751.751,0,1,1,.751.745A.748.748,0,0,1,7.29,65.674Zm-3.645,0a.75.75,0,1,1,.75.745A.748.748,0,0,1,3.645,65.674ZM0,65.691v-.033a.745.745,0,1,1,0,.033Zm36.448-.017a.75.75,0,0,1,1.5,0,.737.737,0,0,1-.145.44l-.764.288A.746.746,0,0,1,36.448,65.674Zm4.4-.744a.759.759,0,0,1,.092.006l-.654.246A.751.751,0,0,1,40.843,64.93Zm2.895-2.871a.75.75,0,1,1,.75.745A.748.748,0,0,1,43.738,62.058Zm-3.645,0a.75.75,0,1,1,.75.745A.748.748,0,0,1,40.093,62.058Zm-3.645,0a.75.75,0,1,1,.75.745A.748.748,0,0,1,36.448,62.058Zm-3.645,0a.751.751,0,1,1,.75.745A.748.748,0,0,1,32.8,62.058Zm-3.645,0a.751.751,0,1,1,.75.745A.748.748,0,0,1,29.158,62.058Zm-3.644,0a.751.751,0,1,1,.75.745A.748.748,0,0,1,25.514,62.058Zm-3.645,0a.751.751,0,1,1,.75.745A.748.748,0,0,1,21.869,62.058Zm-3.645,0a.751.751,0,1,1,.751.745A.748.748,0,0,1,18.224,62.058Zm-3.645,0a.751.751,0,1,1,.751.745A.748.748,0,0,1,14.579,62.058Zm-3.644,0a.75.75,0,1,1,.751.745A.748.748,0,0,1,10.935,62.058Zm-3.645,0a.751.751,0,1,1,.751.745A.748.748,0,0,1,7.29,62.058Zm-3.645,0a.75.75,0,1,1,.75.745A.748.748,0,0,1,3.645,62.058ZM0,62.075v-.033a.745.745,0,1,1,0,.033Zm47.382-.017a.751.751,0,0,1,1.492-.113l-1.372.517A.737.737,0,0,1,47.382,62.058Zm7.29-3.615a.751.751,0,1,1,.751.744A.747.747,0,0,1,54.672,58.443Zm-3.645,0a.75.75,0,1,1,.75.744A.748.748,0,0,1,51.027,58.443Zm-3.645,0a.75.75,0,1,1,.75.744A.748.748,0,0,1,47.382,58.443Zm-3.644,0a.75.75,0,1,1,.75.744A.747.747,0,0,1,43.738,58.443Zm-3.645,0a.75.75,0,1,1,.75.744A.747.747,0,0,1,40.093,58.443Zm-3.645,0a.75.75,0,1,1,.75.744A.747.747,0,0,1,36.448,58.443Zm-3.645,0a.751.751,0,1,1,.75.744A.748.748,0,0,1,32.8,58.443Zm-3.645,0a.751.751,0,1,1,.75.744A.748.748,0,0,1,29.158,58.443Zm-3.644,0a.751.751,0,1,1,.75.744A.747.747,0,0,1,25.514,58.443Zm-3.645,0a.751.751,0,1,1,.75.744A.747.747,0,0,1,21.869,58.443Zm-3.645,0a.751.751,0,1,1,.751.744A.748.748,0,0,1,18.224,58.443Zm-3.645,0a.751.751,0,1,1,.751.744A.748.748,0,0,1,14.579,58.443Zm-3.644,0a.75.75,0,1,1,.751.744A.747.747,0,0,1,10.935,58.443Zm-3.645,0a.751.751,0,1,1,.751.744A.747.747,0,0,1,7.29,58.443Zm-3.645,0a.75.75,0,1,1,.75.744A.748.748,0,0,1,3.645,58.443ZM0,58.46v-.033a.744.744,0,1,1,0,.033Zm47.382-3.632a.736.736,0,0,1,.12-.4l1.372.517a.751.751,0,0,1-1.492-.113Zm-3.644,0a.75.75,0,1,1,.75.744A.747.747,0,0,1,43.738,54.827Zm-3.645,0a.75.75,0,1,1,.75.744A.747.747,0,0,1,40.093,54.827Zm-3.645,0a.75.75,0,1,1,.75.744A.747.747,0,0,1,36.448,54.827Zm-3.645,0a.751.751,0,1,1,.75.744A.748.748,0,0,1,32.8,54.827Zm-3.645,0a.751.751,0,1,1,.75.744A.748.748,0,0,1,29.158,54.827Zm-3.644,0a.751.751,0,1,1,.75.744A.747.747,0,0,1,25.514,54.827Zm-3.645,0a.751.751,0,1,1,.75.744A.747.747,0,0,1,21.869,54.827Zm-3.645,0a.751.751,0,1,1,.751.744A.748.748,0,0,1,18.224,54.827Zm-3.645,0a.751.751,0,1,1,.751.744A.748.748,0,0,1,14.579,54.827Zm-3.644,0a.75.75,0,1,1,.751.744A.747.747,0,0,1,10.935,54.827Zm-3.645,0a.751.751,0,1,1,.751.744A.747.747,0,0,1,7.29,54.827Zm-3.645,0a.75.75,0,1,1,.75.744A.748.748,0,0,1,3.645,54.827ZM0,54.844v-.033a.744.744,0,1,1,0,.033ZM40.28,51.7l.654.246a.765.765,0,0,1-.091.005A.751.751,0,0,1,40.28,51.7Zm-3.832-.493a.746.746,0,0,1,.592-.728l.764.288a.737.737,0,0,1,.145.44.75.75,0,0,1-1.5,0Zm-3.645,0a.751.751,0,1,1,.75.744A.748.748,0,0,1,32.8,51.211Zm-3.645,0a.751.751,0,1,1,.75.744A.748.748,0,0,1,29.158,51.211Zm-3.644,0a.751.751,0,1,1,.75.744A.747.747,0,0,1,25.514,51.211Zm-3.645,0a.751.751,0,1,1,.75.744A.747.747,0,0,1,21.869,51.211Zm-3.645,0a.751.751,0,1,1,.751.744A.748.748,0,0,1,18.224,51.211Zm-3.645,0a.751.751,0,1,1,.751.744A.748.748,0,0,1,14.579,51.211Zm-3.644,0a.75.75,0,1,1,.751.744A.747.747,0,0,1,10.935,51.211Zm-3.645,0a.751.751,0,1,1,.751.744A.747.747,0,0,1,7.29,51.211Zm-3.645,0a.75.75,0,1,1,.75.744A.748.748,0,0,1,3.645,51.211ZM0,51.228v-.033a.744.744,0,1,1,0,.033ZM29.158,47.6a.743.743,0,0,1,0-.079l1.357.511a.752.752,0,0,1-1.361-.433Zm-3.644,0a.751.751,0,1,1,.75.744A.748.748,0,0,1,25.514,47.6Zm-3.645,0a.751.751,0,1,1,.75.744A.748.748,0,0,1,21.869,47.6Zm-3.645,0a.751.751,0,1,1,.751.744A.748.748,0,0,1,18.224,47.6Zm-3.645,0a.751.751,0,1,1,.751.744A.748.748,0,0,1,14.579,47.6Zm-3.644,0a.75.75,0,1,1,.751.744A.748.748,0,0,1,10.935,47.6Zm-3.645,0a.751.751,0,1,1,.751.744A.748.748,0,0,1,7.29,47.6Zm-3.645,0a.75.75,0,1,1,.75.744A.748.748,0,0,1,3.645,47.6ZM0,47.612v-.033a.744.744,0,1,1,0,.033ZM18.224,43.98a.737.737,0,0,1,.2-.506l1.3.49c0,.006,0,.011,0,.017a.751.751,0,0,1-1.5,0Zm-3.645,0a.751.751,0,1,1,.751.745A.748.748,0,0,1,14.579,43.98Zm-3.644,0a.75.75,0,1,1,.751.745A.747.747,0,0,1,10.935,43.98Zm-3.645,0a.751.751,0,1,1,.751.745A.747.747,0,0,1,7.29,43.98Zm-3.645,0a.75.75,0,1,1,.75.745A.747.747,0,0,1,3.645,43.98ZM0,44v-.033A.745.745,0,1,1,0,44Zm11-3.317.978.368A.754.754,0,0,1,11,40.679ZM7.29,40.365a.751.751,0,1,1,.751.744A.747.747,0,0,1,7.29,40.365Zm-3.645,0a.75.75,0,1,1,.75.744A.748.748,0,0,1,3.645,40.365ZM0,40.381v-.033a.744.744,0,1,1,0,.033Zm0-3.616v-.033a.739.739,0,0,1,.028-.187l1.4.527A.752.752,0,0,1,0,36.765Z" transform="translate(194.467 167.715)" fill="#eb002a"/>
  </g>
</svg>
