<svg xmlns="http://www.w3.org/2000/svg" width="265.451" height="199.316" viewBox="0 0 265.451 199.316">
  <g id="banner-triangle-graphic-3" transform="translate(14895.43 303.317)">
    <path id="Intersection_5" data-name="Intersection 5" d="M26,237.5a3.5,3.5,0,1,1,3.5,3.5A3.5,3.5,0,0,1,26,237.5Zm13,0a3.5,3.5,0,0,1,6.93-.706l-6.463,2.453A3.483,3.483,0,0,1,39,237.5Zm26-13a3.5,3.5,0,1,1,5.069,3.133l-.665.252A3.5,3.5,0,0,1,65,224.5Zm-13,0a3.5,3.5,0,1,1,3.5,3.5A3.5,3.5,0,0,1,52,224.5Zm-13,0a3.5,3.5,0,1,1,3.5,3.5A3.5,3.5,0,0,1,39,224.5Zm-13,0a3.5,3.5,0,1,1,3.5,3.5A3.5,3.5,0,0,1,26,224.5Zm52,0a3.5,3.5,0,0,1,6.2-2.231L78,224.619Q78,224.559,78,224.5Zm13-13a3.5,3.5,0,1,1,3.5,3.5A3.5,3.5,0,0,1,91,211.5Zm-13,0a3.5,3.5,0,1,1,3.5,3.5A3.5,3.5,0,0,1,78,211.5Zm-13,0a3.5,3.5,0,1,1,3.5,3.5A3.505,3.505,0,0,1,65,211.5Zm-13,0a3.5,3.5,0,1,1,3.5,3.5A3.5,3.5,0,0,1,52,211.5Zm-13,0a3.5,3.5,0,1,1,3.5,3.5A3.5,3.5,0,0,1,39,211.5Zm-13,0a3.5,3.5,0,1,1,3.5,3.5A3.505,3.505,0,0,1,26,211.5Zm78,0a3.5,3.5,0,1,1,6.948.612l-5.617,2.132A3.49,3.49,0,0,1,104,211.5Zm16.5-3.5a3.5,3.5,0,0,1,.945.129l-3.886,1.475A3.5,3.5,0,0,1,120.5,208Zm9.5-9.5a3.5,3.5,0,1,1,3.5,3.5A3.5,3.5,0,0,1,130,198.5Zm-13,0a3.5,3.5,0,1,1,3.5,3.5A3.5,3.5,0,0,1,117,198.5Zm-13,0a3.5,3.5,0,1,1,3.5,3.5A3.5,3.5,0,0,1,104,198.5Zm-13,0a3.5,3.5,0,1,1,3.5,3.5A3.5,3.5,0,0,1,91,198.5Zm-13,0a3.5,3.5,0,1,1,3.5,3.5A3.5,3.5,0,0,1,78,198.5Zm-13,0a3.5,3.5,0,1,1,3.5,3.5A3.5,3.5,0,0,1,65,198.5Zm-13,0a3.5,3.5,0,1,1,3.5,3.5A3.5,3.5,0,0,1,52,198.5Zm-13,0a3.5,3.5,0,1,1,3.5,3.5A3.5,3.5,0,0,1,39,198.5Zm-13,0a3.5,3.5,0,1,1,3.5,3.5A3.5,3.5,0,0,1,26,198.5Zm117,0a3.5,3.5,0,0,1,6.811-1.14l-6.543,2.484A3.483,3.483,0,0,1,143,198.5Zm13-13a3.5,3.5,0,1,1,3.5,3.5A3.5,3.5,0,0,1,156,185.5Zm-13,0a3.5,3.5,0,1,1,3.5,3.5A3.5,3.5,0,0,1,143,185.5Zm-13,0a3.5,3.5,0,1,1,3.5,3.5A3.5,3.5,0,0,1,130,185.5Zm-13,0a3.5,3.5,0,1,1,3.5,3.5A3.5,3.5,0,0,1,117,185.5Zm-13,0a3.5,3.5,0,1,1,3.5,3.5A3.5,3.5,0,0,1,104,185.5Zm-13,0a3.5,3.5,0,1,1,3.5,3.5A3.5,3.5,0,0,1,91,185.5Zm-13,0a3.5,3.5,0,1,1,3.5,3.5A3.5,3.5,0,0,1,78,185.5Zm-13,0a3.5,3.5,0,1,1,3.5,3.5A3.5,3.5,0,0,1,65,185.5Zm-13,0a3.5,3.5,0,1,1,3.5,3.5A3.5,3.5,0,0,1,52,185.5Zm-13,0a3.5,3.5,0,1,1,3.5,3.5A3.5,3.5,0,0,1,39,185.5Zm-13,0a3.5,3.5,0,1,1,3.5,3.5A3.5,3.5,0,0,1,26,185.5Zm143,0a3.5,3.5,0,1,1,6.2,2.221l-3.26,1.237A3.5,3.5,0,0,1,169,185.5Zm16.5-3.5a3.486,3.486,0,0,1,2.36.916l-5.844,2.219A3.5,3.5,0,0,1,185.5,182Zm9.5-9.5a3.5,3.5,0,1,1,3.5,3.5A3.5,3.5,0,0,1,195,172.5Zm-13,0a3.5,3.5,0,1,1,3.5,3.5A3.506,3.506,0,0,1,182,172.5Zm-13,0a3.5,3.5,0,1,1,3.5,3.5A3.5,3.5,0,0,1,169,172.5Zm-13,0a3.5,3.5,0,1,1,3.5,3.5A3.5,3.5,0,0,1,156,172.5Zm-13,0a3.5,3.5,0,1,1,3.5,3.5A3.5,3.5,0,0,1,143,172.5Zm-13,0a3.5,3.5,0,1,1,3.5,3.5A3.5,3.5,0,0,1,130,172.5Zm-13,0a3.5,3.5,0,1,1,3.5,3.5A3.5,3.5,0,0,1,117,172.5Zm-13,0a3.5,3.5,0,1,1,3.5,3.5A3.505,3.505,0,0,1,104,172.5Zm-13,0a3.5,3.5,0,1,1,3.5,3.5A3.5,3.5,0,0,1,91,172.5Zm-13,0a3.5,3.5,0,1,1,3.5,3.5A3.5,3.5,0,0,1,78,172.5Zm-13,0a3.5,3.5,0,1,1,3.5,3.5A3.506,3.506,0,0,1,65,172.5Zm-13,0a3.5,3.5,0,1,1,3.5,3.5A3.5,3.5,0,0,1,52,172.5Zm-13,0a3.5,3.5,0,1,1,3.5,3.5A3.5,3.5,0,0,1,39,172.5Zm-13,0a3.5,3.5,0,1,1,3.5,3.5A3.506,3.506,0,0,1,26,172.5Zm182,0a3.5,3.5,0,1,1,7,0c0,.038,0,.076,0,.113l-6.038,2.292A3.488,3.488,0,0,1,208,172.5Zm16.5-3.5h.021l-2.359.9A3.49,3.49,0,0,1,224.5,169Zm9.5-9.5a3.5,3.5,0,1,1,3.5,3.5A3.5,3.5,0,0,1,234,159.5Zm-13,0a3.5,3.5,0,1,1,3.5,3.5A3.5,3.5,0,0,1,221,159.5Zm-13,0a3.5,3.5,0,1,1,3.5,3.5A3.5,3.5,0,0,1,208,159.5Zm-13,0a3.5,3.5,0,1,1,3.5,3.5A3.5,3.5,0,0,1,195,159.5Zm-13,0a3.5,3.5,0,1,1,3.5,3.5A3.5,3.5,0,0,1,182,159.5Zm-13,0a3.5,3.5,0,1,1,3.5,3.5A3.5,3.5,0,0,1,169,159.5Zm-13,0a3.5,3.5,0,1,1,3.5,3.5A3.5,3.5,0,0,1,156,159.5Zm-13,0a3.5,3.5,0,1,1,3.5,3.5A3.5,3.5,0,0,1,143,159.5Zm-13,0a3.5,3.5,0,1,1,3.5,3.5A3.5,3.5,0,0,1,130,159.5Zm-13,0a3.5,3.5,0,1,1,3.5,3.5A3.5,3.5,0,0,1,117,159.5Zm-13,0a3.5,3.5,0,1,1,3.5,3.5A3.5,3.5,0,0,1,104,159.5Zm-13,0a3.5,3.5,0,1,1,3.5,3.5A3.5,3.5,0,0,1,91,159.5Zm-13,0a3.5,3.5,0,1,1,3.5,3.5A3.5,3.5,0,0,1,78,159.5Zm-13,0a3.5,3.5,0,1,1,3.5,3.5A3.5,3.5,0,0,1,65,159.5Zm-13,0a3.5,3.5,0,1,1,3.5,3.5A3.5,3.5,0,0,1,52,159.5Zm-13,0a3.5,3.5,0,1,1,3.5,3.5A3.5,3.5,0,0,1,39,159.5Zm-13,0a3.5,3.5,0,1,1,3.5,3.5A3.5,3.5,0,0,1,26,159.5Zm221,0a3.5,3.5,0,0,1,6.634-1.553l-6.512,2.472A3.505,3.505,0,0,1,247,159.5Zm13-13a3.5,3.5,0,1,1,3.5,3.5A3.5,3.5,0,0,1,260,146.5Zm-13,0a3.5,3.5,0,1,1,3.5,3.5A3.5,3.5,0,0,1,247,146.5Zm-13,0a3.5,3.5,0,1,1,3.5,3.5A3.5,3.5,0,0,1,234,146.5Zm-13,0a3.5,3.5,0,1,1,3.5,3.5A3.5,3.5,0,0,1,221,146.5Zm-13,0a3.5,3.5,0,1,1,3.5,3.5A3.5,3.5,0,0,1,208,146.5Zm-13,0a3.5,3.5,0,1,1,3.5,3.5A3.5,3.5,0,0,1,195,146.5Zm-13,0a3.5,3.5,0,1,1,3.5,3.5A3.5,3.5,0,0,1,182,146.5Zm-13,0a3.5,3.5,0,1,1,3.5,3.5A3.5,3.5,0,0,1,169,146.5Zm-13,0a3.5,3.5,0,1,1,3.5,3.5A3.5,3.5,0,0,1,156,146.5Zm-13,0a3.5,3.5,0,1,1,3.5,3.5A3.5,3.5,0,0,1,143,146.5Zm-13,0a3.5,3.5,0,1,1,3.5,3.5A3.5,3.5,0,0,1,130,146.5Zm-13,0a3.5,3.5,0,1,1,3.5,3.5A3.5,3.5,0,0,1,117,146.5Zm-13,0a3.5,3.5,0,1,1,3.5,3.5A3.5,3.5,0,0,1,104,146.5Zm-13,0a3.5,3.5,0,1,1,3.5,3.5A3.5,3.5,0,0,1,91,146.5Zm-13,0a3.5,3.5,0,1,1,3.5,3.5A3.5,3.5,0,0,1,78,146.5Zm-13,0a3.5,3.5,0,1,1,3.5,3.5A3.5,3.5,0,0,1,65,146.5Zm-13,0a3.5,3.5,0,1,1,3.5,3.5A3.5,3.5,0,0,1,52,146.5Zm-13,0a3.5,3.5,0,1,1,3.5,3.5A3.5,3.5,0,0,1,39,146.5Zm-13,0a3.5,3.5,0,1,1,3.5,3.5A3.5,3.5,0,0,1,26,146.5Zm247,0a3.5,3.5,0,1,1,6.619,1.585l-4.408,1.673A3.5,3.5,0,0,1,273,146.5Zm16.5-3.5a3.483,3.483,0,0,1,1.949.592l-5.336,2.026A3.5,3.5,0,0,1,289.5,143Zm-15.716-7.291,3.279,1.245a3.5,3.5,0,0,1-3.279-1.245ZM260,133.5a3.494,3.494,0,0,1,1.146-2.59l5.836,2.215A3.5,3.5,0,1,1,260,133.5Zm-13,0a3.5,3.5,0,1,1,3.5,3.5A3.5,3.5,0,0,1,247,133.5Zm-13,0a3.5,3.5,0,1,1,3.5,3.5A3.5,3.5,0,0,1,234,133.5Zm-13,0a3.5,3.5,0,1,1,3.5,3.5A3.505,3.505,0,0,1,221,133.5Zm-13,0a3.5,3.5,0,1,1,3.5,3.5A3.5,3.5,0,0,1,208,133.5Zm-13,0a3.5,3.5,0,1,1,3.5,3.5A3.5,3.5,0,0,1,195,133.5Zm-13,0a3.5,3.5,0,1,1,3.5,3.5A3.505,3.505,0,0,1,182,133.5Zm-13,0a3.5,3.5,0,1,1,3.5,3.5A3.5,3.5,0,0,1,169,133.5Zm-13,0a3.5,3.5,0,1,1,3.5,3.5A3.5,3.5,0,0,1,156,133.5Zm-13,0a3.5,3.5,0,1,1,3.5,3.5A3.5,3.5,0,0,1,143,133.5Zm-13,0a3.5,3.5,0,1,1,3.5,3.5A3.5,3.5,0,0,1,130,133.5Zm-13,0a3.5,3.5,0,1,1,3.5,3.5A3.5,3.5,0,0,1,117,133.5Zm-13,0a3.5,3.5,0,1,1,3.5,3.5A3.5,3.5,0,0,1,104,133.5Zm-13,0a3.5,3.5,0,1,1,3.5,3.5A3.5,3.5,0,0,1,91,133.5Zm-13,0a3.5,3.5,0,1,1,3.5,3.5A3.5,3.5,0,0,1,78,133.5Zm-13,0a3.5,3.5,0,1,1,3.5,3.5A3.505,3.505,0,0,1,65,133.5Zm-13,0a3.5,3.5,0,1,1,3.5,3.5A3.5,3.5,0,0,1,52,133.5Zm-13,0a3.5,3.5,0,1,1,3.5,3.5A3.5,3.5,0,0,1,39,133.5Zm-13,0a3.5,3.5,0,1,1,3.5,3.5A3.505,3.505,0,0,1,26,133.5Zm208-12.894,6.043,2.294A3.5,3.5,0,0,1,234,120.607Zm-13-.107a3.5,3.5,0,0,1,3.5-3.5l2.322.882A3.5,3.5,0,1,1,221,120.5Zm-13,0a3.5,3.5,0,1,1,3.5,3.5A3.5,3.5,0,0,1,208,120.5Zm-13,0a3.5,3.5,0,1,1,3.5,3.5A3.5,3.5,0,0,1,195,120.5Zm-13,0a3.5,3.5,0,1,1,3.5,3.5A3.5,3.5,0,0,1,182,120.5Zm-13,0a3.5,3.5,0,1,1,3.5,3.5A3.5,3.5,0,0,1,169,120.5Zm-13,0a3.5,3.5,0,1,1,3.5,3.5A3.5,3.5,0,0,1,156,120.5Zm-13,0a3.5,3.5,0,1,1,3.5,3.5A3.5,3.5,0,0,1,143,120.5Zm-13,0a3.5,3.5,0,1,1,3.5,3.5A3.5,3.5,0,0,1,130,120.5Zm-13,0a3.5,3.5,0,1,1,3.5,3.5A3.5,3.5,0,0,1,117,120.5Zm-13,0a3.5,3.5,0,1,1,3.5,3.5A3.5,3.5,0,0,1,104,120.5Zm-13,0a3.5,3.5,0,1,1,3.5,3.5A3.5,3.5,0,0,1,91,120.5Zm-13,0a3.5,3.5,0,1,1,3.5,3.5A3.5,3.5,0,0,1,78,120.5Zm-13,0a3.5,3.5,0,1,1,3.5,3.5A3.5,3.5,0,0,1,65,120.5Zm-13,0a3.5,3.5,0,1,1,3.5,3.5A3.5,3.5,0,0,1,52,120.5Zm-13,0a3.5,3.5,0,1,1,3.5,3.5A3.5,3.5,0,0,1,39,120.5Zm-13,0a3.5,3.5,0,1,1,3.5,3.5A3.5,3.5,0,0,1,26,120.5Zm169-13a3.486,3.486,0,0,1,.365-1.558l6.516,2.474A3.5,3.5,0,0,1,195,107.5Zm-13,0a3.5,3.5,0,1,1,3.5,3.5A3.5,3.5,0,0,1,182,107.5Zm-13,0a3.5,3.5,0,1,1,3.5,3.5A3.5,3.5,0,0,1,169,107.5Zm-13,0a3.5,3.5,0,1,1,3.5,3.5A3.5,3.5,0,0,1,156,107.5Zm-13,0a3.5,3.5,0,1,1,3.5,3.5A3.5,3.5,0,0,1,143,107.5Zm-13,0a3.5,3.5,0,1,1,3.5,3.5A3.5,3.5,0,0,1,130,107.5Zm-13,0a3.5,3.5,0,1,1,3.5,3.5A3.5,3.5,0,0,1,117,107.5Zm-13,0a3.5,3.5,0,1,1,3.5,3.5A3.5,3.5,0,0,1,104,107.5Zm-13,0a3.5,3.5,0,1,1,3.5,3.5A3.5,3.5,0,0,1,91,107.5Zm-13,0a3.5,3.5,0,1,1,3.5,3.5A3.5,3.5,0,0,1,78,107.5Zm-13,0a3.5,3.5,0,1,1,3.5,3.5A3.5,3.5,0,0,1,65,107.5Zm-13,0a3.5,3.5,0,1,1,3.5,3.5A3.5,3.5,0,0,1,52,107.5Zm-13,0a3.5,3.5,0,1,1,3.5,3.5A3.5,3.5,0,0,1,39,107.5Zm-13,0a3.5,3.5,0,1,1,3.5,3.5A3.5,3.5,0,0,1,26,107.5ZM169.374,96.074l4.422,1.679a3.5,3.5,0,0,1-4.422-1.679ZM156,94.5a3.5,3.5,0,0,1,1.557-2.913l5.331,2.024A3.5,3.5,0,1,1,156,94.5Zm-13,0a3.5,3.5,0,1,1,3.5,3.5A3.5,3.5,0,0,1,143,94.5Zm-13,0a3.5,3.5,0,1,1,3.5,3.5A3.5,3.5,0,0,1,130,94.5Zm-13,0a3.5,3.5,0,1,1,3.5,3.5A3.5,3.5,0,0,1,117,94.5Zm-13,0a3.5,3.5,0,1,1,3.5,3.5A3.505,3.505,0,0,1,104,94.5Zm-13,0A3.5,3.5,0,1,1,94.5,98,3.5,3.5,0,0,1,91,94.5Zm-13,0A3.5,3.5,0,1,1,81.5,98,3.5,3.5,0,0,1,78,94.5Zm-13,0A3.5,3.5,0,1,1,68.5,98,3.506,3.506,0,0,1,65,94.5Zm-13,0A3.5,3.5,0,1,1,55.5,98,3.5,3.5,0,0,1,52,94.5Zm-13,0A3.5,3.5,0,1,1,42.5,98,3.5,3.5,0,0,1,39,94.5Zm-13,0A3.5,3.5,0,1,1,29.5,98,3.506,3.506,0,0,1,26,94.5Zm104-13a3.538,3.538,0,0,1,.019-.365l6.326,2.4A3.5,3.5,0,0,1,130,81.5Zm-13,0a3.5,3.5,0,1,1,3.5,3.5A3.5,3.5,0,0,1,117,81.5Zm-13,0a3.5,3.5,0,1,1,3.5,3.5A3.5,3.5,0,0,1,104,81.5Zm-13,0A3.5,3.5,0,1,1,94.5,85,3.5,3.5,0,0,1,91,81.5Zm-13,0A3.5,3.5,0,1,1,81.5,85,3.5,3.5,0,0,1,78,81.5Zm-13,0A3.5,3.5,0,1,1,68.5,85,3.5,3.5,0,0,1,65,81.5Zm-13,0A3.5,3.5,0,1,1,55.5,85,3.5,3.5,0,0,1,52,81.5Zm-13,0A3.5,3.5,0,1,1,42.5,85,3.5,3.5,0,0,1,39,81.5Zm-13,0A3.5,3.5,0,1,1,29.5,85,3.5,3.5,0,0,1,26,81.5Zm65-13a3.481,3.481,0,0,1,.594-1.95l6.373,2.419A3.5,3.5,0,0,1,91,68.5Zm-13,0A3.5,3.5,0,1,1,81.5,72,3.5,3.5,0,0,1,78,68.5Zm-13,0A3.5,3.5,0,1,1,68.5,72,3.5,3.5,0,0,1,65,68.5Zm-13,0A3.5,3.5,0,1,1,55.5,72,3.5,3.5,0,0,1,52,68.5Zm-13,0A3.5,3.5,0,1,1,42.5,72,3.5,3.5,0,0,1,39,68.5Zm-13,0A3.5,3.5,0,1,1,29.5,72,3.5,3.5,0,0,1,26,68.5ZM65.145,56.507l5.194,1.972a3.5,3.5,0,0,1-5.194-1.972ZM52,55.5a3.5,3.5,0,0,1,2.07-3.2l4.617,1.753A3.5,3.5,0,1,1,52,55.5Zm-13,0A3.5,3.5,0,1,1,42.5,59,3.5,3.5,0,0,1,39,55.5Zm-13,0A3.5,3.5,0,1,1,29.5,59,3.505,3.505,0,0,1,26,55.5Zm0-13a3.5,3.5,0,0,1,.1-.817l6.494,2.465A3.5,3.5,0,0,1,26,42.5Z" transform="translate(-14921.429 -345)" fill="#a1c86d"/>
    <path id="Polygon_28" data-name="Polygon 28" d="M31,0,62,81.353H0Z" transform="translate(-14747.518 -303.317) rotate(90)" fill="rgba(255,255,255,0.3)"/>
  </g>
</svg>
