<svg xmlns="http://www.w3.org/2000/svg" width="152.528" height="126.325" viewBox="0 0 152.528 126.325">
  <g id="graphic-triangle-1" transform="translate(14895.43 303.317)">
    <path id="Intersection_5" data-name="Intersection 5" d="M0,112.516a2.012,2.012,0,1,1,2.013,2.011A2.013,2.013,0,0,1,0,112.516Zm7.471,0a2.012,2.012,0,0,1,3.982-.405l-3.713,1.41A2,2,0,0,1,7.471,112.516Zm14.939-7.471a2.012,2.012,0,1,1,2.913,1.8l-.382.145a2.014,2.014,0,0,1-2.531-1.945Zm-7.468,0a2.01,2.01,0,1,1,2.011,2.013A2.01,2.01,0,0,1,14.941,105.046Zm-7.471,0a2.011,2.011,0,1,1,2.011,2.013A2.01,2.01,0,0,1,7.471,105.046Zm-7.471,0a2.012,2.012,0,1,1,2.013,2.013A2.012,2.012,0,0,1,0,105.046Zm29.88,0a2.011,2.011,0,0,1,3.56-1.282l-3.559,1.351Q29.88,105.081,29.88,105.046Zm7.47-7.468a2.011,2.011,0,1,1,2.011,2.01A2.012,2.012,0,0,1,37.35,97.578Zm-7.47,0a2.011,2.011,0,1,1,2.01,2.01A2.012,2.012,0,0,1,29.88,97.578Zm-7.471,0a2.012,2.012,0,1,1,2.013,2.01A2.014,2.014,0,0,1,22.409,97.578Zm-7.468,0a2.01,2.01,0,1,1,2.011,2.01A2.012,2.012,0,0,1,14.941,97.578Zm-7.471,0a2.011,2.011,0,1,1,2.011,2.01A2.012,2.012,0,0,1,7.471,97.578ZM0,97.578a2.012,2.012,0,1,1,2.013,2.01A2.014,2.014,0,0,1,0,97.578Zm44.819,0a2.011,2.011,0,1,1,3.992.351l-3.228,1.225A2.006,2.006,0,0,1,44.819,97.578ZM54.3,95.565a2.01,2.01,0,0,1,.543.074l-2.233.848A2.008,2.008,0,0,1,54.3,95.565Zm5.46-5.458a2.01,2.01,0,1,1,2.01,2.01A2.01,2.01,0,0,1,59.76,90.107Zm-7.471,0a2.012,2.012,0,1,1,2.011,2.01A2.01,2.01,0,0,1,52.29,90.107Zm-7.471,0a2.011,2.011,0,1,1,2.013,2.01A2.012,2.012,0,0,1,44.819,90.107Zm-7.469,0a2.011,2.011,0,1,1,2.011,2.01A2.01,2.01,0,0,1,37.35,90.107Zm-7.47,0a2.011,2.011,0,1,1,2.01,2.01A2.01,2.01,0,0,1,29.88,90.107Zm-7.471,0a2.012,2.012,0,1,1,2.013,2.01A2.012,2.012,0,0,1,22.409,90.107Zm-7.468,0a2.01,2.01,0,1,1,2.011,2.01A2.01,2.01,0,0,1,14.941,90.107Zm-7.471,0a2.011,2.011,0,1,1,2.011,2.01A2.01,2.01,0,0,1,7.471,90.107ZM0,90.107a2.012,2.012,0,1,1,2.013,2.01A2.012,2.012,0,0,1,0,90.107Zm67.229,0a2.012,2.012,0,0,1,3.914-.655l-3.76,1.427A2,2,0,0,1,67.229,90.107Zm7.47-7.471a2.012,2.012,0,1,1,2.011,2.013A2.011,2.011,0,0,1,74.7,82.637Zm-7.47,0a2.011,2.011,0,1,1,2.012,2.013A2.012,2.012,0,0,1,67.229,82.637Zm-7.469,0a2.01,2.01,0,1,1,2.01,2.013A2.01,2.01,0,0,1,59.76,82.637Zm-7.471,0A2.012,2.012,0,1,1,54.3,84.649,2.01,2.01,0,0,1,52.29,82.637Zm-7.471,0a2.011,2.011,0,1,1,2.013,2.013A2.012,2.012,0,0,1,44.819,82.637Zm-7.469,0a2.011,2.011,0,1,1,2.011,2.013A2.011,2.011,0,0,1,37.35,82.637Zm-7.47,0a2.011,2.011,0,1,1,2.01,2.013A2.01,2.01,0,0,1,29.88,82.637Zm-7.471,0a2.012,2.012,0,1,1,2.013,2.013A2.012,2.012,0,0,1,22.409,82.637Zm-7.468,0a2.01,2.01,0,1,1,2.011,2.013A2.01,2.01,0,0,1,14.941,82.637Zm-7.471,0a2.011,2.011,0,1,1,2.011,2.013A2.011,2.011,0,0,1,7.471,82.637ZM0,82.637a2.012,2.012,0,1,1,2.013,2.013A2.012,2.012,0,0,1,0,82.637Zm82.169,0a2.01,2.01,0,1,1,3.565,1.276l-1.873.711A2.013,2.013,0,0,1,82.169,82.637Zm9.481-2.011a2,2,0,0,1,1.356.526l-3.358,1.275A2.013,2.013,0,0,1,91.651,80.626Zm5.458-5.458a2.012,2.012,0,1,1,2.01,2.011A2.012,2.012,0,0,1,97.108,75.168Zm-7.471,0a2.012,2.012,0,1,1,2.013,2.011A2.014,2.014,0,0,1,89.638,75.168Zm-7.469,0a2.01,2.01,0,1,1,2.011,2.011A2.012,2.012,0,0,1,82.169,75.168Zm-7.471,0a2.012,2.012,0,1,1,2.011,2.011A2.013,2.013,0,0,1,74.7,75.168Zm-7.47,0a2.011,2.011,0,1,1,2.012,2.011A2.014,2.014,0,0,1,67.229,75.168Zm-7.469,0a2.01,2.01,0,1,1,2.01,2.011A2.012,2.012,0,0,1,59.76,75.168Zm-7.471,0A2.012,2.012,0,1,1,54.3,77.179,2.012,2.012,0,0,1,52.29,75.168Zm-7.471,0a2.011,2.011,0,1,1,2.013,2.011A2.014,2.014,0,0,1,44.819,75.168Zm-7.469,0a2.011,2.011,0,1,1,2.011,2.011A2.013,2.013,0,0,1,37.35,75.168Zm-7.47,0a2.011,2.011,0,1,1,2.01,2.011A2.012,2.012,0,0,1,29.88,75.168Zm-7.471,0a2.012,2.012,0,1,1,2.013,2.011A2.014,2.014,0,0,1,22.409,75.168Zm-7.468,0a2.01,2.01,0,1,1,2.011,2.011A2.012,2.012,0,0,1,14.941,75.168Zm-7.471,0a2.011,2.011,0,1,1,2.011,2.011A2.013,2.013,0,0,1,7.471,75.168ZM0,75.168a2.012,2.012,0,1,1,2.013,2.011A2.014,2.014,0,0,1,0,75.168Zm104.579,0a2.01,2.01,0,1,1,4.021,0c0,.022,0,.043,0,.065l-3.469,1.317A2,2,0,0,1,104.579,75.168Zm9.481-2.013h.012l-1.355.514A2.006,2.006,0,0,1,114.06,73.155Zm5.457-5.458a2.011,2.011,0,1,1,2.011,2.011A2.01,2.01,0,0,1,119.518,67.7Zm-7.471,0a2.012,2.012,0,1,1,2.013,2.011A2.013,2.013,0,0,1,112.047,67.7Zm-7.468,0a2.01,2.01,0,1,1,2.01,2.011A2.01,2.01,0,0,1,104.579,67.7Zm-7.471,0a2.012,2.012,0,1,1,2.01,2.011A2.01,2.01,0,0,1,97.108,67.7Zm-7.471,0a2.012,2.012,0,1,1,2.013,2.011A2.013,2.013,0,0,1,89.638,67.7Zm-7.469,0a2.01,2.01,0,1,1,2.011,2.011A2.01,2.01,0,0,1,82.169,67.7Zm-7.471,0a2.012,2.012,0,1,1,2.011,2.011A2.011,2.011,0,0,1,74.7,67.7Zm-7.47,0a2.011,2.011,0,1,1,2.012,2.011A2.012,2.012,0,0,1,67.229,67.7Zm-7.469,0a2.01,2.01,0,1,1,2.01,2.011A2.01,2.01,0,0,1,59.76,67.7Zm-7.471,0A2.012,2.012,0,1,1,54.3,69.708,2.01,2.01,0,0,1,52.29,67.7Zm-7.471,0a2.011,2.011,0,1,1,2.013,2.011A2.012,2.012,0,0,1,44.819,67.7Zm-7.469,0a2.011,2.011,0,1,1,2.011,2.011A2.011,2.011,0,0,1,37.35,67.7Zm-7.47,0a2.011,2.011,0,1,1,2.01,2.011A2.01,2.01,0,0,1,29.88,67.7Zm-7.471,0a2.012,2.012,0,1,1,2.013,2.011A2.013,2.013,0,0,1,22.409,67.7Zm-7.468,0a2.01,2.01,0,1,1,2.011,2.011A2.01,2.01,0,0,1,14.941,67.7Zm-7.471,0a2.011,2.011,0,1,1,2.011,2.011A2.011,2.011,0,0,1,7.471,67.7ZM0,67.7a2.012,2.012,0,1,1,2.013,2.011A2.013,2.013,0,0,1,0,67.7Zm126.989,0A2.01,2.01,0,0,1,130.8,66.8l-3.742,1.42A2.014,2.014,0,0,1,126.989,67.7Zm7.468-7.471a2.012,2.012,0,1,1,2.013,2.013A2.012,2.012,0,0,1,134.457,60.227Zm-7.468,0A2.01,2.01,0,1,1,129,62.239,2.01,2.01,0,0,1,126.989,60.227Zm-7.471,0a2.011,2.011,0,1,1,2.011,2.013A2.01,2.01,0,0,1,119.518,60.227Zm-7.471,0a2.012,2.012,0,1,1,2.013,2.013A2.012,2.012,0,0,1,112.047,60.227Zm-7.468,0a2.01,2.01,0,1,1,2.01,2.013A2.01,2.01,0,0,1,104.579,60.227Zm-7.471,0a2.012,2.012,0,1,1,2.01,2.013A2.01,2.01,0,0,1,97.108,60.227Zm-7.471,0a2.012,2.012,0,1,1,2.013,2.013A2.012,2.012,0,0,1,89.638,60.227Zm-7.469,0a2.01,2.01,0,1,1,2.011,2.013A2.01,2.01,0,0,1,82.169,60.227Zm-7.471,0a2.012,2.012,0,1,1,2.011,2.013A2.01,2.01,0,0,1,74.7,60.227Zm-7.47,0a2.011,2.011,0,1,1,2.012,2.013A2.012,2.012,0,0,1,67.229,60.227Zm-7.469,0a2.01,2.01,0,1,1,2.01,2.013A2.01,2.01,0,0,1,59.76,60.227Zm-7.471,0A2.012,2.012,0,1,1,54.3,62.239,2.01,2.01,0,0,1,52.29,60.227Zm-7.471,0a2.011,2.011,0,1,1,2.013,2.013A2.012,2.012,0,0,1,44.819,60.227Zm-7.469,0a2.011,2.011,0,1,1,2.011,2.013A2.01,2.01,0,0,1,37.35,60.227Zm-7.47,0a2.011,2.011,0,1,1,2.01,2.013A2.01,2.01,0,0,1,29.88,60.227Zm-7.471,0a2.012,2.012,0,1,1,2.013,2.013A2.012,2.012,0,0,1,22.409,60.227Zm-7.468,0a2.01,2.01,0,1,1,2.011,2.013A2.01,2.01,0,0,1,14.941,60.227Zm-7.471,0a2.011,2.011,0,1,1,2.011,2.013A2.01,2.01,0,0,1,7.471,60.227ZM0,60.227a2.012,2.012,0,1,1,2.013,2.013A2.012,2.012,0,0,1,0,60.227Zm141.927,0a2.01,2.01,0,1,1,3.8.911L143.2,62.1A2.014,2.014,0,0,1,141.927,60.227Zm9.481-2.01a2,2,0,0,1,1.12.34l-3.066,1.164A2.011,2.011,0,0,1,151.409,58.217Zm-9.03-4.189,1.884.715a2.014,2.014,0,0,1-1.884-.715Zm-7.921-1.269a2.007,2.007,0,0,1,.659-1.488l3.353,1.273a2.034,2.034,0,0,1,.011.215,2.012,2.012,0,0,1-4.023,0Zm-7.468,0a2.01,2.01,0,1,1,2.01,2.01A2.012,2.012,0,0,1,126.989,52.759Zm-7.471,0a2.011,2.011,0,1,1,2.011,2.01A2.012,2.012,0,0,1,119.518,52.759Zm-7.471,0a2.012,2.012,0,1,1,2.013,2.01A2.014,2.014,0,0,1,112.047,52.759Zm-7.468,0a2.01,2.01,0,1,1,2.01,2.01A2.012,2.012,0,0,1,104.579,52.759Zm-7.471,0a2.012,2.012,0,1,1,2.01,2.01A2.012,2.012,0,0,1,97.108,52.759Zm-7.471,0a2.012,2.012,0,1,1,2.013,2.01A2.014,2.014,0,0,1,89.638,52.759Zm-7.469,0a2.01,2.01,0,1,1,2.011,2.01A2.012,2.012,0,0,1,82.169,52.759Zm-7.471,0a2.012,2.012,0,1,1,2.011,2.01A2.012,2.012,0,0,1,74.7,52.759Zm-7.47,0a2.011,2.011,0,1,1,2.012,2.01A2.014,2.014,0,0,1,67.229,52.759Zm-7.469,0a2.01,2.01,0,1,1,2.01,2.01A2.012,2.012,0,0,1,59.76,52.759Zm-7.471,0a2.012,2.012,0,1,1,2.011,2.01A2.012,2.012,0,0,1,52.29,52.759Zm-7.471,0a2.011,2.011,0,1,1,2.013,2.01A2.014,2.014,0,0,1,44.819,52.759Zm-7.469,0a2.011,2.011,0,1,1,2.011,2.01A2.012,2.012,0,0,1,37.35,52.759Zm-7.47,0a2.011,2.011,0,1,1,2.01,2.01A2.012,2.012,0,0,1,29.88,52.759Zm-7.471,0a2.012,2.012,0,1,1,2.013,2.01A2.014,2.014,0,0,1,22.409,52.759Zm-7.468,0a2.01,2.01,0,1,1,2.011,2.01A2.012,2.012,0,0,1,14.941,52.759Zm-7.471,0a2.011,2.011,0,1,1,2.011,2.01A2.012,2.012,0,0,1,7.471,52.759ZM0,52.759a2.012,2.012,0,1,1,2.013,2.01A2.014,2.014,0,0,1,0,52.759ZM119.519,45.35l3.472,1.318a2.011,2.011,0,0,1-3.472-1.318Zm-7.472-.061a2.012,2.012,0,0,1,2.013-2.011l1.334.507a2.011,2.011,0,1,1-3.347,1.5Zm-7.468,0a2.01,2.01,0,1,1,2.01,2.01A2.01,2.01,0,0,1,104.579,45.288Zm-7.471,0a2.012,2.012,0,1,1,2.01,2.01A2.01,2.01,0,0,1,97.108,45.288Zm-7.471,0a2.012,2.012,0,1,1,2.013,2.01A2.012,2.012,0,0,1,89.638,45.288Zm-7.469,0A2.01,2.01,0,1,1,84.18,47.3,2.01,2.01,0,0,1,82.169,45.288Zm-7.471,0a2.012,2.012,0,1,1,2.011,2.01A2.011,2.011,0,0,1,74.7,45.288Zm-7.47,0a2.011,2.011,0,1,1,2.012,2.01A2.012,2.012,0,0,1,67.229,45.288Zm-7.469,0a2.01,2.01,0,1,1,2.01,2.01A2.01,2.01,0,0,1,59.76,45.288Zm-7.471,0A2.012,2.012,0,1,1,54.3,47.3,2.01,2.01,0,0,1,52.29,45.288Zm-7.471,0a2.011,2.011,0,1,1,2.013,2.01A2.012,2.012,0,0,1,44.819,45.288Zm-7.469,0a2.011,2.011,0,1,1,2.011,2.01A2.01,2.01,0,0,1,37.35,45.288Zm-7.47,0a2.011,2.011,0,1,1,2.01,2.01A2.01,2.01,0,0,1,29.88,45.288Zm-7.471,0a2.012,2.012,0,1,1,2.013,2.01A2.012,2.012,0,0,1,22.409,45.288Zm-7.468,0a2.01,2.01,0,1,1,2.011,2.01A2.01,2.01,0,0,1,14.941,45.288Zm-7.471,0A2.011,2.011,0,1,1,9.481,47.3,2.01,2.01,0,0,1,7.471,45.288ZM0,45.288A2.012,2.012,0,1,1,2.013,47.3,2.012,2.012,0,0,1,0,45.288Zm97.108-7.471a2,2,0,0,1,.21-.9l3.744,1.421a2.012,2.012,0,0,1-3.954-.526Zm-7.471,0a2.012,2.012,0,1,1,2.013,2.013A2.012,2.012,0,0,1,89.638,37.818Zm-7.469,0A2.01,2.01,0,1,1,84.18,39.83,2.01,2.01,0,0,1,82.169,37.818Zm-7.471,0a2.012,2.012,0,1,1,2.011,2.013A2.01,2.01,0,0,1,74.7,37.818Zm-7.47,0a2.011,2.011,0,1,1,2.012,2.013A2.012,2.012,0,0,1,67.229,37.818Zm-7.469,0a2.01,2.01,0,1,1,2.01,2.013A2.01,2.01,0,0,1,59.76,37.818Zm-7.471,0A2.012,2.012,0,1,1,54.3,39.83,2.01,2.01,0,0,1,52.29,37.818Zm-7.471,0a2.011,2.011,0,1,1,2.013,2.013A2.012,2.012,0,0,1,44.819,37.818Zm-7.469,0a2.011,2.011,0,1,1,2.011,2.013A2.01,2.01,0,0,1,37.35,37.818Zm-7.47,0a2.011,2.011,0,1,1,2.01,2.013A2.01,2.01,0,0,1,29.88,37.818Zm-7.471,0a2.012,2.012,0,1,1,2.013,2.013A2.012,2.012,0,0,1,22.409,37.818Zm-7.468,0a2.01,2.01,0,1,1,2.011,2.013A2.01,2.01,0,0,1,14.941,37.818Zm-7.471,0A2.011,2.011,0,1,1,9.481,39.83,2.01,2.01,0,0,1,7.471,37.818ZM0,37.818A2.012,2.012,0,1,1,2.013,39.83,2.012,2.012,0,0,1,0,37.818Zm82.383-6.565,2.541.965a2.013,2.013,0,0,1-2.541-.965Zm-7.685-.9a2.012,2.012,0,0,1,.894-1.674l3.063,1.163a2.012,2.012,0,1,1-3.958.511Zm-7.47,0a2.011,2.011,0,1,1,2.012,2.011A2.014,2.014,0,0,1,67.229,30.349Zm-7.469,0a2.01,2.01,0,1,1,2.01,2.011A2.012,2.012,0,0,1,59.76,30.349Zm-7.471,0A2.012,2.012,0,1,1,54.3,32.36,2.012,2.012,0,0,1,52.29,30.349Zm-7.471,0a2.011,2.011,0,1,1,2.013,2.011A2.014,2.014,0,0,1,44.819,30.349Zm-7.469,0a2.011,2.011,0,1,1,2.011,2.011A2.013,2.013,0,0,1,37.35,30.349Zm-7.47,0a2.011,2.011,0,1,1,2.01,2.011A2.012,2.012,0,0,1,29.88,30.349Zm-7.471,0a2.012,2.012,0,1,1,2.013,2.011A2.014,2.014,0,0,1,22.409,30.349Zm-7.468,0a2.01,2.01,0,1,1,2.011,2.011A2.012,2.012,0,0,1,14.941,30.349Zm-7.471,0A2.011,2.011,0,1,1,9.481,32.36,2.013,2.013,0,0,1,7.471,30.349ZM0,30.349A2.012,2.012,0,1,1,2.013,32.36,2.014,2.014,0,0,1,0,30.349Zm59.76-7.471a2.032,2.032,0,0,1,.011-.21l3.635,1.38a2.011,2.011,0,0,1-3.646-1.17Zm-7.471,0A2.012,2.012,0,1,1,54.3,24.889,2.01,2.01,0,0,1,52.29,22.878Zm-7.471,0a2.011,2.011,0,1,1,2.013,2.011A2.012,2.012,0,0,1,44.819,22.878Zm-7.469,0a2.011,2.011,0,1,1,2.011,2.011A2.011,2.011,0,0,1,37.35,22.878Zm-7.47,0a2.011,2.011,0,1,1,2.01,2.011A2.01,2.01,0,0,1,29.88,22.878Zm-7.471,0a2.012,2.012,0,1,1,2.013,2.011A2.013,2.013,0,0,1,22.409,22.878Zm-7.468,0a2.01,2.01,0,1,1,2.011,2.011A2.01,2.01,0,0,1,14.941,22.878Zm-7.471,0a2.011,2.011,0,1,1,2.011,2.011A2.011,2.011,0,0,1,7.471,22.878ZM0,22.878a2.012,2.012,0,1,1,2.013,2.011A2.013,2.013,0,0,1,0,22.878Zm37.35-7.471a2,2,0,0,1,.341-1.121l3.662,1.39a2.011,2.011,0,0,1-4-.27Zm-7.47,0a2.011,2.011,0,1,1,2.01,2.013A2.01,2.01,0,0,1,29.88,15.408Zm-7.471,0a2.012,2.012,0,1,1,2.013,2.013A2.012,2.012,0,0,1,22.409,15.408Zm-7.468,0a2.01,2.01,0,1,1,2.011,2.013A2.01,2.01,0,0,1,14.941,15.408Zm-7.471,0a2.011,2.011,0,1,1,2.011,2.013A2.01,2.01,0,0,1,7.471,15.408ZM0,15.408a2.012,2.012,0,1,1,2.013,2.013A2.012,2.012,0,0,1,0,15.408Zm22.494-6.89,2.984,1.133a2.014,2.014,0,0,1-2.984-1.133ZM14.941,7.94A2.014,2.014,0,0,1,16.13,6.1l2.653,1.007a2.011,2.011,0,1,1-3.842.83Zm-7.471,0A2.011,2.011,0,1,1,9.481,9.95,2.012,2.012,0,0,1,7.471,7.94ZM0,7.94A2.012,2.012,0,1,1,2.013,9.95,2.014,2.014,0,0,1,0,7.94ZM0,.469A2.013,2.013,0,0,1,.055,0L3.787,1.416A2.012,2.012,0,0,1,0,.469Z" transform="translate(-14895.431 -303.317)" fill="#276099"/>
    <g id="Polygon_28" data-name="Polygon 28" transform="translate(-14757.307 -233.262) rotate(90)" fill="none" stroke-dasharray="4 4">
      <path d="M28.136,0,56.271,73.819H0Z" stroke="none"/>
      <path d="M 28.13551712036133 0 C 28.13551712036133 0 28.14101982116699 0.014434814453125 28.15133476257324 0.04150390625 L 28.15168762207031 0.04242706298828125 C 28.15228271484375 0.04398345947265625 28.15289878845215 0.04560089111328125 28.15352439880371 0.0472412109375 L 28.15353584289551 0.047271728515625 C 28.15558433532715 0.05265045166015625 28.15777587890625 0.05840301513671875 28.16015243530273 0.06463623046875 L 28.16037940979004 0.0652313232421875 C 28.16311836242676 0.072418212890625 28.16609573364258 0.080230712890625 28.16925239562988 0.0885162353515625 L 28.16945838928223 0.08905029296875 C 28.1696891784668 0.08966064453125 28.16994094848633 0.0903167724609375 28.17017555236816 0.09093475341796875 L 28.17109298706055 0.0933380126953125 C 28.17141914367676 0.0941925048828125 28.17173767089844 0.09503173828125 28.17206954956055 0.0959014892578125 L 28.17227935791016 0.0964508056640625 C 28.17268562316895 0.0975189208984375 28.17311859130859 0.09865570068359375 28.17353057861328 0.09973907470703125 L 28.17377090454102 0.1003646850585938 C 28.17453956604004 0.1023788452148438 28.17530632019043 0.1043930053710938 28.17609405517578 0.1064605712890625 L 28.17698287963867 0.108795166015625 C 28.17700004577637 0.1088333129882812 28.1770133972168 0.1088714599609375 28.17703056335449 0.108917236328125 L 28.1792049407959 0.1146240234375 C 28.17925453186035 0.1147537231445312 28.17931747436523 0.1149215698242188 28.17936706542969 0.1150436401367188 L 29.74077606201172 4.211723327636719 L 28.70585441589355 6.927047729492188 L 25.90256690979004 5.858596801757812 L 26.1149787902832 5.301300048828125 C 26.11500930786133 5.301216125488281 26.11509132385254 5.301002502441406 26.11512184143066 5.300918579101562 L 26.13031768798828 5.261054992675781 C 26.13051414489746 5.260536193847656 26.13063430786133 5.260223388671875 26.13083076477051 5.25970458984375 L 26.13211822509766 5.256332397460938 C 26.13287734985352 5.254341125488281 26.13362503051758 5.252372741699219 26.13438606262207 5.250373840332031 L 26.13477897644043 5.249343872070312 C 26.13563919067383 5.247085571289062 26.13652801513672 5.244758605957031 26.13739204406738 5.24249267578125 L 26.13816070556641 5.240478515625 C 26.2485179901123 4.950927734375 26.38704872131348 4.587471008300781 26.5302619934082 4.211715698242188 L 28.13551712036133 0 Z M 30.98470497131348 7.475433349609375 C 30.98470497131348 7.475433349609375 31.31848526000977 8.351173400878906 31.66293907165527 9.254913330078125 L 31.66481399536133 9.259834289550781 C 31.66694259643555 9.265419006347656 31.66904640197754 9.270942687988281 31.67117500305176 9.276527404785156 L 32.4093017578125 11.21315002441406 L 29.60601806640625 12.28159713745117 L 28.18141746520996 8.543876647949219 L 30.98470497131348 7.475433349609375 Z M 33.83389282226562 14.95086288452148 C 33.83389282226562 14.95086288452148 34.50698089599609 16.71685028076172 34.92784118652344 17.82105255126953 L 34.92829132080078 17.82224273681641 C 34.94704437255859 17.87144088745117 34.96533584594727 17.91943359375 34.98300170898438 17.96578216552734 L 34.98440551757812 17.96945953369141 C 34.98471832275391 17.97029113769531 34.98502731323242 17.97109985351562 34.98534393310547 17.97192764282227 L 34.98558044433594 17.9725456237793 C 34.98606872558594 17.97383499145508 34.98654937744141 17.9750862121582 34.98703765869141 17.97637176513672 L 34.98738479614258 17.97727966308594 C 34.98829650878906 17.97966766357422 34.98923110961914 17.98212814331055 34.99013900756836 17.98450469970703 L 34.99093627929688 17.98659515380859 C 34.99267578125 17.99116516113281 34.99445343017578 17.99582290649414 34.99618148803711 18.00036239624023 L 34.99904632568359 18.00787353515625 C 34.99945831298828 18.00895690917969 34.99993896484375 18.01022338867188 35.00035095214844 18.01130676269531 L 35.00066757202148 18.01213073730469 C 35.00107955932617 18.01321411132812 35.00151824951172 18.01435852050781 35.00193023681641 18.01543807983398 L 35.0025634765625 18.01710510253906 C 35.00276947021484 18.01764678955078 35.00295257568359 18.01811981201172 35.00315475463867 18.01866149902344 L 35.00454711914062 18.02230453491211 C 35.00540161132812 18.0245475769043 35.00620269775391 18.02666091918945 35.00705718994141 18.02889633178711 L 35.00711822509766 18.029052734375 C 35.00759124755859 18.03030395507812 35.00799560546875 18.03135299682617 35.00846862792969 18.0326042175293 L 35.00935363769531 18.03491973876953 C 35.00945281982422 18.03518676757812 35.00949096679688 18.0352783203125 35.00959014892578 18.03554534912109 L 35.01095581054688 18.03912734985352 C 35.01173400878906 18.04117202758789 35.01251220703125 18.0432014465332 35.01328659057617 18.04524230957031 L 35.01406860351562 18.04729080200195 C 35.01437377929688 18.04808807373047 35.01475143432617 18.0490837097168 35.01505279541016 18.04988098144531 L 35.01534271240234 18.05063629150391 C 35.01571655273438 18.05160903930664 35.01602935791016 18.05244064331055 35.01639938354492 18.05340957641602 L 35.01716232299805 18.0554084777832 C 35.01803588867188 18.05770111083984 35.01884841918945 18.05983352661133 35.01971817016602 18.06211471557617 L 35.02056121826172 18.06432342529297 C 35.02089691162109 18.06520080566406 35.02120590209961 18.06601715087891 35.02153778076172 18.06689453125 L 35.02542495727539 18.07709121704102 C 35.02552795410156 18.07735061645508 35.02565765380859 18.07769775390625 35.0257568359375 18.07795715332031 L 35.0459098815918 18.13083267211914 C 35.04600524902344 18.13108444213867 35.04607391357422 18.13125991821289 35.04616546630859 18.13151168823242 L 35.25849151611328 18.6885871887207 L 32.45520401000977 19.75703811645508 L 31.03060531616211 16.01930999755859 L 33.83389282226562 14.95086288452148 Z M 36.68307876586914 22.42630004882812 C 36.68307876586914 22.42630004882812 38.10768127441406 26.16402435302734 38.10768127441406 26.16402435302734 L 35.30438995361328 27.23246002197266 L 33.87979125976562 23.49474716186523 L 36.68307876586914 22.42630004882812 Z M 39.53227615356445 29.90173721313477 L 40.60551834106445 32.71761322021484 C 40.60624313354492 32.71951293945312 40.60701751708984 32.7215461730957 40.60774230957031 32.72344207763672 L 40.61371612548828 32.73912048339844 C 40.61428451538086 32.74060821533203 40.6148681640625 32.74214172363281 40.61543273925781 32.74362564086914 L 40.61578750610352 32.74455261230469 C 40.61684417724609 32.74732208251953 40.61787414550781 32.75003051757812 40.61892700195312 32.7527961730957 L 40.61967468261719 32.75474548339844 C 40.62151336669922 32.75957870483398 40.62343597412109 32.76462554931641 40.62527084350586 32.76943588256836 L 40.62855529785156 32.77805709838867 C 40.62885284423828 32.77883911132812 40.62916564941406 32.77965927124023 40.62946319580078 32.78044128417969 L 40.63059234619141 32.78339767456055 C 40.63156127929688 32.78593444824219 40.63253402709961 32.78849029541016 40.63349914550781 32.79102325439453 L 40.63371276855469 32.79158782958984 C 40.82125473022461 33.28363800048828 40.95686721801758 33.63945007324219 40.95686721801758 33.63945007324219 L 38.15357971191406 34.7078971862793 L 36.7289924621582 30.97018814086914 L 39.53227996826172 29.90173721313477 Z M 42.38146591186523 37.37717437744141 L 42.63432693481445 38.04060745239258 C 42.63466644287109 38.04150009155273 42.63501739501953 38.04242324829102 42.63536071777344 38.04331970214844 L 42.63722229003906 38.0482063293457 C 42.63887023925781 38.05252075195312 42.64051818847656 38.05685424804688 42.64217758178711 38.06120300292969 L 42.64522552490234 38.0692024230957 C 42.64522552490234 38.0692024230957 42.64528656005859 38.06936645507812 42.64528656005859 38.06936645507812 L 42.64658737182617 38.07277679443359 C 42.64745712280273 38.07505416870117 42.64836502075195 38.07743835449219 42.64923477172852 38.0797233581543 L 42.64951705932617 38.08045959472656 C 42.65157318115234 38.08585739135742 42.65361785888672 38.09122085571289 42.65568923950195 38.09665679931641 L 42.65639495849609 38.09850311279297 C 42.65681457519531 38.099609375 42.65718078613281 38.1005744934082 42.6576042175293 38.1016845703125 L 42.65813827514648 38.10308074951172 C 43.07247161865234 39.19017791748047 43.80605316162109 41.11488723754883 43.80605316162109 41.11488723754883 L 41.00276947021484 42.18333435058594 L 39.57817840576172 38.44561004638672 L 42.38146591186523 37.37717437744141 Z M 45.23065185546875 44.85260009765625 L 46.65525054931641 48.59032440185547 L 43.85196685791016 49.65877532958984 L 42.4273681640625 45.92105102539062 L 45.23065567016602 44.85260009765625 Z M 48.07984161376953 52.32803726196289 C 48.07984161376953 52.32803726196289 48.24654769897461 52.76542663574219 48.46592712402344 53.34100723266602 L 48.46647262573242 53.34243774414062 C 48.46697998046875 53.34377288818359 48.4674186706543 53.34491729736328 48.46792602539062 53.34625625610352 L 48.46968460083008 53.35086822509766 C 48.47196197509766 53.35684204101562 48.47432327270508 53.363037109375 48.47661209106445 53.36903762817383 L 48.4767951965332 53.3695182800293 C 48.47837066650391 53.3736572265625 48.47989273071289 53.37764739990234 48.48147583007812 53.38180541992188 L 48.48690032958984 53.39603042602539 C 48.48705673217773 53.39644622802734 48.48721694946289 53.39686584472656 48.48737716674805 53.39728546142578 L 48.48854446411133 53.40035247802734 C 48.48906326293945 53.40170669555664 48.48958587646484 53.40308380126953 48.49010467529297 53.40444183349609 L 48.49242401123047 53.41053009033203 C 48.49330139160156 53.41282653808594 48.49413299560547 53.41501617431641 48.49501037597656 53.41732025146484 L 48.49592971801758 53.41973114013672 C 48.4965705871582 53.42140960693359 48.49720001220703 53.42306518554688 48.49784088134766 53.42474365234375 L 48.50167083740234 53.43479156494141 C 48.50207138061523 53.43584442138672 48.50254821777344 53.43709182739258 48.50294876098633 53.43814468383789 L 48.50423812866211 53.4415283203125 C 48.50431823730469 53.44174194335938 48.50446701049805 53.44212341308594 48.50454711914062 53.44233322143555 L 49.50444030761719 56.06576156616211 L 46.70115661621094 57.13420104980469 L 45.27655410766602 53.396484375 L 48.07984161376953 52.32803726196289 Z M 50.92903137207031 59.80347442626953 C 50.92903137207031 59.80347442626953 51.32925415039062 60.85354232788086 51.7054328918457 61.84051895141602 L 51.70915985107422 61.85029602050781 C 51.71110916137695 61.85540771484375 51.71310043334961 61.86063385009766 51.71504592895508 61.86574172973633 L 51.71700286865234 61.87087249755859 C 51.71786499023438 61.87314224243164 51.71868515014648 61.87528991699219 51.71955108642578 61.87755966186523 L 51.72107696533203 61.88156509399414 C 51.72164154052734 61.88304138183594 51.72232055664062 61.88482284545898 51.72288131713867 61.88629531860352 L 51.72651672363281 61.89582824707031 C 51.72690200805664 61.8968505859375 51.72739410400391 61.89813232421875 51.72777938842773 61.89915084838867 L 52.3536262512207 63.54118728637695 L 49.55034255981445 64.60963439941406 L 48.12574005126953 60.87192535400391 L 50.92903137207031 59.80347442626953 Z M 53.77821731567383 67.27891540527344 C 53.77821731567383 67.27891540527344 54.83361434936523 70.04794311523438 55.12760925292969 70.81929779052734 L 55.12760925292969 70.81929779052734 L 55.27036666870117 71.19385528564453 L 55.27036666870117 73.81929779052734 C 55.27036666870117 73.81929779052734 51.27036666870117 73.81929779052734 51.27036666870117 73.81929779052734 L 51.27036666870117 70.81929779052734 L 51.91709136962891 70.81929779052734 L 50.97492980957031 68.34735107421875 L 53.77821731567383 67.27891540527344 Z M 43.27036666870117 70.81929779052734 L 47.27036666870117 70.81929779052734 L 47.27036666870117 73.81929779052734 C 47.27036666870117 73.81929779052734 43.27036666870117 73.81929779052734 43.27036666870117 73.81929779052734 L 43.27036666870117 70.81929779052734 Z M 35.27036666870117 70.81929779052734 L 39.27036666870117 70.81929779052734 L 39.27036666870117 73.81929779052734 C 39.27036666870117 73.81929779052734 35.27036666870117 73.81929779052734 35.27036666870117 73.81929779052734 L 35.27036666870117 70.81929779052734 Z M 27.27036666870117 70.81929779052734 L 31.27036666870117 70.81929779052734 L 31.27036666870117 73.81929779052734 C 31.27036666870117 73.81929779052734 27.27036666870117 73.81929779052734 27.27036666870117 73.81929779052734 L 27.27036666870117 70.81929779052734 Z M 19.27036666870117 70.81929779052734 L 23.27036666870117 70.81929779052734 L 23.27036666870117 73.81929779052734 C 23.27036666870117 73.81929779052734 19.27036666870117 73.81929779052734 19.27036666870117 73.81929779052734 L 19.27036666870117 70.81929779052734 Z M 11.27036666870117 70.81929779052734 L 15.27036666870117 70.81929779052734 L 15.27036666870117 73.81929779052734 C 15.27036666870117 73.81929779052734 11.27036666870117 73.81929779052734 11.27036666870117 73.81929779052734 L 11.27036666870117 70.81929779052734 Z M 1.684455871582031 69.39978790283203 L 4.487743377685547 70.46823883056641 L 4.353939056396484 70.81929779052734 L 7.270366668701172 70.81929779052734 L 7.270366668701172 73.81929779052734 C 7.270366668701172 73.81929779052734 3.270366668701172 73.81929779052734 3.270366668701172 73.81929779052734 L 3.270366668701172 73.66228485107422 L 3.210521697998047 73.81929779052734 L 2.048690795898438 73.81929779052734 L 0.2598686218261719 73.13751220703125 C 0.2598686218261719 73.13751220703125 0.6918601989746094 72.00408172607422 1.080066680908203 70.98553466796875 L 1.080551147460938 70.98426055908203 C 1.081668853759766 70.9813232421875 1.082771301269531 70.97843933105469 1.083889007568359 70.97550964355469 L 1.0849609375 70.97269439697266 C 1.085563659667969 70.97111511230469 1.086132049560547 70.96961975097656 1.086734771728516 70.96804046630859 L 1.684459686279297 69.39978790283203 Z M 4.533641815185547 61.92436218261719 L 7.336929321289062 62.9927978515625 L 5.912342071533203 66.73052215576172 L 3.109054565429688 65.66207122802734 C 3.109054565429688 65.66207122802734 3.441886901855469 64.788818359375 3.78582763671875 63.88641357421875 L 3.785972595214844 63.88603973388672 C 3.786403656005859 63.8848991394043 3.786922454833984 63.88354110717773 3.787357330322266 63.88240051269531 L 3.795238494873047 63.86172485351562 C 3.795238494873047 63.86172485351562 3.795295715332031 63.861572265625 3.795295715332031 63.861572265625 L 3.797340393066406 63.85620498657227 C 3.797340393066406 63.85620498657227 3.797393798828125 63.85607147216797 3.797393798828125 63.85607147216797 L 4.533645629882812 61.92436218261719 Z M 7.382843017578125 54.44892120361328 L 10.18613052368164 55.51737213134766 L 8.761528015136719 59.25508499145508 L 5.958240509033203 58.18663787841797 L 6.071186065673828 57.89030838012695 C 6.071434020996094 57.88965606689453 6.071727752685547 57.88888931274414 6.071975708007812 57.88823699951172 L 6.077899932861328 57.87268829345703 C 6.078334808349609 57.87155151367188 6.078723907470703 57.87052917480469 6.079158782958984 57.86938858032227 L 6.0810546875 57.86441421508789 C 6.081363677978516 57.86360549926758 6.081729888916016 57.86264038085938 6.082038879394531 57.8618278503418 L 6.0823974609375 57.86089324951172 C 6.083095550537109 57.85906219482422 6.083774566650391 57.85728073120117 6.084476470947266 57.85543441772461 L 6.084945678710938 57.85420227050781 C 6.086357116699219 57.85050582885742 6.087833404541016 57.84663391113281 6.089260101318359 57.8428840637207 L 6.089973449707031 57.84101486206055 C 6.442829132080078 56.91522216796875 7.382843017578125 54.44892120361328 7.382843017578125 54.44892120361328 Z M 10.23202896118164 46.97348785400391 L 13.03531646728516 48.04193878173828 L 11.6107177734375 51.77964782714844 L 8.807430267333984 50.71121215820312 C 8.807430267333984 50.71121215820312 10.23202896118164 46.97348785400391 10.23202896118164 46.97348785400391 Z M 13.08121871948242 39.49805068969727 L 15.88450622558594 40.56649780273438 L 14.45990371704102 44.3042106628418 L 11.6566162109375 43.23577117919922 L 13.04972076416016 39.58068466186523 C 13.04977798461914 39.58053588867188 13.04983520507812 39.58038330078125 13.04989242553711 39.58023452758789 L 13.06994247436523 39.52762603759766 C 13.07009124755859 39.52724075317383 13.07021713256836 39.52690887451172 13.07036209106445 39.52653121948242 L 13.07370376586914 39.51776123046875 C 13.07389450073242 39.51725769042969 13.07407379150391 39.51678466796875 13.07426071166992 39.51630401611328 L 13.08090972900391 39.49885559082031 C 13.08091735839844 39.49883651733398 13.08092880249023 39.49880981445312 13.08093643188477 39.4987907409668 L 13.08098220825195 39.49866485595703 C 13.08098983764648 39.4986457824707 13.08099365234375 39.49863052368164 13.08100128173828 39.49861526489258 L 13.08103179931641 39.49853134155273 C 13.0810432434082 39.49850845336914 13.08104705810547 39.49849700927734 13.0810546875 39.49847793579102 L 13.08113098144531 39.49827575683594 C 13.08113479614258 39.49826812744141 13.08113479614258 39.49826431274414 13.08113861083984 39.49825668334961 L 13.08121871948242 39.49805068969727 Z M 15.93040466308594 32.02262496948242 L 18.73369216918945 33.09106063842773 L 17.3090934753418 36.82878494262695 L 14.50580596923828 35.76033782958984 L 15.60422515869141 32.87841796875 C 15.60452270507812 32.87763977050781 15.60480880737305 32.87689208984375 15.60510635375977 32.8761100769043 L 15.60554122924805 32.87496185302734 C 15.60587692260742 32.87408447265625 15.60627746582031 32.87303161621094 15.60661315917969 32.87215423583984 L 15.60751724243164 32.86978149414062 C 15.6097412109375 32.86394119262695 15.61186981201172 32.85836410522461 15.61407852172852 32.85256576538086 L 15.61436080932617 32.85182189941406 C 15.7982177734375 32.36944198608398 15.93040466308594 32.02262496948242 15.93040466308594 32.02262496948242 Z M 18.77959060668945 24.54718780517578 L 21.58287811279297 25.61563491821289 L 20.15829086303711 29.35334777832031 L 17.35500335693359 28.2849006652832 C 17.35500335693359 28.2849006652832 17.91088485717773 26.82642364501953 18.32816314697266 25.73160552978516 L 18.32952117919922 25.72804260253906 C 18.33180236816406 25.7220573425293 18.33413314819336 25.71594619750977 18.33640670776367 25.70998001098633 L 18.3369026184082 25.70868301391602 C 18.33921432495117 25.70261383056641 18.3415641784668 25.69644927978516 18.34386825561523 25.69040298461914 L 18.34500885009766 25.68741226196289 C 18.34609985351562 25.68455123901367 18.34716796875 25.68173980712891 18.34825897216797 25.67888641357422 L 18.34835815429688 25.67861938476562 C 18.34944915771484 25.67576217651367 18.35047149658203 25.67307662963867 18.35155868530273 25.67022705078125 L 18.35262680053711 25.66741943359375 C 18.35367584228516 25.66467666625977 18.35471725463867 25.66193771362305 18.35575866699219 25.65920257568359 L 18.35638809204102 25.65755844116211 C 18.35730743408203 25.65513610839844 18.35817337036133 25.65287017822266 18.35909271240234 25.65045166015625 L 18.36078643798828 25.64601135253906 C 18.36102676391602 25.64538192749023 18.36129760742188 25.64467620849609 18.36153793334961 25.64404296875 L 18.36181640625 25.643310546875 C 18.36245727539062 25.64163208007812 18.3630256652832 25.64013671875 18.36366653442383 25.63845825195312 L 18.36377716064453 25.63816452026367 C 18.36489486694336 25.63523101806641 18.36609649658203 25.63208389282227 18.36721038818359 25.62915802001953 L 18.36839294433594 25.62605285644531 C 18.36935043334961 25.6235466003418 18.37030029296875 25.62105560302734 18.37125396728516 25.61855316162109 L 18.37150573730469 25.61789321899414 C 18.37210083007812 25.61632919311523 18.37263870239258 25.61491394042969 18.37323379516602 25.61335372924805 L 18.37763977050781 25.60179901123047 C 18.37783432006836 25.60128021240234 18.37806701660156 25.60067749023438 18.37826538085938 25.60015869140625 L 18.77959442138672 24.54718780517578 Z M 21.62878036499023 17.07175064086914 L 24.43206787109375 18.14019775390625 L 23.00748062133789 21.87791061401367 L 20.20419311523438 20.80947494506836 C 20.20419311523438 20.80947494506836 20.57976531982422 19.82407760620117 20.94521331787109 18.86524200439453 L 20.94601821899414 18.86312484741211 C 20.94671630859375 18.86130142211914 20.94731903076172 18.85971450805664 20.94801330566406 18.85789108276367 L 20.95273208618164 18.84551239013672 C 20.95286178588867 18.84516906738281 20.95292663574219 18.84500122070312 20.95305633544922 18.84465789794922 L 21.6287841796875 17.07175064086914 Z M 24.47796630859375 9.5963134765625 L 27.2812671661377 10.66476058959961 L 25.85666656494141 14.40247344970703 L 23.05337905883789 13.33403778076172 C 23.05337905883789 13.33403778076172 23.17859268188477 13.00551605224609 23.35481262207031 12.54316329956055 L 23.35663223266602 12.53839111328125 C 23.35717391967773 12.53696060180664 23.35770034790039 12.53557968139648 23.35824966430664 12.53414535522461 L 23.35946655273438 12.53094863891602 C 23.35979461669922 12.53008651733398 23.36005020141602 12.52942276000977 23.36037826538086 12.52856063842773 L 23.36124801635742 12.52627563476562 C 23.36139297485352 12.5258903503418 23.36160278320312 12.52534103393555 23.36175155639648 12.52495956420898 L 23.36345291137695 12.5204963684082 C 23.36410903930664 12.51876449584961 23.36478805541992 12.51698684692383 23.36544799804688 12.51525497436523 L 23.36685943603516 12.51154708862305 C 23.36685943603516 12.51154708862305 23.36691665649414 12.51140213012695 23.36691665649414 12.51140213012695 L 24.47797393798828 9.5963134765625 Z" stroke="none" fill="#eb002a"/>
    </g>
  </g>
</svg>
