<svg xmlns="http://www.w3.org/2000/svg" width="46" height="46" viewBox="0 0 46 46">
  <g id="icon-contact-blue" transform="translate(-132)">
    <rect id="Rectangle_3627" data-name="Rectangle 3627" width="46" height="46" transform="translate(132)" fill="#fff" opacity="0"/>
    <g id="Group_16160" data-name="Group 16160" transform="translate(-2 -2921)">
      <g id="Rectangle_227" data-name="Rectangle 227" transform="translate(137 2924)" fill="#fff" stroke="#1b457c" stroke-width="1" opacity="0">
        <rect width="40" height="40" stroke="none"/>
        <rect x="0.5" y="0.5" width="39" height="39" fill="none"/>
      </g>
      <g id="Group_266" data-name="Group 266" transform="translate(144 2931)">
        <g id="Group_267" data-name="Group 267">
          <path id="Path_121" data-name="Path 121" d="M17.787,22.934c2.115,0,5.138-2.726,5.147-3.421V18.132a.748.748,0,0,0-.522-.715l-5.437-1.724a.746.746,0,0,0-.754.184L14.2,17.9a.742.742,0,0,1-.894.124,22.8,22.8,0,0,1-4.7-3.7,22.8,22.8,0,0,1-3.7-4.7.743.743,0,0,1,.124-.894L7.056,6.713a.748.748,0,0,0,.184-.755L5.517.522A.747.747,0,0,0,4.8,0H3.421C2.726.009,0,3.032,0,5.147c0,1.29.481,5.979,6.142,11.64S16.5,22.934,17.787,22.934" transform="translate(1.533 1.533)" fill="#1b457c"/>
        </g>
      </g>
    </g>
  </g>
</svg>
