<svg xmlns="http://www.w3.org/2000/svg" xmlns:xlink="http://www.w3.org/1999/xlink" width="177.371" height="63" viewBox="0 0 177.371 63">
  <defs>
    <clipPath id="clip-path">
      <rect id="Rectangle_4914" data-name="Rectangle 4914" width="177.371" height="63" transform="translate(0 0)" fill="#fff"/>
    </clipPath>
  </defs>
  <g id="logo-apqn-white" transform="translate(0 0.002)">
    <g id="Group_16498" data-name="Group 16498" transform="translate(0 -0.002)" clip-path="url(#clip-path)">
      <path id="Path_15599" data-name="Path 15599" d="M3952.1,0a10.744,10.744,0,0,1,1.179.13q.868.182,1.157.257.227.06,1.271.5a6.239,6.239,0,0,1,2.12,1.695,9.62,9.62,0,0,1,.748.955,9.587,9.587,0,0,1,.782,1.534.5.5,0,0,0,.1.161.041.041,0,0,0,.068-.026c.026-.337-.032-.716-.034-1.01q0-.067-.04-.9-.019-.423-.08-.9-.1-.785-.219-1.821a.061.061,0,0,1,.067-.068,15.082,15.082,0,0,0,1.58.188,11.393,11.393,0,0,0,1.877-.075l.785-.117a.046.046,0,0,1,.053.042.977.977,0,0,1,0,.151q-.034.6-.141,1.931-.076.959-.09,1.933-.026,1.668-.1,4.477c-.008.29-.014.5-.021.636-.021.454-.007.806-.035,1.235-.012.2-.019.395-.019.6q-.006,12.937,0,15.331c0,.255.035.782.036,1.1q0,1.742,0,3.28c0,.458.026.951.039,1.428l0,1.359q-.016.485,0,.969.03.854.03.967,0,.9,0,1.939c0,.2.027.442.03.637q.016,1.045.035,2.043c.024,1.27.142,2.44.228,3.706,0,.047,0,.11,0,.19a.054.054,0,0,1-.064.053,10.269,10.269,0,0,0-3.083-.173q-.586.077-1.172.174a.046.046,0,0,1-.053-.048q.133-2.558.236-5.139c.049-1.213.039-2.155.07-3.4q.015-.629,0-2.134a.031.031,0,0,0-.008-.019l-.01-.012c.005,0,.01,0,.015-.008a.005.005,0,0,0,0,0l0-1.362q0-2.422,0-4.847c0-1.22.026-2.269.055-3.4q.023-.858.022-1.361,0-1.663,0-3.723a.99.99,0,0,0-.009-.142.045.045,0,0,0-.083-.014,11.974,11.974,0,0,1-.922,1.523q-.467.6-.833,1.018-.212.241-.715.7-.121.111-.771.555a4.285,4.285,0,0,1-.623.358c-.276.127-.562.292-.865.414a9.081,9.081,0,0,1-.977.35,10.17,10.17,0,0,1-2.738.264c-.4-.007-.75-.071-1.126-.1a2.9,2.9,0,0,1-.445-.085q-.361-.093-1.017-.242a6.618,6.618,0,0,1-1-.3,12.067,12.067,0,0,1-1.384-.65,8.711,8.711,0,0,1-3.337-3.752,14.134,14.134,0,0,1-.618-1.487,10.26,10.26,0,0,1-.432-1.549q-.175-.888-.266-1.763-.051-.5-.051-.84c0-.543-.041-1-.01-1.578.018-.336,0-.654.032-.982a16.132,16.132,0,0,1,.472-2.732,14.843,14.843,0,0,1,1.274-3.068,4.759,4.759,0,0,1,.368-.595c.191-.251.35-.516.558-.746q.674-.747,1.169-1.2.143-.131.634-.512a10.963,10.963,0,0,1,1.548-.927,5.69,5.69,0,0,1,.911-.385,13.063,13.063,0,0,1,2.188-.5c.351-.05.781-.039,1.172-.073Zm-1.258,22.3c.282.058.449.088.5.093a8.558,8.558,0,0,0,2.023-.1,6.24,6.24,0,0,0,3.294-1.937,5.468,5.468,0,0,0,.741-.934q.489-.762.647-1.073A12.413,12.413,0,0,0,3959.1,15.4a20.392,20.392,0,0,0,.407-3.17,14.727,14.727,0,0,0-.062-2.288,10.945,10.945,0,0,0-1.606-5.013,5.976,5.976,0,0,0-2.888-2.427,6.067,6.067,0,0,0-1.857-.438,10.42,10.42,0,0,0-1.253.041,6.3,6.3,0,0,0-2.546.81,3.775,3.775,0,0,0-.688.522q-.547.513-.625.6a8.8,8.8,0,0,0-1.764,3.4,10.4,10.4,0,0,0-.345,1.422c-.042.324-.118.7-.145,1.018q-.163,1.969-.17,2.737a23.687,23.687,0,0,0,.194,2.823c.033.285.1.558.148.82a3.854,3.854,0,0,0,.16.6q.023.065.323,1.02a3.93,3.93,0,0,0,.255.64q.2.382.3.613a4.373,4.373,0,0,0,.5.858,8.148,8.148,0,0,0,1.031,1.169,5.3,5.3,0,0,0,1.21.782,2.386,2.386,0,0,0,.326.127,6.911,6.911,0,0,0,.831.236" transform="translate(-3851.298 0.001)" fill="#fff"/>
      <path id="Path_15600" data-name="Path 15600" d="M115.914,33.607l0,1.362a0,0,0,0,1,0,0,.014.014,0,0,1-.015.008q-.154.006-.625-.02-2.31-.129-4.84-.263-.3-.016-.508-.013c-.246,0-.438-.044-.677-.038q-.406.011-.706-.011c-.448-.033-.84-.005-1.22-.042-.351-.034-.763,0-1.11-.033-.4-.032-.762-.01-1.093-.033a9.776,9.776,0,0,0-1.03-.026c-.134,0-.321-.036-.479-.036q-1.572,0-1.969-.007c-.1,0-.3-.028-.418-.029l-2.951,0c-.156,0-.373-.029-.494-.03q-1.271-.019-3,0c-.186,0-.361.03-.5.03q-1.809,0-3.02,0c-.165,0-.354.032-.518.032-.9,0-1.561-.024-2.278.029-.266.02-.594,0-.863.02-.42.033-.85.023-1.364.044q-1.352.053-1.659.056c-.228,0-.436.01-.628.022-.41.027-.746-.009-1.132.039-.238.029-.6-.012-.872.031a4.737,4.737,0,0,1-.491.024q-3.331.184-4.951.271-.613.033-.987.061a.034.034,0,0,0-.032.034q0,1.888,0,3.778,0,.247.032.7c.02.275-.013.641.021.931a4.545,4.545,0,0,1,.018.614q-.006.3.029.724c.026.307,0,.588.027.97q.069,1.093.135,2.162.031.5.032.723a.043.043,0,0,1-.05.043q-.5-.078-1.124-.164a7.469,7.469,0,0,0-2,0q-.658.088-1.12.165a.044.044,0,0,1-.051-.051c.032-.191,0-.455.03-.708.008-.069.013-.132.016-.189q.046-.95.1-2.043c.024-.512.01-1,.043-1.387.029-.337,0-.743.033-1.108.038-.445.021-.736.023-1.427,0-.122.036-.262.036-.379q0-2.467,0-2.941a.7.7,0,0,1,.033-.17.019.019,0,0,0-.02-.024c-1.48.118-2.717.2-4.2.354q-1.811.181-4.339.425-.669.065-1.386.153c-2.682.333-4.719.564-7.135.911-2.025.291-4.355.6-6.366.948-1.7.3-3.289.531-4.894.86-1.561.321-4.042.783-5.953,1.222-1.615.37-3.343.717-4.986,1.164q-1.326.36-2.323.616-1.6.411-2.908.822-.952.3-1.927.588c-1.419.42-3.175,1.033-4.3,1.4q-1.353.442-2.747.978-2.335.9-2.716,1.067L13.117,47.9q-1.375.615-2.293,1.084-1.161.59-2.232,1.2a.039.039,0,0,1-.054-.016l-.6-1.149a.039.039,0,0,1,.015-.051c1.487-.838,2.953-1.588,4.475-2.264q1.2-.534,1.625-.732.8-.375,1.639-.7,2.716-1.057,3.548-1.35.47-.166,3.338-1.121,1.608-.536,2.782-.881c1.137-.335,2.51-.788,3.731-1.1q.9-.234,2.676-.711,1.591-.427,2.687-.661.993-.212,2.631-.583c1.762-.4,3.71-.766,5.42-1.114q1.9-.388,3.515-.653c1.582-.26,3.206-.569,4.7-.779,2.645-.371,5.111-.729,7.338-1,1.705-.205,3.785-.488,5.641-.664,2.1-.2,4.168-.42,6.248-.582q.691-.053,1.765-.141a.033.033,0,0,0,.03-.032q.013-.857-.005-1.058a8.309,8.309,0,0,1-.024-1.111q.037-.855.035-1,0-.216,0-4.188c0-.14.035-.334.035-.5q0-5.87,0-12.58c0-.158-.029-.395-.033-.6q0-.137,0-2.048c0-.062-.022-.171-.026-.232q-.018-.256-.011-1.606c0-.129-.034-.271-.035-.4,0-.535.011-.83-.024-1.28-.032-.405,0-.843-.042-1.292-.026-.293,0-.6-.018-.93q-.013-.311-.1-2.067c-.01-.2-.015-.308-.016-.313a5.269,5.269,0,0,1-.027-.732.655.655,0,0,0-.02-.19.037.037,0,0,1,.038-.047q.167.01.81.118a9.741,9.741,0,0,0,1.715.072A9.343,9.343,0,0,0,75.7,1.732a.06.06,0,0,1,.071.05.469.469,0,0,1,0,.115q-.085.7-.257,2.108a4.482,4.482,0,0,0-.033.651c.008.324-.042.573-.036.868a8.1,8.1,0,0,1-.026.9.045.045,0,0,0,.086.024,7.168,7.168,0,0,1,.506-.937q.475-.7.949-1.284a10.525,10.525,0,0,1,.933-.94,8.317,8.317,0,0,1,1-.715,11.064,11.064,0,0,1,1.27-.653,6.928,6.928,0,0,1,1.564-.5,3.3,3.3,0,0,1,.636-.1c.244-.011.565-.064.858-.06A10.208,10.208,0,0,1,85,1.332a11.8,11.8,0,0,1,1.258.251q1.027.322,1.206.4.282.119,1.105.554a5.725,5.725,0,0,1,1.022.7,10.419,10.419,0,0,1,1.554,1.58,10.619,10.619,0,0,1,1.492,2.677,17.036,17.036,0,0,1,.649,2.094,9.817,9.817,0,0,1,.246,1.484q.063.712.106,1.5a14.485,14.485,0,0,1-.029,1.766q-.09,1.283-.169,1.76-.035.208-.288,1.291-.024.1-.285.863a7.888,7.888,0,0,1-.345.841,16.3,16.3,0,0,1-.813,1.542,13.2,13.2,0,0,1-.868,1.156,9.763,9.763,0,0,1-2.851,2.348,6.763,6.763,0,0,1-.97.446,12.912,12.912,0,0,1-2.928.7c-.1.011-.179.017-.247.019q-.833.018-1.716-.03a3.656,3.656,0,0,1-.551-.068,9.665,9.665,0,0,1-1.256-.281q-.256-.092-.464-.155a7,7,0,0,1-.995-.443,3.148,3.148,0,0,1-.6-.357c-.226-.181-.512-.345-.746-.561a8.829,8.829,0,0,1-1.159-1.284c-.309-.426-.551-.886-.86-1.4a.058.058,0,0,0-.094-.008.293.293,0,0,0,0,.043q0,.176,0,7.6c0,.151.036.359.037.538q0,1.069,0,4.752a.042.042,0,0,0,.044.042q3.995-.227,7.145-.384c.478-.024.843-.005,1.229-.035a7.067,7.067,0,0,1,.707-.026c.327.011.6-.033.942-.033s.559,0,.671-.014c.416-.038.817-.021,1.274-.041q1.691-.073,3.312-.056c.12,0,.286-.039.425-.039q1.224,0,2.756,0c.335,0,.754-.035,1.134-.035q2.3,0,2.642,0c.168,0,.345.033.518.032q2.673,0,3.177.016c.041,0,.082,0,.124.01.454.053,1.578-.024,2.5.043.308.022.648-.007.97.026a6.142,6.142,0,0,0,.633.018c.393,0,.692.044,1.1.037q.255,0,.746.027c.288.018.638-.009.978.027.072.008.148.012.228.013q.921.015,1.5.044,1.258.061,5.147.275c.292.016.484.021.574.017M88.863,17.58A17.268,17.268,0,0,0,89.33,14.1c0-.088.03-.193.03-.27q0-.683,0-1.433c0-.219-.042-.388-.036-.613,0-.07-.006-.224-.022-.461a11.43,11.43,0,0,0-1.926-5.774,6.727,6.727,0,0,0-.533-.614,4.794,4.794,0,0,0-1.087-.881,3.227,3.227,0,0,0-.791-.359l-.711-.2a7,7,0,0,0-1.893-.212,4.768,4.768,0,0,0-1.15.126,9.069,9.069,0,0,0-1.113.328,5.1,5.1,0,0,0-.812.365,7.049,7.049,0,0,0-1.743,1.555,7.98,7.98,0,0,0-.907,1.406q-.206.425-.574,1.458c-.1.278-.139.533-.217.823a6.3,6.3,0,0,0-.119.626q-.205,1.337-.21,1.377c-.045.313-.064.7-.087.952q-.027.3-.028.715,0,1.439.013,1.652.044.585.18,1.889a7.035,7.035,0,0,0,.147.875,11.489,11.489,0,0,0,.473,1.76,7.689,7.689,0,0,0,.844,1.723,6.938,6.938,0,0,0,.831,1.025A6.046,6.046,0,0,0,79.5,23.062a10.714,10.714,0,0,0,1.168.4,5.4,5.4,0,0,0,.765.134,8.246,8.246,0,0,0,1.36.048,5.449,5.449,0,0,0,4.125-1.958,7.013,7.013,0,0,0,1.048-1.653c.17-.38.349-.692.482-1.06a11.942,11.942,0,0,0,.411-1.391" transform="translate(-7.75 -1.226)" fill="#fff"/>
      <path id="Path_15601" data-name="Path 15601" d="M4899.69,1430.794l0-1.359q1.322.1,2.641.195c2.053.147,4.231.38,5.862.531q1.675.155,3.218.346c3.232.4,7.252.883,11,1.47q4.822.756,8.7,1.522,1.668.329,6.6,1.433,1.478.331,2.937.727.753.205,2.926.775c.874.229,1.97.563,2.6.734.586.161,1.071.331,1.7.526q.433.133.68.216l4.133,1.377c.778.259,1.558.563,2.336.844q.48.174,1.2.474c.4.167,1.113.443,1.589.659q1.534.692,2.084.929,1.252.538,2.335,1.105,1.208.632,2.279,1.224a.041.041,0,0,1,.016.054l-.605,1.156a.033.033,0,0,1-.044.013q-.708-.4-2.16-1.166-1.014-.535-2.215-1.055-.522-.227-2.317-1.034-.193-.087-1.635-.687-.8-.333-1.4-.539c-.49-.169-1.234-.454-1.882-.672q-3.208-1.078-3.993-1.328c-.912-.29-1.825-.6-2.737-.854-.771-.217-1.479-.429-2.227-.625q-1.522-.4-3.106-.824-1.428-.384-3.119-.766-4.338-.981-5.9-1.286-4.192-.819-6.065-1.115-4.282-.675-5.859-.894-2.478-.343-4.156-.551c-2.824-.349-4.461-.577-6.533-.774l-4.251-.408c-1.453-.14-3.162-.252-4.516-.344a.358.358,0,0,1-.108-.029" transform="translate(-4787.79 -1396.79)" fill="#fff"/>
      <path id="Path_15602" data-name="Path 15602" d="M357.585,2414.141h-.367a4.605,4.605,0,0,1-1.327-.278,3.514,3.514,0,0,1-.456-.248l-.01-.008-.462-.492a.045.045,0,0,1,0-.064l.771-.691a.047.047,0,0,1,.069.006l.293.371a.058.058,0,0,0,.017.015,1.966,1.966,0,0,0,.846.349l.267.03a1.9,1.9,0,0,0,1.07-.231.8.8,0,0,0,.26-.2,1.222,1.222,0,0,0,.253-1.226.968.968,0,0,0-.573-.5,8.372,8.372,0,0,0-1.044-.4,4.274,4.274,0,0,1-.477-.177,2.4,2.4,0,0,1-.988-.592,2.8,2.8,0,0,1-.329-.418,2.044,2.044,0,0,1-.23-.619q-.03-.253-.041-.335a2.037,2.037,0,0,1,.275-1.2,2.631,2.631,0,0,1,1.1-.931,2.078,2.078,0,0,1,.592-.169,3.916,3.916,0,0,1,1.332.011,2.814,2.814,0,0,1,1.481.747.079.079,0,0,1,0,.116l-.777.7a.033.033,0,0,1-.045,0,1.764,1.764,0,0,0-.839-.558,3.944,3.944,0,0,0-.516-.1,2.481,2.481,0,0,0-.629.094,3.43,3.43,0,0,0-.521.3c-.226.148-.257.31-.317.583a1.054,1.054,0,0,0,.46,1.111,2.414,2.414,0,0,0,.389.181c.429.173.942.334,1.278.452a3.09,3.09,0,0,1,.514.213,2.3,2.3,0,0,1,.705.518,2,2,0,0,1,.376,1.084,2.438,2.438,0,0,1-.823,1.976,1.388,1.388,0,0,1-.339.215,4.46,4.46,0,0,1-.838.3c-.119.031-.265.023-.4.062" transform="translate(-346.845 -2351.141)" fill="#fff"/>
      <path id="Path_15603" data-name="Path 15603" d="M1842.816,2414.375h-.291a5.639,5.639,0,0,1-.679-.1,7.581,7.581,0,0,1-.924-.313c-.055-.024-.2-.106-.431-.244a1.847,1.847,0,0,1-.389-.3,5.061,5.061,0,0,1-1.232-2.1,4.571,4.571,0,0,1-.126-.782,1.058,1.058,0,0,1,0-.226,5.13,5.13,0,0,1,.126-.991,6.275,6.275,0,0,1,.3-.892,4.864,4.864,0,0,1,.369-.553,2.782,2.782,0,0,1,.446-.491,5.127,5.127,0,0,1,.891-.62,2.564,2.564,0,0,1,.511-.216q.464-.132.539-.141.187-.023.613-.063a4.155,4.155,0,0,1,.775.037,2.429,2.429,0,0,1,.977.274,6.462,6.462,0,0,1,.882.566,1.413,1.413,0,0,1,.24.231.074.074,0,0,1-.014.105l-.81.607a.045.045,0,0,1-.061-.007,2.367,2.367,0,0,0-1.148-.754c-.112-.028-.265-.057-.46-.087a1.565,1.565,0,0,0-.465,0,3.974,3.974,0,0,0-1.108.342,1.844,1.844,0,0,0-.605.441,2.61,2.61,0,0,0-.571.826,4.4,4.4,0,0,0-.314,1.5,3.156,3.156,0,0,0,.2,1.16,3.783,3.783,0,0,0,.635.958,2.383,2.383,0,0,0,.967.661q.15.055.353.116a.519.519,0,0,0,.114.021c.112.007.176.012.193.015a1.883,1.883,0,0,0,.549.012l.349-.044a1.84,1.84,0,0,0,1.1-.515q.347-.335.4-.392a.029.029,0,0,1,.039,0l.8.575a.044.044,0,0,1,.005.066c-.057.058-.162.185-.315.381a2.679,2.679,0,0,1-.355.294,2.033,2.033,0,0,1-.4.231,4.474,4.474,0,0,1-1.221.36,3.855,3.855,0,0,0-.439.061" transform="translate(-1796.743 -2351.376)" fill="#fff"/>
      <path id="Path_15604" data-name="Path 15604" d="M2730.676,2414.336h-.293q-.49-.063-.611-.092-.082-.019-.672-.217a2.624,2.624,0,0,1-.454-.2,4.781,4.781,0,0,1-.429-.258,3.5,3.5,0,0,1-.6-.588,5,5,0,0,1-.736-1.277,4.556,4.556,0,0,1-.241-1.226,5.149,5.149,0,0,1,.039-.756,4.086,4.086,0,0,1,.191-.825,2.992,2.992,0,0,1,.913-1.475,4.684,4.684,0,0,1,.766-.579q.448-.248.517-.273t.534-.157a5.238,5.238,0,0,1,.81-.112,2.027,2.027,0,0,1,.478.005,3.24,3.24,0,0,1,1.191.271,4.3,4.3,0,0,1,1.217.817.081.081,0,0,1-.01.121l-.809.606a.041.041,0,0,1-.056-.006,2.634,2.634,0,0,0-.864-.657,3.482,3.482,0,0,0-.6-.161,1.834,1.834,0,0,0-.613-.026,3.155,3.155,0,0,0-1.409.517,3.012,3.012,0,0,0-.651.678,2.756,2.756,0,0,0-.516,1.346,3.218,3.218,0,0,0,.753,2.664,2.2,2.2,0,0,0,.438.4,3.319,3.319,0,0,0,.911.4,2,2,0,0,0,.28.041l.286.025a1.4,1.4,0,0,0,.268,0c.177-.02.3-.037.379-.049a2.107,2.107,0,0,0,.96-.394c.169-.128.325-.342.516-.519a.038.038,0,0,1,.049,0l.826.593a.026.026,0,0,1,.005.038,3.161,3.161,0,0,1-.529.567,3.463,3.463,0,0,1-1.671.689q-.283.039-.565.084" transform="translate(-2664.36 -2351.336)" fill="#fff"/>
      <path id="Path_15605" data-name="Path 15605" d="M6787.176,2415.61h-.724a1.6,1.6,0,0,0-.348-.035.336.336,0,0,1-.092-.011,4.987,4.987,0,0,1-.979-.347,3.786,3.786,0,0,1-1.808-1.786,4.333,4.333,0,0,1-.338-1.085,5.022,5.022,0,0,1,0-1.561,4.394,4.394,0,0,1,.448-1.257,2.242,2.242,0,0,1,.229-.374,4.063,4.063,0,0,1,1.489-1.213,2.38,2.38,0,0,1,.435-.158,3.672,3.672,0,0,1,.6-.146,6.118,6.118,0,0,1,1.316-.014,2,2,0,0,1,.461.087c.157.056.394.1.591.188a4.042,4.042,0,0,1,1.653,1.352,6.157,6.157,0,0,1,.362.718,3.994,3.994,0,0,1,.306,1.611,4.259,4.259,0,0,1-.314,1.663,3.976,3.976,0,0,1-2.838,2.312.28.28,0,0,1-.047.007,2.309,2.309,0,0,0-.4.048m-3.25-4.006a3.108,3.108,0,0,0,.865,2.232,2.85,2.85,0,0,0,1.478.762,5.3,5.3,0,0,0,1.085,0,2.849,2.849,0,0,0,1.474-.77,3.336,3.336,0,0,0-.012-4.469,2.852,2.852,0,0,0-1.477-.762,3.51,3.51,0,0,0-.543-.026,3.452,3.452,0,0,0-.543.029,2.849,2.849,0,0,0-1.473.771,3.112,3.112,0,0,0-.853,2.237" transform="translate(-6627.922 -2352.61)" fill="#fff"/>
      <path id="Path_15606" data-name="Path 15606" d="M3616.929,2421.687h-.207a2.21,2.21,0,0,0-.37-.045,3.771,3.771,0,0,1-.72-.18,2.186,2.186,0,0,1-.892-.6,3.265,3.265,0,0,1-.784-1.335,1.491,1.491,0,0,1-.068-.341c-.012-.188-.033-.272-.034-.463q-.01-4.025-.01-4.87a.025.025,0,0,1,.025-.025h.981a.032.032,0,0,1,.032.031q.01,4.437.01,4.447a5.439,5.439,0,0,0,.071.744,1.98,1.98,0,0,0,.387.949q.012.016.23.26a1.131,1.131,0,0,0,.678.371,2.6,2.6,0,0,0,1.1,0,1.428,1.428,0,0,0,.936-.666,1.922,1.922,0,0,0,.363-.875,4.947,4.947,0,0,0,.072-.776q0-2.943-.011-4.471a.029.029,0,0,1,.029-.029h.984a.027.027,0,0,1,.027.027q0,.694.012,4.872c0,.207-.029.37-.044.59a.353.353,0,0,1-.011.065,3.144,3.144,0,0,1-.6,1.223,4.388,4.388,0,0,1-.385.426,2.518,2.518,0,0,1-1.327.6c-.157.022-.314.046-.471.071" transform="translate(-3531.312 -2358.688)" fill="#fff"/>
      <path id="Path_15607" data-name="Path 15607" d="M5200.958,1.124a.024.024,0,0,1,.029.025q-.092,1.508-.106,1.78t-.005.637q0,.18-.031.632a7.443,7.443,0,0,0,0,.751.06.06,0,0,0,.108.034c.153-.206.255-.42.425-.622q.328-.39.734-.855a4.138,4.138,0,0,1,.433-.429,9.956,9.956,0,0,1,1.036-.847,9.727,9.727,0,0,1,.817-.528,6.412,6.412,0,0,1,1.109-.521q.125-.037.678-.21a5.794,5.794,0,0,1,1.125-.235,13.02,13.02,0,0,1,2.756-.013q.237.025,1.233.256a5.469,5.469,0,0,1,1.472.572,7.278,7.278,0,0,1,1.666,1.252,7.094,7.094,0,0,1,1.648,2.984,10.469,10.469,0,0,1,.378,2.3c.016.4.025.6.025.6q.024.694,0,1.21-.032.8-.032,1.044c0,.582.015.944-.016,1.393q-.03.433-.017,1.264c0,.2-.036.407-.036.628q0,.566-.01.688c-.042.594-.029.884-.03,1.665,0,.177-.035.384-.035.558q0,.989,0,5.259c0,.594.071,1.334.109,1.773a.113.113,0,0,1,0,.041.056.056,0,0,1-.058.035c-.4-.046-.761-.073-1.092-.079-.282-.005-.6-.051-.876-.036q-1.346.071-2,.116a.036.036,0,0,1-.04-.035,2.184,2.184,0,0,1,.012-.386c.038-.284.005-.546.035-.825a3.591,3.591,0,0,0,.026-.5c-.012-.217.023-.466.03-.664q.042-1.282.1-2.341c.02-.37.017-.585.031-.862q.094-1.778.1-3.209c0-.378.03-.7.03-1.095q0-1.422,0-3.553a16.662,16.662,0,0,0-.235-2.788,9.1,9.1,0,0,0-.309-1.27,6.88,6.88,0,0,0-.789-1.513,4.258,4.258,0,0,0-.97-1.058,3.3,3.3,0,0,0-.634-.429,4.115,4.115,0,0,0-1.737-.509c-.228-.011-.555-.057-.862-.048a9.068,9.068,0,0,0-1.994.286,4.918,4.918,0,0,0-1.915.949c-.095.078-.292.256-.588.534a4.267,4.267,0,0,0-.82,1.157,5.4,5.4,0,0,0-.313.776q-.033.1-.274.791a6.716,6.716,0,0,0-.234.987,18.759,18.759,0,0,0-.214,3.227q-.006,4.692.01,5.52c0,.1.024.262.025.379q.006.754,0,1.36-.005.571.041,1.359.112,1.918.335,3.707a.039.039,0,0,1-.036.044c-.18.013-.377-.031-.538-.034-.627-.011-1.376-.1-2.03-.057-.426.024-.84.045-1.238.062a4.762,4.762,0,0,1-.528.027.038.038,0,0,1-.036-.042q.149-1.432.24-2.753c.017-.244.024-.446.024-.607,0-.294.037-.512.036-.809,0-.251,0-.647.021-.984s.007-.677.02-1.046c.026-.781.071-2.291.07-3.414q0-3.386,0-4.018c0-1.205-.077-2.6-.075-3.683,0-.4-.041-.8-.035-1.22,0-.3-.044-.56-.035-.85a3.781,3.781,0,0,0-.033-.48c-.021-.177-.007-.384-.022-.64q-.069-1.164-.207-2.548a.021.021,0,0,1,.024-.022c.345.059.65.1.915.138a9.383,9.383,0,0,0,3.175-.135" transform="translate(-5078.158 -0.64)" fill="#fff"/>
      <path id="Path_15608" data-name="Path 15608" d="M1704.527,21.978a.02.02,0,0,0-.033-.01q-.68.664-1.481,1.313a8.63,8.63,0,0,1-1.584,1.043q-.554.271-1.149.494a3.818,3.818,0,0,1-.516.156c-.222.049-.465.126-.7.163a15.755,15.755,0,0,1-2.068.193,6.308,6.308,0,0,1-1.2-.081q-.992-.166-1.2-.221a5.955,5.955,0,0,1-1.821-.877,2.342,2.342,0,0,1-.407-.334,11.05,11.05,0,0,1-.849-.906,4.879,4.879,0,0,1-.813-1.479,7.748,7.748,0,0,1-.29-1.7,3.746,3.746,0,0,1,.006-.477c.016-.232.026-.392.032-.477a5.886,5.886,0,0,1,.933-2.869,5.239,5.239,0,0,1,.769-.885q.083-.081.771-.588a3.805,3.805,0,0,1,.7-.42c.284-.125.625-.331.987-.454s.7-.242.995-.348a3.676,3.676,0,0,1,.467-.136l.475-.1q.688-.15,4.291-.794c.571-.1.94-.207,1.583-.365a8.323,8.323,0,0,0,.983-.336,2.717,2.717,0,0,0,.664-.365,1.385,1.385,0,0,0,.439-1.046,5.48,5.48,0,0,0,.03-.874q-.009-.232-.054-.839a7.54,7.54,0,0,0-.3-1.529,4.989,4.989,0,0,0-.841-1.658,6.577,6.577,0,0,0-.525-.561,4.285,4.285,0,0,0-.92-.675,4.937,4.937,0,0,0-1.622-.53,4.521,4.521,0,0,0-.928-.083,7.105,7.105,0,0,0-1.321.057,12.876,12.876,0,0,0-1.412.351,5.846,5.846,0,0,0-1.011.465,5.937,5.937,0,0,0-1.655,1.224,6.138,6.138,0,0,0-.405.491q-.246.379-.438.668a.079.079,0,0,1-.065.035h-.467a.037.037,0,0,1-.038-.037V4.115a.066.066,0,0,1,.03-.055q.166-.106.7-.5a7.178,7.178,0,0,1,.723-.472q.837-.481,1.531-.821.32-.157.525-.234a4.764,4.764,0,0,1,.723-.251q1.185-.25,1.394-.3a5.9,5.9,0,0,1,.705-.112q.615-.067.712-.072a18.292,18.292,0,0,1,1.862.024,5.466,5.466,0,0,1,1.13.174q.893.238,1.1.323a13.52,13.52,0,0,1,1.318.624,3.4,3.4,0,0,1,.842.6q.223.229.5.5a5.745,5.745,0,0,1,1,1.314q.042.074.262.517a6.372,6.372,0,0,1,.658,2.573q.029.786.01,1.921c0,.161-.033.32-.033.458,0,.85.012,1.293-.019,1.612a3.172,3.172,0,0,0-.019.346q.014.952-.014,1.413-.033.558-.025.853a4.449,4.449,0,0,1-.011.569c-.05.462-.013.9-.041,1.387-.044.758-.014,1.734-.023,2.29,0,.167-.034.354-.033.5q0,.8,0,1.3a5.309,5.309,0,0,0,.282,1.62,2.47,2.47,0,0,0,.349.659,1.338,1.338,0,0,0,.727.452,3.472,3.472,0,0,0,.721.051,1.393,1.393,0,0,0,.782-.144.039.039,0,0,1,.057.034v.978a.052.052,0,0,1-.031.048,6.561,6.561,0,0,1-1.81.428,12.437,12.437,0,0,1-1.873.057.459.459,0,0,1-.1-.013,3.316,3.316,0,0,1-1.663-.743,2.588,2.588,0,0,1-.454-.574,6.865,6.865,0,0,1-.372-.806,4.3,4.3,0,0,1-.14-.659m.011-9.174a.034.034,0,0,0-.044-.032,16.177,16.177,0,0,1-1.631.414l-3.283.656q-.27.055-.548.131a8.669,8.669,0,0,0-1.115.332,7.511,7.511,0,0,0-.958.416c-.1.063-.233.134-.388.215a3.813,3.813,0,0,0-.984.757q-.05.056-.6.767a3.055,3.055,0,0,0-.54,1.66l-.034.418a1.815,1.815,0,0,0,0,.418,7.883,7.883,0,0,0,.119,1.117q.078.291.158.593a4.339,4.339,0,0,0,.3.662,3.19,3.19,0,0,0,.616.846q.031.032.582.465a4.321,4.321,0,0,0,.9.514,3.358,3.358,0,0,0,.793.206,10.619,10.619,0,0,0,1.234.053,2.717,2.717,0,0,0,.7-.09q.393-.1.984-.293a3.574,3.574,0,0,0,.632-.268q.481-.268.594-.349.438-.318,1.025-.813a5.442,5.442,0,0,0,1.3-1.56.063.063,0,0,0,.007-.018l.041-.219a.137.137,0,0,0,0-.026q-.012-.805.014-1.253c.031-.548,0-.984.036-1.482.04-.593.011-1.014.045-1.625q.026-.475.014-1.08c0-.1.029-.29.032-.376q.013-.517,0-1.153" transform="translate(-1651.807 -1.25)" fill="#fff"/>
      <path id="Path_15609" data-name="Path 15609" d="M3207.132,2414.538a.01.01,0,0,0,0,.02h2.2a.023.023,0,0,1,.023.023v.838a.028.028,0,0,1-.028.028h-4.372a6.33,6.33,0,0,1-.855-.064,2.71,2.71,0,0,1-.84-.263,3.841,3.841,0,0,1-1.627-1.407,5.527,5.527,0,0,1-.533-1.181,3.551,3.551,0,0,1-.1-.781,2.457,2.457,0,0,1,0-.466,3.867,3.867,0,0,1,.073-.619,3.669,3.669,0,0,1,.3-.855,4.176,4.176,0,0,1,.335-.562,4.1,4.1,0,0,1,.586-.644,5.781,5.781,0,0,1,1.011-.637,2.569,2.569,0,0,1,.732-.25,5.9,5.9,0,0,1,1.59-.022,2.658,2.658,0,0,1,.829.228,4.1,4.1,0,0,1,1.346.9,4.652,4.652,0,0,1,.547.749,3.14,3.14,0,0,1,.356.855,4.273,4.273,0,0,1,.083,1.611,3.316,3.316,0,0,1-1.184,2.2,1.921,1.921,0,0,1-.489.3m-2.146-.054a2.735,2.735,0,0,0,1.4-.381,2.866,2.866,0,0,0,1.338-2.192,2.982,2.982,0,0,0-.846-2.522,2.3,2.3,0,0,0-.716-.516,3.032,3.032,0,0,0-2.546.045,2.3,2.3,0,0,0-.7.541,2.985,2.985,0,0,0-.757,2.551,2.864,2.864,0,0,0,1.415,2.143,2.722,2.722,0,0,0,1.411.331" transform="translate(-3127.894 -2352.667)" fill="#fff"/>
      <path id="Path_15610" data-name="Path 15610" d="M743.718,2421.734l-.8-1.853a.026.026,0,0,0-.023-.015h-3.554a.024.024,0,0,0-.022.015l-.761,1.854a.024.024,0,0,1-.022.015h-1.17a.024.024,0,0,1-.022-.035l3.377-7.6a.025.025,0,0,1,.023-.014h.88a.025.025,0,0,1,.023.015l3.266,7.6a.024.024,0,0,1-.022.034H743.74a.025.025,0,0,1-.023-.015m-4-2.789a.021.021,0,0,0,.02.029h2.8a.021.021,0,0,0,.02-.029l-1.4-3.44a.021.021,0,0,0-.038,0Z" transform="translate(-720.506 -2358.969)" fill="#fff"/>
      <path id="Path_15611" data-name="Path 15611" d="M6300.37,2414.037a.011.011,0,0,1,.011-.014h1a.075.075,0,0,1,.073.055l1.656,5.979a.03.03,0,0,0,.058,0l1.738-5.995a.052.052,0,0,1,.05-.039h1.114a.075.075,0,0,1,.072.054l1.795,6.067a.013.013,0,0,0,.026,0l1.683-6.075a.06.06,0,0,1,.058-.044h1a.025.025,0,0,1,.024.031l-2.195,7.568a.067.067,0,0,1-.063.048h-1.019a.043.043,0,0,1-.041-.031l-1.828-6.182a.022.022,0,0,0-.04-.006.9.9,0,0,0-.1.264q-1.016,3.434-1.743,5.9a.082.082,0,0,1-.078.059h-1.007a.043.043,0,0,1-.042-.031Z" transform="translate(-6156.482 -2358.892)" fill="#fff"/>
      <path id="Path_15612" data-name="Path 15612" d="M7.569,2421.66a.026.026,0,0,1-.024.036l-1.13,0a.077.077,0,0,1-.071-.047l-.733-1.779a.1.1,0,0,0-.088-.059H2.016a.047.047,0,0,0-.044.029l-.745,1.815a.065.065,0,0,1-.061.041l-1.143,0a.023.023,0,0,1-.021-.033l3.37-7.582a.055.055,0,0,1,.05-.032h.8a.108.108,0,0,1,.1.066Zm-5.234-2.776a.022.022,0,0,0,.02.031l2.832.015a.022.022,0,0,0,.02-.031l-1.4-3.446a.022.022,0,0,0-.041,0Z" transform="translate(-0.001 -2358.917)" fill="#fff"/>
      <rect id="Rectangle_4909" data-name="Rectangle 4909" width="1.074" height="7.647" rx="0.537" transform="translate(14.662 55.132)" fill="#fff"/>
      <path id="Path_15613" data-name="Path 15613" d="M1271.025,2413.984q2.264-.013,2.571.01.357.026.8.1a2.067,2.067,0,0,1,1.594,1.132,3.268,3.268,0,0,1,.153.788,2.973,2.973,0,0,1-.069.75,1.478,1.478,0,0,1-.375.759,2.089,2.089,0,0,1-.539.451,2.655,2.655,0,0,1-1.351.3q-.608-.007-1.767,0a.025.025,0,0,0-.024.025v3.3a.029.029,0,0,1-.029.029h-.975a.033.033,0,0,1-.033-.032v-7.571a.041.041,0,0,1,.042-.042m1,.95-.017,2.385a.016.016,0,0,0,.016.016l1.729.012a1.186,1.186,0,0,0,1.286-1.055l0-.289a1.187,1.187,0,0,0-1.272-1.073l-1.729-.012a.015.015,0,0,0-.016.016" transform="translate(-1241.957 -2358.849)" fill="#fff"/>
      <path id="Path_15614" data-name="Path 15614" d="M1484.592,2414.154h.9a.025.025,0,0,1,.023.015l3.264,7.6a.024.024,0,0,1-.022.034h-1.184a.023.023,0,0,1-.023-.015l-.732-1.853a.024.024,0,0,0-.023-.015h-3.6a.024.024,0,0,0-.023.015l-.726,1.853a.024.024,0,0,1-.023.015h-1.167a.025.025,0,0,1-.023-.035l3.34-7.6a.025.025,0,0,1,.023-.014m-1.031,4.836a.022.022,0,0,0,.02.03l2.8.01a.022.022,0,0,0,.021-.031l-1.386-3.486a.022.022,0,0,0-.041,0Z" transform="translate(-1447.399 -2359.02)" fill="#fff"/>
      <rect id="Rectangle_4910" data-name="Rectangle 4910" width="1.039" height="7.648" rx="0.519" transform="translate(50.185 55.132)" fill="#fff"/>
      <path id="Path_15615" data-name="Path 15615" d="M2334.331,2421.673h-1.016a.031.031,0,0,1-.031-.03v-7.588a.031.031,0,0,1,.031-.031h4.78a.031.031,0,0,1,.031.031v.9a.031.031,0,0,1-.031.031h-3.7a.03.03,0,0,0-.031.03v2.336a.03.03,0,0,0,.031.031h3.446a.031.031,0,0,1,.03.031v.939a.031.031,0,0,1-.03.031h-3.446a.031.031,0,0,0-.031.03v3.225a.03.03,0,0,1-.03.03" transform="translate(-2279.997 -2358.893)" fill="#fff"/>
      <rect id="Rectangle_4911" data-name="Rectangle 4911" width="1.075" height="7.647" rx="0.537" transform="translate(59.602 55.132)" fill="#fff"/>
      <path id="Path_15616" data-name="Path 15616" d="M3923.929,2421.685a.026.026,0,0,1-.024.036l-1.129,0a.077.077,0,0,1-.071-.047l-.733-1.779a.1.1,0,0,0-.088-.058h-3.506a.047.047,0,0,0-.043.029l-.744,1.816a.066.066,0,0,1-.061.041l-1.143,0a.023.023,0,0,1-.021-.033l3.369-7.58a.053.053,0,0,1,.05-.033h.8a.108.108,0,0,1,.1.065Zm-5.2-2.766a.022.022,0,0,0,.02.029h2.8a.022.022,0,0,0,.02-.029l-1.4-3.439a.021.021,0,0,0-.039,0Z" transform="translate(-3826.921 -2358.943)" fill="#fff"/>
      <path id="Path_15617" data-name="Path 15617" d="M4297.4,2420.759h3.452a.029.029,0,0,1,.029.029v.907a.028.028,0,0,1-.029.029h-4.49a.028.028,0,0,1-.028-.029v-7.59a.029.029,0,0,1,.028-.029h.98a.028.028,0,0,1,.029.029v6.626a.028.028,0,0,0,.029.029" transform="translate(-4198.217 -2358.942)" fill="#fff"/>
      <path id="Rectangle_4912" data-name="Rectangle 4912" d="M.52,0h0a.521.521,0,0,1,.521.521V7.128a.521.521,0,0,1-.521.521h0A.521.521,0,0,1,0,7.128V.52A.52.52,0,0,1,.52,0Z" transform="translate(103.842 55.13)" fill="#fff"/>
      <path id="Path_15618" data-name="Path 15618" d="M4646.956,2414.023h2.966a.028.028,0,0,1,.028.028v.905a.032.032,0,0,1-.032.032h-2.41a.032.032,0,0,0-.033.032v6.624a.025.025,0,0,1-.024.025c-.034,0-.2,0-.494,0s-.459,0-.494,0a.025.025,0,0,1-.024-.025v-6.624a.032.032,0,0,0-.032-.032h-2.411a.033.033,0,0,1-.033-.032v-.905a.029.029,0,0,1,.029-.028Z" transform="translate(-4537.904 -2358.892)" fill="#fff"/>
      <path id="Path_15619" data-name="Path 15619" d="M4916.2,2421.7h-1a.02.02,0,0,1-.02-.021v-3.269a.021.021,0,0,0,0-.011l-2.876-4.315a.021.021,0,0,1,.018-.032h1.286a.02.02,0,0,1,.017.01l2.074,3.3a.02.02,0,0,0,.034,0l2.1-3.3a.019.019,0,0,1,.017-.01h1.21a.021.021,0,0,1,.018.032l-2.854,4.359a.017.017,0,0,0,0,.01v3.224a.02.02,0,0,1-.021.021" transform="translate(-4800.109 -2358.918)" fill="#fff"/>
      <path id="Path_15620" data-name="Path 15620" d="M5394.959,2420.319a.03.03,0,0,0,.008-.025q.01-.791,0-6.229a.041.041,0,0,1,.042-.042h.969a.029.029,0,0,1,.03.03v7.584a.035.035,0,0,1-.035.035h-1.243a.051.051,0,0,1-.042-.023l-4.226-6.244a.035.035,0,0,0-.065.02v6.209a.038.038,0,0,1-.037.037h-.98a.023.023,0,0,1-.023-.023v-7.583a.041.041,0,0,1,.041-.041h1.321a.065.065,0,0,1,.054.029l4.176,6.264a.006.006,0,0,0,.01,0" transform="translate(-5266.277 -2358.892)" fill="#fff"/>
      <path id="Path_15621" data-name="Path 15621" d="M5770.973,2421.641v-7.589a.03.03,0,0,1,.03-.03h4.894a.029.029,0,0,1,.029.03v.905a.029.029,0,0,1-.029.03h-3.855a.03.03,0,0,0-.03.03v2.227a.03.03,0,0,0,.03.03h3.6a.03.03,0,0,1,.03.03v.94a.03.03,0,0,1-.03.03h-3.6a.03.03,0,0,0-.03.03v2.373a.03.03,0,0,0,.03.03h4.04a.03.03,0,0,1,.03.03v.9a.03.03,0,0,1-.03.03H5771a.03.03,0,0,1-.03-.03" transform="translate(-5639.176 -2358.892)" fill="#fff"/>
      <path id="Path_15622" data-name="Path 15622" d="M6031.137,2413.971h2.944a.028.028,0,0,1,.029.029v.91a.028.028,0,0,1-.028.028h-2.391a.016.016,0,0,0-.017.016v6.642a.024.024,0,0,1-.022.024c-.024,0-.2,0-.515,0s-.491,0-.516,0a.025.025,0,0,1-.022-.024v-6.642a.016.016,0,0,0-.016-.016h-2.392a.028.028,0,0,1-.028-.028V2414a.029.029,0,0,1,.03-.029q.08,0,2.944,0" transform="translate(-5890.492 -2358.84)" fill="#fff"/>
      <path id="Path_15623" data-name="Path 15623" d="M7203.776,2418.226l2.125,3.387a.032.032,0,0,1-.027.049h-1.233a.057.057,0,0,1-.05-.029l-1.9-3.287a.085.085,0,0,0-.074-.043h-1.092a.034.034,0,0,0-.033.033v3.289a.037.037,0,0,1-.037.037h-.977a.025.025,0,0,1-.025-.026v-7.6a.02.02,0,0,1,.02-.02q.427,0,2.161,0a6.011,6.011,0,0,1,.6.031c.343.035.543.058.6.069a2.654,2.654,0,0,1,1.06.432,1.737,1.737,0,0,1,.556.693,1.523,1.523,0,0,1,.113.433,2.2,2.2,0,0,1,.008.941,2.052,2.052,0,0,1-1.785,1.581.023.023,0,0,0-.018.034m-2.273-3.258-.017,2.381a.018.018,0,0,0,.018.018l1.724.012a1.186,1.186,0,0,0,1.287-1.05l0-.3a1.185,1.185,0,0,0-1.272-1.068l-1.724-.012a.017.017,0,0,0-.018.017" transform="translate(-7036.013 -2358.881)" fill="#fff"/>
      <path id="Path_15624" data-name="Path 15624" d="M7500.617,2414.026a.021.021,0,0,1,.015.035l-3.627,3.5a.032.032,0,0,0,0,.047c.253.251.7.685,1.027,1.055.265.3.627.614.921.954.261.3.648.655,1.027,1.062q.406.436.9.911a.069.069,0,0,1,.02.05.032.032,0,0,1-.032.033h-1.406a.074.074,0,0,1-.053-.023q-.261-.268-1.027-1.09l-2.224-2.389a1.3,1.3,0,0,0-.357-.311.052.052,0,0,0-.069.05v3.729a.035.035,0,0,1-.035.034h-.972a.032.032,0,0,1-.032-.032v-7.577a.04.04,0,0,1,.04-.04h.965a.034.034,0,0,1,.034.033v3.256a.037.037,0,0,0,.034.037.214.214,0,0,0,.2-.073l3.221-3.222a.1.1,0,0,1,.068-.029Z" transform="translate(-7323.53 -2358.893)" fill="#fff"/>
      <path id="Rectangle_4913" data-name="Rectangle 4913" d="M.464,0H2.2a.464.464,0,0,1,.464.464v0A.464.464,0,0,1,2.2.928H.464A.464.464,0,0,1,0,.464v0A.464.464,0,0,1,.464,0Z" transform="translate(24.89 59.71)" fill="#fff"/>
    </g>
  </g>
</svg>
