<svg id="logo-HKCAAVQ-white" xmlns="http://www.w3.org/2000/svg" xmlns:xlink="http://www.w3.org/1999/xlink" width="311.078" height="63" viewBox="0 0 311.078 63">
  <defs>
    <clipPath id="clip-path">
      <path id="Path_15493" data-name="Path 15493" d="M113.545,114.4l38.644,15.208-13.152-25.728Z" transform="translate(-113.545 -103.883)" fill="none"/>
    </clipPath>
    <clipPath id="clip-path-2">
      <rect id="Rectangle_4897" data-name="Rectangle 4897" width="311.078" height="63" fill="none"/>
    </clipPath>
  </defs>
  <path id="Path_15484" data-name="Path 15484" d="M164.468,106.972l8.112-1.865-.626-1.224Z" transform="translate(-106.314 -67.151)" fill="#fff"/>
  <path id="Path_15485" data-name="Path 15485" d="M113.545,133.012l38.644,15.208-1.273-2.489-36.546-13.06Z" transform="translate(-73.397 -85.76)" fill="#fff"/>
  <path id="Path_15486" data-name="Path 15486" d="M117.445,131.319l34.075,9.536-1.056-2.066-32.083-7.856Z" transform="translate(-75.918 -84.637)" fill="#fff"/>
  <path id="Path_15487" data-name="Path 15487" d="M122.332,129.159l29.832,5.33-.9-1.763-27.8-4.032Z" transform="translate(-79.077 -83.19)" fill="#fff"/>
  <path id="Path_15488" data-name="Path 15488" d="M127.981,126.759l25.591,1.765-.719-1.406-23.655-.862Z" transform="translate(-82.728 -81.614)" fill="#fff"/>
  <path id="Path_15489" data-name="Path 15489" d="M137.306,120.135l-1.918.791,21.151-.715-.668-1.306Z" transform="translate(-87.517 -76.862)" fill="#fff"/>
  <path id="Path_15490" data-name="Path 15490" d="M148.969,112.857l-3.088,1.274,15.95-2.1-.648-1.268Z" transform="translate(-94.299 -71.598)" fill="#fff"/>
  <g id="Group_16466" data-name="Group 16466" transform="translate(40.148 36.732)">
    <g id="Group_16465" data-name="Group 16465" clip-path="url(#clip-path)">
      <path id="Path_15491" data-name="Path 15491" d="M97.787,99.051l-.066.2,44.84-14.573-1.922-1.113Z" transform="translate(-103.316 -90.75)" fill="#024478"/>
      <path id="Path_15492" data-name="Path 15492" d="M97.787,99.051l-.066.2,44.84-14.573-1.922-1.113Z" transform="translate(-103.316 -90.75)" fill="none" stroke="#024478" stroke-width="0.164"/>
    </g>
  </g>
  <g id="Group_16468" data-name="Group 16468">
    <g id="Group_16467" data-name="Group 16467" clip-path="url(#clip-path-2)">
      <path id="Path_15494" data-name="Path 15494" d="M40.623,94.314a75.695,75.695,0,0,0-10.23.259C12.144,96.122,0,100.879,0,107c0,7.057,18.6,12.782,41.535,12.782a105.469,105.469,0,0,0,13.075-.523c2.932-.338,4.642-.711,5.37-.854.461-.1.618-.773-.22-.711-.488.036-1.578.081-2.262.119a145.36,145.36,0,0,1-16.007.069c-21.519-1.011-35.785-6.608-35.256-12.319.336-3.637,8.4-7.292,20.691-9.153,4.195-.637,5.763-.878,8.4-1.125,2.752-.259,2.865-.295,5.384-.435.464-.022.566-.483-.082-.537M76.58,113.84a17.053,17.053,0,0,0,3.021-1.613c2.3-1.589,3.464-3.323,3.464-5.225,0-3.658-4.077-7.759-14.224-9.883-.5-.166-.819.343-.008.583,7.687,2.241,9.922,4.615,10.831,7.343a6.957,6.957,0,0,1-1.182,6.12,7.913,7.913,0,0,1-2,2.034c-.571.416-.132.751.1.642" transform="translate(0 -60.917)" fill="#fff" fill-rule="evenodd"/>
      <path id="Path_15495" data-name="Path 15495" d="M172.96,3.831V.04l-2.62,4.74.238,3.408Z" transform="translate(-110.11 -0.026)" fill="#fff"/>
      <path id="Path_15496" data-name="Path 15496" d="M164.217,17.62,162.13,21.4l1.842-.276Z" transform="translate(-104.803 -11.39)" fill="#fff"/>
      <path id="Path_15497" data-name="Path 15497" d="M104.878,66.356l3.022-1.218,18.767-34.331-1.978-.293Z" transform="translate(-67.795 -19.725)" fill="#fff"/>
      <path id="Path_15498" data-name="Path 15498" d="M134.227,11.663l4.157.622v.086l-4.4.652-.659,9.764h-.09l-.561-8.3L113.555,49.148l25.486-10.523V2.933Z" transform="translate(-73.403 -1.896)" fill="#fff"/>
      <path id="Path_15499" data-name="Path 15499" d="M153.99,10.2l4.509-.673L159.19,0l.459.029-.718,9.9-4.874.728Z" transform="translate(-99.541 0)" fill="#fff"/>
      <path id="Path_15500" data-name="Path 15500" d="M263.175,76.422V71.915h-4.692v4.507h-1.055v-9.88h1.055V70.97h4.692V66.542h1.054v9.88Z" transform="translate(-166.405 -43.013)" fill="#fff"/>
      <path id="Path_15501" data-name="Path 15501" d="M286.783,81.168a2.856,2.856,0,0,1-3.913,0,4.869,4.869,0,0,1,0-5.442,2.856,2.856,0,0,1,3.913,0,4.864,4.864,0,0,1,0,5.442m-.705-4.831a1.793,1.793,0,0,0-2.489,0,4.3,4.3,0,0,0,0,4.217,1.793,1.793,0,0,0,2.489,0,4.387,4.387,0,0,0,0-4.217" transform="translate(-182.313 -48.449)" fill="#fff"/>
      <path id="Path_15502" data-name="Path 15502" d="M307.054,81.857V77.652a1.691,1.691,0,1,0-3.374,0v4.205h-1V75.033h1v.747a2.461,2.461,0,0,1,1.915-.83,2.392,2.392,0,0,1,1.749.638,2.507,2.507,0,0,1,.706,1.9v4.369Z" transform="translate(-195.656 -48.449)" fill="#fff"/>
      <path id="Path_15503" data-name="Path 15503" d="M325.1,84.992a3.016,3.016,0,0,1-2.318-.916l.652-.64a2.11,2.11,0,0,0,1.641.683c1.315,0,1.868-.932,1.868-2.1V80.954a2.192,2.192,0,0,1-1.913.887,2.335,2.335,0,0,1-1.648-.609,3.915,3.915,0,0,1-.836-2.847,3.911,3.911,0,0,1,.836-2.845,2.368,2.368,0,0,1,1.66-.6,2.153,2.153,0,0,1,1.917.89v-.806h.982v7.035a2.713,2.713,0,0,1-2.841,2.931m.153-9.16c-1.488,0-1.707,1.275-1.707,2.552s.219,2.555,1.707,2.555,1.69-1.28,1.69-2.555-.2-2.552-1.69-2.552" transform="translate(-208.494 -48.444)" fill="#fff"/>
      <path id="Path_15504" data-name="Path 15504" d="M358.963,76.422l-3.017-5.259-2.08,2.5v2.759h-1.052v-9.88h1.052v5.675l4.607-5.675h1.29l-3.107,3.817,3.553,6.063Z" transform="translate(-228.063 -43.013)" fill="#fff"/>
      <path id="Path_15505" data-name="Path 15505" d="M380.348,81.168a2.855,2.855,0,0,1-3.912,0,4.857,4.857,0,0,1,0-5.442,2.855,2.855,0,0,1,3.912,0,4.852,4.852,0,0,1,0,5.442m-.7-4.831a1.76,1.76,0,0,0-1.247-.5,1.733,1.733,0,0,0-1.238.5,4.272,4.272,0,0,0,0,4.217,1.715,1.715,0,0,0,1.238.5,1.741,1.741,0,0,0,1.247-.5,4.394,4.394,0,0,0,0-4.217" transform="translate(-242.793 -48.449)" fill="#fff"/>
      <path id="Path_15506" data-name="Path 15506" d="M400.627,81.857V77.652a1.692,1.692,0,1,0-3.375,0v4.205h-1V75.033h1v.747a2.463,2.463,0,0,1,1.915-.83,2.391,2.391,0,0,1,1.749.638,2.507,2.507,0,0,1,.706,1.9v4.369Z" transform="translate(-256.142 -48.449)" fill="#fff"/>
      <path id="Path_15507" data-name="Path 15507" d="M418.668,84.992a3.022,3.022,0,0,1-2.319-.916l.652-.64a2.113,2.113,0,0,0,1.642.683c1.314,0,1.872-.932,1.872-2.1V80.954a2.2,2.2,0,0,1-1.918.887,2.335,2.335,0,0,1-1.648-.609,3.915,3.915,0,0,1-.835-2.847,3.911,3.911,0,0,1,.835-2.845,2.367,2.367,0,0,1,1.663-.6,2.146,2.146,0,0,1,1.915.89v-.806h.987v7.035a2.716,2.716,0,0,1-2.845,2.931m.152-9.16c-1.487,0-1.707,1.275-1.707,2.552s.22,2.555,1.707,2.555,1.695-1.28,1.695-2.555-.208-2.552-1.695-2.552" transform="translate(-268.981 -48.444)" fill="#fff"/>
      <path id="Path_15508" data-name="Path 15508" d="M448.773,76.355a3.5,3.5,0,0,1-2.525-1.03c-.932-.927-.932-1.9-.932-4s0-3.066.932-3.993a3.51,3.51,0,0,1,2.525-1.03,3.333,3.333,0,0,1,3.426,2.942h-1.083a2.33,2.33,0,0,0-2.343-2,2.374,2.374,0,0,0-1.705.692c-.625.642-.7,1.322-.7,3.387s.071,2.75.7,3.39a2.422,2.422,0,0,0,4.079-1.306H452.2a3.329,3.329,0,0,1-3.426,2.942" transform="translate(-287.857 -42.861)" fill="#fff"/>
      <path id="Path_15509" data-name="Path 15509" d="M473.415,81.168a2.856,2.856,0,0,1-3.913,0,4.852,4.852,0,0,1,0-5.442,2.856,2.856,0,0,1,3.913,0,4.864,4.864,0,0,1,0,5.442m-.7-4.831a1.77,1.77,0,0,0-1.252-.5,1.729,1.729,0,0,0-1.238.5,4.305,4.305,0,0,0,0,4.217,1.711,1.711,0,0,0,1.238.5,1.75,1.75,0,0,0,1.252-.5,4.394,4.394,0,0,0,0-4.217" transform="translate(-302.952 -48.449)" fill="#fff"/>
      <path id="Path_15510" data-name="Path 15510" d="M493.5,82.009v-.761a2.492,2.492,0,0,1-1.93.847,2.426,2.426,0,0,1-1.759-.638,2.538,2.538,0,0,1-.7-1.915V75.185h1v4.2c0,1.208.638,1.817,1.668,1.817a1.612,1.612,0,0,0,1.7-1.817v-4.2h1v6.824Z" transform="translate(-316.171 -48.6)" fill="#fff"/>
      <path id="Path_15511" data-name="Path 15511" d="M514.576,81.857V77.652a1.693,1.693,0,1,0-3.377,0v4.205h-1V75.033h1v.747a2.469,2.469,0,0,1,1.916-.83,2.4,2.4,0,0,1,1.752.638,2.524,2.524,0,0,1,.705,1.9v4.369Z" transform="translate(-329.8 -48.449)" fill="#fff"/>
      <path id="Path_15512" data-name="Path 15512" d="M533.045,81.943c-1.722,0-3.025-1.165-3.025-3.5s1.3-3.494,3.025-3.494a2.71,2.71,0,0,1,2.25,1.008l-.68.64a1.88,1.88,0,0,0-1.57-.761,1.851,1.851,0,0,0-1.583.775,4,4,0,0,0,0,3.663,1.847,1.847,0,0,0,1.583.778,1.879,1.879,0,0,0,1.57-.778l.68.654a2.7,2.7,0,0,1-2.25,1.013" transform="translate(-342.611 -48.449)" fill="#fff"/>
      <path id="Path_15513" data-name="Path 15513" d="M548.975,66.508H550.1v1.125h-1.126Zm.058,3.068h1V76.4h-1Z" transform="translate(-354.863 -42.992)" fill="#fff"/>
      <path id="Path_15514" data-name="Path 15514" d="M559.543,76.422a1.625,1.625,0,0,1-1.735-1.815V66.542h1v8.023c0,.666.226,1,.916,1h.542v.859Z" transform="translate(-360.573 -43.013)" fill="#fff"/>
      <path id="Path_15515" data-name="Path 15515" d="M577,70.35v6.022h-1V70.35h-.874v-.766H576V68.295a1.664,1.664,0,0,1,1.734-1.834h.723v.861h-.545c-.635,0-.917.376-.917,1v1.263h1.462v.766Z" transform="translate(-371.768 -42.961)" fill="#fff"/>
      <path id="Path_15516" data-name="Path 15516" d="M591.086,81.168a2.859,2.859,0,0,1-3.915,0,4.869,4.869,0,0,1,0-5.442,2.859,2.859,0,0,1,3.915,0,4.864,4.864,0,0,1,0,5.442m-.705-4.831a1.756,1.756,0,0,0-1.249-.5,1.72,1.72,0,0,0-1.235.5,4.279,4.279,0,0,0,0,4.217,1.7,1.7,0,0,0,1.235.5,1.737,1.737,0,0,0,1.249-.5,4.4,4.4,0,0,0,0-4.217" transform="translate(-379.016 -48.449)" fill="#fff"/>
      <path id="Path_15517" data-name="Path 15517" d="M610.8,76.337a1.423,1.423,0,0,0-1.178-.5,1.669,1.669,0,0,0-1.639,1.832v4.191h-1V75.033h1v.833a2.3,2.3,0,0,1,1.916-.916,2.105,2.105,0,0,1,1.638.638Z" transform="translate(-392.363 -48.449)" fill="#fff"/>
      <path id="Path_15518" data-name="Path 15518" d="M634.886,76.426,634.1,74.2H629.78l-.792,2.231H627.86l3.637-9.878h.891l3.621,9.878Zm-2.927-8.368L630.1,73.279h3.693Z" transform="translate(-405.856 -43.017)" fill="#fff"/>
      <path id="Path_15519" data-name="Path 15519" d="M655.7,81.943c-1.72,0-3.027-1.165-3.027-3.5s1.307-3.494,3.027-3.494a2.7,2.7,0,0,1,2.245,1.008l-.678.64a1.88,1.88,0,0,0-1.567-.761,1.856,1.856,0,0,0-1.587.775,4.013,4.013,0,0,0,0,3.663,1.852,1.852,0,0,0,1.587.778,1.879,1.879,0,0,0,1.567-.778l.678.654a2.69,2.69,0,0,1-2.245,1.013" transform="translate(-421.897 -48.449)" fill="#fff"/>
      <path id="Path_15520" data-name="Path 15520" d="M673.162,81.943c-1.718,0-3.027-1.165-3.027-3.5s1.308-3.494,3.027-3.494a2.7,2.7,0,0,1,2.245,1.008l-.675.64a1.886,1.886,0,0,0-1.57-.761,1.851,1.851,0,0,0-1.584.775,4.013,4.013,0,0,0,0,3.663,1.847,1.847,0,0,0,1.584.778,1.885,1.885,0,0,0,1.57-.778l.675.654a2.69,2.69,0,0,1-2.245,1.013" transform="translate(-433.183 -48.449)" fill="#fff"/>
      <path id="Path_15521" data-name="Path 15521" d="M693.073,76.337a1.432,1.432,0,0,0-1.18-.5,1.667,1.667,0,0,0-1.638,1.832v4.191h-1V75.033h1v.833a2.286,2.286,0,0,1,1.917-.916,2.109,2.109,0,0,1,1.639.638Z" transform="translate(-445.545 -48.449)" fill="#fff"/>
      <path id="Path_15522" data-name="Path 15522" d="M703.194,78.706c0,1.5.708,2.36,2.009,2.36a2.246,2.246,0,0,0,1.794-.78l.677.6a3.114,3.114,0,0,1-2.494,1.054c-1.807,0-2.988-1.08-2.988-3.5,0-2.207,1.07-3.5,2.807-3.5,1.76,0,2.8,1.28,2.8,3.3v.459Zm3.4-1.889a1.754,1.754,0,0,0-3.193,0,2.853,2.853,0,0,0-.206,1.137H706.8a2.958,2.958,0,0,0-.208-1.137" transform="translate(-453.905 -48.444)" fill="#fff"/>
      <path id="Path_15523" data-name="Path 15523" d="M726.3,76.424v-.818a2.215,2.215,0,0,1-1.942.9,2.366,2.366,0,0,1-1.664-.6,4.059,4.059,0,0,1-.836-2.9,4.068,4.068,0,0,1,.836-2.9,2.364,2.364,0,0,1,1.664-.6,2.2,2.2,0,0,1,1.928.875V66.541h1v9.883ZM724.582,70.4c-1.488,0-1.719,1.275-1.719,2.607s.232,2.612,1.719,2.612,1.707-1.278,1.707-2.612-.22-2.607-1.707-2.607" transform="translate(-466.619 -43.013)" fill="#fff"/>
      <path id="Path_15524" data-name="Path 15524" d="M742.936,66.508h1.126v1.125h-1.126Zm.057,3.068h1V76.4h-1Z" transform="translate(-480.242 -42.992)" fill="#fff"/>
      <path id="Path_15525" data-name="Path 15525" d="M752.494,78.175a1.676,1.676,0,0,1-1.749-1.829V72.155h-.86v-.766h.86V69.253h1v2.136H753.2v.766h-1.456v4.162c0,.623.292,1,.929,1h.527v.859Z" transform="translate(-484.734 -44.766)" fill="#fff"/>
      <path id="Path_15526" data-name="Path 15526" d="M766.271,81.853V81.2a3.138,3.138,0,0,1-3.9.109,1.965,1.965,0,0,1-.514-1.386c0-1.194.831-1.972,2.358-1.972h2.055V77.3c0-1-.5-1.5-1.752-1.5a1.8,1.8,0,0,0-1.721.775l-.677-.626a2.637,2.637,0,0,1,2.412-1.011c1.835,0,2.738.792,2.738,2.274v4.636Zm0-3.147h-1.918c-1.026,0-1.527.416-1.527,1.208s.491,1.163,1.573,1.163a2,2,0,0,0,1.527-.459,1.583,1.583,0,0,0,.345-1.18Z" transform="translate(-492.473 -48.444)" fill="#fff"/>
      <path id="Path_15527" data-name="Path 15527" d="M783.5,78.175a1.676,1.676,0,0,1-1.751-1.829V72.155h-.86v-.766h.86V69.253h1v2.136h1.458v.766h-1.458v4.162c0,.623.295,1,.93,1h.528v.859Z" transform="translate(-504.775 -44.766)" fill="#fff"/>
      <path id="Path_15528" data-name="Path 15528" d="M794.548,66.508h1.128v1.125h-1.128Zm.059,3.068h1V76.4h-1Z" transform="translate(-513.605 -42.992)" fill="#fff"/>
      <path id="Path_15529" data-name="Path 15529" d="M807.184,81.168a2.86,2.86,0,0,1-3.916,0,4.864,4.864,0,0,1,0-5.442,2.86,2.86,0,0,1,3.916,0,4.869,4.869,0,0,1,0,5.442m-.71-4.831a1.751,1.751,0,0,0-1.245-.5,1.726,1.726,0,0,0-1.238.5,4.289,4.289,0,0,0,0,4.217,1.707,1.707,0,0,0,1.238.5,1.732,1.732,0,0,0,1.245-.5,4.362,4.362,0,0,0,0-4.217" transform="translate(-518.703 -48.449)" fill="#fff"/>
      <path id="Path_15530" data-name="Path 15530" d="M827.46,81.857V77.652a1.589,1.589,0,0,0-1.679-1.815,1.605,1.605,0,0,0-1.695,1.815v4.205h-1V75.033h1v.747A2.465,2.465,0,0,1,826,74.95a2.4,2.4,0,0,1,1.753.638,2.516,2.516,0,0,1,.706,1.9v4.369Z" transform="translate(-532.054 -48.449)" fill="#fff"/>
      <path id="Path_15531" data-name="Path 15531" d="M856.29,81.168a2.86,2.86,0,0,1-3.916,0,4.874,4.874,0,0,1,0-5.442,2.86,2.86,0,0,1,3.916,0,4.874,4.874,0,0,1,0,5.442m-.709-4.831a1.752,1.752,0,0,0-1.247-.5,1.725,1.725,0,0,0-1.237.5,4.3,4.3,0,0,0,0,4.217,1.707,1.707,0,0,0,1.237.5,1.733,1.733,0,0,0,1.247-.5,4.379,4.379,0,0,0,0-4.217" transform="translate(-550.448 -48.449)" fill="#fff"/>
      <path id="Path_15532" data-name="Path 15532" d="M872.217,70.35v6.022h-1V70.35h-.878v-.766h.878V68.295a1.662,1.662,0,0,1,1.733-1.834h.724v.861h-.541c-.638,0-.919.376-.919,1v1.263h1.46v.766Z" transform="translate(-562.599 -42.961)" fill="#fff"/>
      <path id="Path_15533" data-name="Path 15533" d="M260.877,129.95l-.793-2.234h-4.312l-.792,2.234h-1.126l3.635-9.883h.891L262,129.95Zm-2.931-8.368L256.09,126.8h3.693Z" transform="translate(-164.094 -77.613)" fill="#fff"/>
      <path id="Path_15534" data-name="Path 15534" d="M281.684,135.461c-1.718,0-3.029-1.163-3.029-3.494s1.311-3.5,3.029-3.5a2.7,2.7,0,0,1,2.246,1.013l-.678.638a1.879,1.879,0,0,0-1.569-.761,1.841,1.841,0,0,0-1.586.778,4.007,4.007,0,0,0,0,3.66,1.847,1.847,0,0,0,1.586.778,1.891,1.891,0,0,0,1.569-.778l.678.654a2.7,2.7,0,0,1-2.246,1.011" transform="translate(-180.126 -83.043)" fill="#fff"/>
      <path id="Path_15535" data-name="Path 15535" d="M300.181,135.38v-.652a2.41,2.41,0,0,1-1.973.733,2.441,2.441,0,0,1-1.928-.623,1.974,1.974,0,0,1-.513-1.387c0-1.192.831-1.972,2.359-1.972h2.055v-.654c0-1-.5-1.5-1.751-1.5a1.8,1.8,0,0,0-1.718.773l-.681-.618a2.634,2.634,0,0,1,2.414-1.015c1.833,0,2.736.79,2.736,2.274v4.638Zm0-3.149h-1.919c-1.025,0-1.521.416-1.521,1.208s.487,1.161,1.567,1.161a2,2,0,0,0,1.527-.457,1.58,1.58,0,0,0,.346-1.18Z" transform="translate(-191.187 -83.043)" fill="#fff"/>
      <path id="Path_15536" data-name="Path 15536" d="M320.191,129.945v-.82a2.215,2.215,0,0,1-1.941.9,2.378,2.378,0,0,1-1.665-.594,5.473,5.473,0,0,1,0-5.8,2.358,2.358,0,0,1,1.665-.6,2.19,2.19,0,0,1,1.926.875V120.06h1v9.885Zm-1.722-6.022c-1.484,0-1.719,1.277-1.719,2.609s.235,2.609,1.719,2.609,1.707-1.278,1.707-2.609-.218-2.609-1.707-2.609" transform="translate(-204.107 -77.608)" fill="#fff"/>
      <path id="Path_15537" data-name="Path 15537" d="M336.915,132.232c0,1.5.709,2.36,2.011,2.36a2.242,2.242,0,0,0,1.792-.78l.68.6a3.129,3.129,0,0,1-2.5,1.051c-1.806,0-2.986-1.082-2.986-3.5,0-2.21,1.07-3.5,2.808-3.5,1.76,0,2.8,1.277,2.8,3.3v.459Zm3.4-1.891a1.755,1.755,0,0,0-3.192,0,2.92,2.92,0,0,0-.206,1.139h3.608a2.868,2.868,0,0,0-.21-1.139" transform="translate(-217.139 -83.044)" fill="#fff"/>
      <path id="Path_15538" data-name="Path 15538" d="M365.378,135.381v-4.208a1.7,1.7,0,1,0-3.387-.107v4.314h-1v-4.208a1.587,1.587,0,0,0-1.676-1.815,1.612,1.612,0,0,0-1.706,1.815v4.208h-1v-6.829h1v.749a2.486,2.486,0,0,1,1.927-.832,2.251,2.251,0,0,1,2.1,1.137,2.61,2.61,0,0,1,2.249-1.137,2.469,2.469,0,0,1,1.761.64,2.527,2.527,0,0,1,.739,1.9v4.372Z" transform="translate(-230.515 -83.044)" fill="#fff"/>
      <path id="Path_15539" data-name="Path 15539" d="M389.769,120.026H390.9v1.128h-1.126Zm.057,3.068h1v6.829h-1Z" transform="translate(-251.951 -77.586)" fill="#fff"/>
      <path id="Path_15540" data-name="Path 15540" d="M400.643,135.461c-1.718,0-3.028-1.163-3.028-3.494s1.309-3.5,3.028-3.5a2.69,2.69,0,0,1,2.245,1.013l-.675.638a1.879,1.879,0,0,0-1.57-.761,1.84,1.84,0,0,0-1.585.778,4,4,0,0,0,0,3.66,1.846,1.846,0,0,0,1.585.778,1.89,1.89,0,0,0,1.57-.778l.675.654a2.688,2.688,0,0,1-2.245,1.011" transform="translate(-257.023 -83.043)" fill="#fff"/>
      <path id="Path_15541" data-name="Path 15541" d="M429,129.8l-.889-1.08a4.131,4.131,0,0,1-2.913,1.16,2.818,2.818,0,0,1-3.124-2.871c0-1.486,1.055-2.236,2.137-2.956a3.482,3.482,0,0,1-1.067-2.15,2.166,2.166,0,0,1,4.328.012,2.122,2.122,0,0,1-1.094,1.763s-.5.331-.737.5l2.527,3.037a3.683,3.683,0,0,0,.558-2.262h1a4.639,4.639,0,0,1-.914,3.028l1.51,1.817Zm-4.2-5.078c-.849.58-1.695,1.137-1.695,2.26a1.935,1.935,0,0,0,2.084,1.972,3.275,3.275,0,0,0,2.331-.956Zm.527-3.986a1.094,1.094,0,0,0-1.136,1.151c0,.456.234.832.887,1.627.164-.112.525-.362.525-.362.456-.321.885-.666.885-1.237a1.146,1.146,0,0,0-1.162-1.18" transform="translate(-272.831 -77.46)" fill="#fff"/>
      <path id="Path_15542" data-name="Path 15542" d="M456.365,129.949H455.5l-3.249-9.883h1.11l2.572,7.994,2.564-7.994h1.11Z" transform="translate(-292.342 -77.612)" fill="#fff"/>
      <path id="Path_15543" data-name="Path 15543" d="M477.88,134.686a2.854,2.854,0,0,1-3.911,0,4.848,4.848,0,0,1,0-5.44,2.847,2.847,0,0,1,3.911,0,4.865,4.865,0,0,1,0,5.44m-.708-4.828a1.748,1.748,0,0,0-1.247-.5,1.722,1.722,0,0,0-1.237.5,4.277,4.277,0,0,0,0,4.219,1.721,1.721,0,0,0,1.237.5,1.746,1.746,0,0,0,1.247-.5,4.384,4.384,0,0,0,0-4.219" transform="translate(-305.839 -83.043)" fill="#fff"/>
      <path id="Path_15544" data-name="Path 15544" d="M495.749,135.461c-1.72,0-3.027-1.163-3.027-3.494s1.307-3.5,3.027-3.5a2.69,2.69,0,0,1,2.245,1.013l-.677.638a1.873,1.873,0,0,0-1.568-.761,1.845,1.845,0,0,0-1.587.778,4.007,4.007,0,0,0,0,3.66,1.851,1.851,0,0,0,1.587.778,1.884,1.884,0,0,0,1.568-.778l.677.654a2.687,2.687,0,0,1-2.245,1.011" transform="translate(-318.501 -83.043)" fill="#fff"/>
      <path id="Path_15545" data-name="Path 15545" d="M514.243,135.38v-.652a2.4,2.4,0,0,1-1.968.733,2.429,2.429,0,0,1-1.928-.623,1.972,1.972,0,0,1-.515-1.387c0-1.192.83-1.972,2.358-1.972h2.053v-.654c0-1-.5-1.5-1.749-1.5a1.8,1.8,0,0,0-1.718.773l-.679-.618a2.625,2.625,0,0,1,2.412-1.015c1.834,0,2.735.79,2.735,2.274v4.638Zm0-3.149h-1.915c-1.029,0-1.526.416-1.526,1.208s.486,1.161,1.566,1.161a2,2,0,0,0,1.53-.457,1.582,1.582,0,0,0,.345-1.18Z" transform="translate(-329.561 -83.043)" fill="#fff"/>
      <path id="Path_15546" data-name="Path 15546" d="M531.476,131.7a1.678,1.678,0,0,1-1.752-1.832V125.68h-.859v-.766h.859v-2.136h1v2.136h1.456v.766h-1.456v4.162c0,.623.288,1,.927,1h.529v.861Z" transform="translate(-341.864 -79.365)" fill="#fff"/>
      <path id="Path_15547" data-name="Path 15547" d="M542.524,120.026h1.123v1.128h-1.123Zm.056,3.068h1v6.829h-1Z" transform="translate(-350.694 -77.586)" fill="#fff"/>
      <path id="Path_15548" data-name="Path 15548" d="M555.155,134.686a2.857,2.857,0,0,1-3.914,0,4.858,4.858,0,0,1,0-5.44,2.85,2.85,0,0,1,3.914,0,4.86,4.86,0,0,1,0,5.44m-.706-4.828a1.75,1.75,0,0,0-1.249-.5,1.719,1.719,0,0,0-1.237.5,4.284,4.284,0,0,0,0,4.219,1.718,1.718,0,0,0,1.237.5,1.749,1.749,0,0,0,1.249-.5,4.4,4.4,0,0,0,0-4.219" transform="translate(-355.79 -83.043)" fill="#fff"/>
      <path id="Path_15549" data-name="Path 15549" d="M575.43,135.381v-4.208a1.691,1.691,0,1,0-3.374,0v4.208h-1v-6.829h1v.749a2.465,2.465,0,0,1,1.912-.832,2.4,2.4,0,0,1,1.754.64,2.514,2.514,0,0,1,.7,1.9v4.372Z" transform="translate(-369.137 -83.044)" fill="#fff"/>
      <path id="Path_15550" data-name="Path 15550" d="M594.825,135.38v-.652a2.414,2.414,0,0,1-1.972.733,2.449,2.449,0,0,1-1.934-.623,1.985,1.985,0,0,1-.51-1.387c0-1.192.832-1.972,2.358-1.972h2.058v-.654c0-1-.5-1.5-1.753-1.5a1.8,1.8,0,0,0-1.72.773l-.679-.618a2.627,2.627,0,0,1,2.412-1.015c1.834,0,2.734.79,2.734,2.274v4.638Zm0-3.149h-1.917c-1.03,0-1.527.416-1.527,1.208s.488,1.161,1.569,1.161a2,2,0,0,0,1.526-.457,1.561,1.561,0,0,0,.35-1.18Z" transform="translate(-381.647 -83.043)" fill="#fff"/>
      <path id="Path_15551" data-name="Path 15551" d="M613.059,129.95a1.629,1.629,0,0,1-1.74-1.815v-8.068h1v8.023c0,.668.223,1,.917,1h.54v.861Z" transform="translate(-395.163 -77.613)" fill="#fff"/>
      <path id="Path_15552" data-name="Path 15552" d="M636.61,130.287l-1.1-1.1a3.414,3.414,0,0,1-2.119.692,3.483,3.483,0,0,1-2.527-1.028c-.93-.925-.93-1.9-.93-4s0-3.066.93-4a3.627,3.627,0,0,1,5.054,0c.929.93.929,1.9.929,4,0,1.889,0,2.859-.684,3.706l1.083,1.087Zm-1.512-8.8a2.406,2.406,0,0,0-3.416,0c-.626.638-.693,1.3-.693,3.37s.068,2.735.693,3.375a2.416,2.416,0,0,0,1.71.706,2.263,2.263,0,0,0,1.4-.473l-1.249-1.249.637-.638,1.212,1.208c.362-.583.4-1.346.4-2.93,0-2.067-.068-2.733-.692-3.37" transform="translate(-407.198 -77.465)" fill="#fff"/>
      <path id="Path_15553" data-name="Path 15553" d="M658.967,135.533v-.763a2.493,2.493,0,0,1-1.927.844,2.429,2.429,0,0,1-1.762-.635,2.549,2.549,0,0,1-.695-1.917V128.7h1v4.205c0,1.209.64,1.817,1.666,1.817a1.612,1.612,0,0,0,1.705-1.817V128.7h1v6.829Z" transform="translate(-423.13 -83.196)" fill="#fff"/>
      <path id="Path_15554" data-name="Path 15554" d="M678.549,135.38v-.652a3.147,3.147,0,0,1-3.9.11,1.952,1.952,0,0,1-.515-1.387c0-1.192.83-1.972,2.358-1.972h2.056v-.654c0-1-.5-1.5-1.753-1.5a1.8,1.8,0,0,0-1.719.773l-.679-.618a2.625,2.625,0,0,1,2.412-1.015c1.833,0,2.733.79,2.733,2.274v4.638Zm0-3.149H676.63c-1.029,0-1.526.416-1.526,1.208s.485,1.161,1.569,1.161a2,2,0,0,0,1.526-.457,1.566,1.566,0,0,0,.35-1.18Z" transform="translate(-435.768 -83.043)" fill="#fff"/>
      <path id="Path_15555" data-name="Path 15555" d="M696.781,129.95a1.628,1.628,0,0,1-1.74-1.815v-8.068h1v8.023c0,.668.224,1,.915,1h.541v.861Z" transform="translate(-449.282 -77.613)" fill="#fff"/>
      <path id="Path_15556" data-name="Path 15556" d="M705.448,120.026h1.126v1.128h-1.126Zm.056,3.068h1v6.829h-1Z" transform="translate(-456.009 -77.586)" fill="#fff"/>
      <path id="Path_15557" data-name="Path 15557" d="M714.4,123.875V129.9h-1v-6.022h-.872v-.763h.872v-1.289a1.667,1.667,0,0,1,1.738-1.836h.72v.861h-.54c-.639,0-.914.373-.914,1v1.265h1.454v.763Z" transform="translate(-460.581 -77.56)" fill="#fff"/>
      <path id="Path_15558" data-name="Path 15558" d="M725.356,120.026h1.124v1.128h-1.124Zm.056,3.068h1v6.829h-1Z" transform="translate(-468.878 -77.586)" fill="#fff"/>
      <path id="Path_15559" data-name="Path 15559" d="M736.228,135.461c-1.721,0-3.026-1.163-3.026-3.494s1.3-3.5,3.026-3.5a2.684,2.684,0,0,1,2.244,1.013l-.675.638a1.881,1.881,0,0,0-1.57-.761,1.842,1.842,0,0,0-1.583.778,4.007,4.007,0,0,0,0,3.66,1.848,1.848,0,0,0,1.583.778,1.892,1.892,0,0,0,1.57-.778l.675.654a2.682,2.682,0,0,1-2.244,1.011" transform="translate(-473.95 -83.043)" fill="#fff"/>
      <path id="Path_15560" data-name="Path 15560" d="M754.722,135.38v-.652a3.149,3.149,0,0,1-3.9.11,1.974,1.974,0,0,1-.515-1.387c0-1.192.832-1.972,2.362-1.972h2.054v-.654c0-1-.5-1.5-1.753-1.5a1.805,1.805,0,0,0-1.719.773l-.678-.618a2.631,2.631,0,0,1,2.414-1.015c1.829,0,2.732.79,2.732,2.274v4.638Zm0-3.149H752.8c-1.025,0-1.526.416-1.526,1.208s.489,1.161,1.571,1.161a1.99,1.99,0,0,0,1.525-.457,1.57,1.57,0,0,0,.35-1.18Z" transform="translate(-485.006 -83.043)" fill="#fff"/>
      <path id="Path_15561" data-name="Path 15561" d="M771.957,131.7a1.675,1.675,0,0,1-1.75-1.832V125.68h-.859v-.766h.859v-2.136h1v2.136h1.458v.766h-1.458v4.162c0,.623.29,1,.93,1h.528v.861Z" transform="translate(-497.316 -79.365)" fill="#fff"/>
      <path id="Path_15562" data-name="Path 15562" d="M783,120.026h1.126v1.128H783Zm.059,3.068h1v6.829h-1Z" transform="translate(-506.139 -77.586)" fill="#fff"/>
      <path id="Path_15563" data-name="Path 15563" d="M795.636,134.686a2.86,2.86,0,0,1-3.916,0,4.865,4.865,0,0,1,0-5.44,2.854,2.854,0,0,1,3.916,0,4.865,4.865,0,0,1,0,5.44m-.708-4.828a1.756,1.756,0,0,0-1.247-.5,1.722,1.722,0,0,0-1.238.5,4.267,4.267,0,0,0,0,4.219,1.721,1.721,0,0,0,1.238.5,1.754,1.754,0,0,0,1.247-.5,4.392,4.392,0,0,0,0-4.219" transform="translate(-511.239 -83.043)" fill="#fff"/>
      <path id="Path_15564" data-name="Path 15564" d="M815.91,135.381v-4.208a1.588,1.588,0,0,0-1.68-1.815,1.6,1.6,0,0,0-1.695,1.815v4.208h-1v-6.829h1v.749a2.47,2.47,0,0,1,1.916-.832,2.389,2.389,0,0,1,1.752.64,2.524,2.524,0,0,1,.707,1.9v4.372Z" transform="translate(-524.587 -83.044)" fill="#fff"/>
      <path id="Path_15565" data-name="Path 15565" d="M265.5,15.545l.306-.714a14.1,14.1,0,0,1-2.876-1.622,8.926,8.926,0,0,1-2.288-2.31H265.6v-.714h-5.667V8.519c.4-.04,1.059-.116,1.969-.238.913-.159,1.684-.4,1.672-.594a1.7,1.7,0,0,0-.4-.595c-.2-.238-.372-.359-.508-.359a.672.672,0,0,0-.4.122,1.9,1.9,0,0,0-.358.28,11.594,11.594,0,0,1-3.842.73c-1.72.119-2.954.179-3.7.179v.714l4.555-.119v1.548h-5.564V10.9H258a11.3,11.3,0,0,1-2.174,2.44,13.117,13.117,0,0,1-2.681,1.729l.4.476a26.446,26.446,0,0,0,2.835-1.608,12.7,12.7,0,0,0,2.529-2.321v2.866h1.016V11.616a9.975,9.975,0,0,0,2.527,2.321,33.471,33.471,0,0,0,3.038,1.608m-2.024-.476h-7.9v5.818h7.9Zm-1.115,2.5h-5.666V15.662h5.666Zm0,2.735h-5.666V18.283h5.666Z" transform="translate(-163.639 -4.352)" fill="#fff"/>
      <path id="Path_15566" data-name="Path 15566" d="M347.6,8.507s.169-.216.393-.495a3.383,3.383,0,0,0,.392-.469c.044-.088-.063-.312-.267-.519a.634.634,0,0,0-.447-.2c-.081.026-.145.25-.268.521a3.166,3.166,0,0,1-.413.566l-.834-.645-.4.476.7.835c-.2.235-1.076,1.111-1.312,1.31l.3.592c.616-.516,1.251-1.068,1.519-1.308l.628.863.709-.923Zm4.225,7.928h1.115V13.459h-1.115V7.267h-2.934v.595h1.918V9.646h-1.918v.595h1.918v1.31h-2.018v.6h2.018v1.31h-7.79v-1.31h1.924v-.6h-1.924v-1.31h1.824V9.646h-1.824V8.338c.291-.047.583-.074,1.216-.181a6.845,6.845,0,0,0,1.028-.262c-.069-.159-.155-.331-.217-.449-.069-.159-.136-.3-.2-.421-.372.124-.728.219-1.066.3-.37.078-.723.14-1.061.179l-.709-.119v6.072H340.9v2.976h1.115V14.051h9.816Zm-3.946-4.883a.921.921,0,0,1,.459-.266c.212.01.294-.183.2-.457s-.3-.728-.541-.616a10.844,10.844,0,0,1-.822.744,9.489,9.489,0,0,0-.912-.476l-.3.476.605.595a10.62,10.62,0,0,1-1.425,1.032,1.069,1.069,0,0,1,.2.594,10.517,10.517,0,0,0,1.8-.987c.1.078.673.711.844.908l.608-.832Zm-.4,6.907h5.26v-.595h-5.26v-.476l2.024-1.427a.528.528,0,0,0,.19-.424.469.469,0,0,0-.142-.295.315.315,0,0,0-.249-.116h-5.366v.594h3.845l-.809,1.073h-.611v1.07H341v.595h5.36v1.62a1.136,1.136,0,0,1-.13.68c-.142.142-.593.121-.829.083-.266-.043-.521-.083-.757-.119l.2.83a5.265,5.265,0,0,0,1.923-.171c.44-.238.672-1.058.708-2.21Z" transform="translate(-220.36 -4.409)" fill="#fff"/>
      <path id="Path_15567" data-name="Path 15567" d="M437.736,22.278l.284-.835a10.275,10.275,0,0,1-3.238-2.5,16.9,16.9,0,0,0,2.477-6.467h-2.768l1.339-4.17h-8.845V8.9h2.935a43.367,43.367,0,0,1-.38,7.147,10.039,10.039,0,0,1-3.034,5.394l.286.478c3.191-1.841,3.928-6.337,4.043-8.306a28.428,28.428,0,0,0,2.609,5.209,14.3,14.3,0,0,1-3.524,2.859l.286.594a10.739,10.739,0,0,0,4-2.5,14.23,14.23,0,0,0,3.527,2.5m-4.668-9.207h2.857a20.385,20.385,0,0,1-1.812,4.921,21.264,21.264,0,0,1-2.147-4.148,17.585,17.585,0,0,1-1-4.942h3.525Z" transform="translate(-275.699 -5.37)" fill="#fff"/>
      <path id="Path_15568" data-name="Path 15568" d="M553.316,18.677a10.1,10.1,0,0,0,1.573-1.011c.874-.6,1.438-.987,1.765-1.182l-.1-.542-3.641,1.548a.32.32,0,0,0-.1.233,2.073,2.073,0,0,0,.1.537.621.621,0,0,0,.4.416" transform="translate(-357.344 -10.305)" fill="#fff"/>
      <path id="Path_15569" data-name="Path 15569" d="M556.844,9.37l.708-.954a12,12,0,0,0-1.313-.835,9.491,9.491,0,0,0-1.316-.592l-.3.476q.506.475,1.064.952c.37.278.758.594,1.161.954" transform="translate(-358.512 -4.518)" fill="#fff"/>
      <path id="Path_15570" data-name="Path 15570" d="M563.592,28.778V22.232h-8.3v6.546h1.456a12,12,0,0,1-3.377,2.143l.393.559a25.2,25.2,0,0,0,3.625-1.318c.224-.1.488-.142.469-.319a3.472,3.472,0,0,0-.64-1.066h4.354l-.709.952c.642.359,1.313.7,2.019,1.013a13.9,13.9,0,0,0,2.231.775l.3-.716a11.8,11.8,0,0,1-3.542-2.024Zm-7.187-5.835h6.176v1.311h-6.176Zm0,1.908h6.176v1.43h-6.176Zm0,2.024h6.176v1.308h-6.176Z" transform="translate(-357.703 -14.371)" fill="#fff"/>
      <path id="Path_15571" data-name="Path 15571" d="M568.381,10.238a6.317,6.317,0,0,0,1.924,1.727,9.205,9.205,0,0,0,2.092.932l.267-.809a6.618,6.618,0,0,1-2.229-1.052,5.281,5.281,0,0,1-1.711-2.229l2.079.017a2.565,2.565,0,0,1-.555,1.158c.239.2.375.309.548.433a7,7,0,0,0,1.142-1.525.444.444,0,0,0-.019-.5.6.6,0,0,0-.251-.178h-4.5a1.272,1.272,0,0,1,.258-.309c.133-.135-.106-.426-.307-.583s-.411-.316-.634-.269-.4.6-.837,1.4c-.436.756-.773,1.308-1.01,1.668a3.888,3.888,0,0,1,.706.357c.242-.319.456-.595.661-.832.235-.279.452-.554.656-.835h1.113a4.32,4.32,0,0,1-1.252,1.943,7.077,7.077,0,0,1-1.848,1.139l.67.609a6,6,0,0,0,1.569-.951,13.393,13.393,0,0,0,1.47-1.311" transform="translate(-364.987 -4.553)" fill="#fff"/>
      <path id="Path_15572" data-name="Path 15572" d="M650.5,11.034c-.121-.128-.944-.747-1.19-.526a10.857,10.857,0,0,0-.708,1.729,17.023,17.023,0,0,1-.911,1.727l.7.476c.106-.157.242-.378.409-.654.169-.319.373-.657.606-1.013.2-.319.389-.613.559-.892.165-.316.235-.4.394-.49s.261-.224.138-.357m-4.632,2.693c-.271-.6-.559-1.17-.864-1.727-.335-.559-.686-1.092-1.058-1.606l-.5.471a11.856,11.856,0,0,1,.809,1.729,18.872,18.872,0,0,1,.606,1.965Zm4.657,2.381v-.595h-3.138V9.081h2.934V8.489h-6.879v.592h2.834v6.431h-3.143v.595h3.143v6.17h1.111v-6.17Zm-8.106-7.618h-3.426v.595h3.426Zm.476,2.26h-4.478v.595H642.9Zm-.382,2.264H638.9v.714h3.619Zm0,2.262H638.8v.592h3.712Zm.219,1.881h-4.048V21.6h4.048Zm-1.113,3.813H639.7v-3.1h1.924Z" transform="translate(-412.681 -5.487)" fill="#fff"/>
      <path id="Path_15573" data-name="Path 15573" d="M305.621,15.731h-2.53v2.024h2.53Zm.3-6.669V7.994a3.26,3.26,0,0,1-.139-.714.181.181,0,0,1,.155-.238,2.64,2.64,0,0,1,.692,0,.494.494,0,0,1,.505.473c-.019.252-.1.595-.1.711v.835h1.822v.6h-1.822v2.976h2.229v.6h-2.126a11.669,11.669,0,0,0,1.014,1.965,12.092,12.092,0,0,0,1.314,1.727l-.4.595a7.287,7.287,0,0,1-1.875-1.908,14.631,14.631,0,0,1-1.263-2.379H303.8l-1.115,1.905h4.05v3.335h-3.643v1.9a.515.515,0,0,0,.251.359.914.914,0,0,0,.456.119h2.935a1.17,1.17,0,0,0,1.066-.9c.165-.549.318-1.089.453-1.606l1.113.716c-.071.235-.157.495-.256.773a4.762,4.762,0,0,1-.336.847,1.461,1.461,0,0,1-1.131.761h-4.755a.981.981,0,0,1-.708-.417,1.764,1.764,0,0,1-.206-.894V16.088c-.269.238-1.175,1.025-1.718,1.43l-.406-.595a13.5,13.5,0,0,0,2.628-3.691h-2.427v-.6h2.611V9.659h-2v-.6h2V7.994a4.968,4.968,0,0,1-.2-.714.18.18,0,0,1,.155-.238,2.635,2.635,0,0,1,.692,0,.5.5,0,0,1,.509.473c-.023.252-.1.595-.1.711v.835Zm0,.8v-.2h-2.2v2.976h2.2Zm-6.274-.081a7.678,7.678,0,0,0-1.014-1.189,6.92,6.92,0,0,0-1.111-.954l.5-.6a5.088,5.088,0,0,1,1.168.656,14.162,14.162,0,0,1,1.163.894Zm-.71,4.883a18.757,18.757,0,0,0-2.123-2.026l.4-.6a4.693,4.693,0,0,1,1.214.659c.408.278.816.571,1.219.892Zm-.6,6.9c-.118.121-.635-.05-.963-.238s-.409-.442-.365-.613c.039-.2.29-.421.351-.514.1-.238.366-1,.872-2.386.509-1.349.518-1.627.761-2.146l.647.581-.726,2.385a16.094,16.094,0,0,0-.465,1.844c-.071.435-.056,1.023-.112,1.087" transform="translate(-191.866 -4.538)" fill="#fff"/>
      <path id="Path_15574" data-name="Path 15574" d="M386.107,18.056a2.508,2.508,0,0,0-.5-.3c-.1,0-.222.05-.321.338a13.509,13.509,0,0,1-1.148,2.4,17.593,17.593,0,0,1-1.467,2.143,1.681,1.681,0,0,0,.25.238,1.571,1.571,0,0,0,.252.238,20.25,20.25,0,0,0,1.42-1.648v7.361H385.7V19.783a10.947,10.947,0,0,0,.766-1.263c.014-.124-.186-.345-.359-.464" transform="translate(-247.361 -11.48)" fill="#fff"/>
      <path id="Path_15575" data-name="Path 15575" d="M385.213,9.3c.472-.516,1.177-1.327,1.316-1.484a.372.372,0,0,0,.088-.423,1.613,1.613,0,0,0-.391-.416,1.1,1.1,0,0,0-.434-.276.286.286,0,0,0-.294.155c-.064.114-.621,1.075-.992,1.67-.407.595-.825,1.173-1.265,1.727l.5.476A17.372,17.372,0,0,0,385.213,9.3" transform="translate(-247.731 -4.326)" fill="#fff"/>
      <path id="Path_15576" data-name="Path 15576" d="M403.934,11.047l.812-.716a14.317,14.317,0,0,0-1.155-1.667l-.607.478a15.834,15.834,0,0,1,.95,1.905" transform="translate(-260.493 -5.601)" fill="#fff"/>
      <rect id="Rectangle_4896" data-name="Rectangle 4896" width="3.241" height="0.595" transform="translate(144.512 3.78)" fill="#fff"/>
      <path id="Path_15577" data-name="Path 15577" d="M393.826,23.4a1.5,1.5,0,0,0-.5-.138c-.138-.01-.269.112-.269.333a24.1,24.1,0,0,1-.285,2.843,32.433,32.433,0,0,1-.668,3.216l.605.238c.241-.835.581-1.855.864-3.1a21.141,21.141,0,0,0,.556-2.973.457.457,0,0,0-.306-.421" transform="translate(-253.462 -15.036)" fill="#fff"/>
      <path id="Path_15578" data-name="Path 15578" d="M403.882,23.483l-.606.238c.2.913.386,1.865.555,2.859q.254,1.427.455,2.978l1.01-.478c-.2-.954-.421-1.886-.653-2.8-.242-.954-.49-1.886-.761-2.8" transform="translate(-260.682 -15.18)" fill="#fff"/>
      <path id="Path_15579" data-name="Path 15579" d="M409.965,28.4c0,1.206-.207,1.61-.648,1.848a4.46,4.46,0,0,1-1.771.171l-.261-.835.758.121c.239.04.581.057.722-.081a1.1,1.1,0,0,0,.134-.68V21.17h-1.621v-.714h3.947v.714h-1.261Z" transform="translate(-263.269 -13.223)" fill="#fff"/>
      <path id="Path_15580" data-name="Path 15580" d="M398.678,10.371v.595h-2.024V21.684h-1.012V10.966h-1.824v-.595h1.824V7.857c-.131-.4-.216-.578-.251-.716a.18.18,0,0,1,.156-.235,2.618,2.618,0,0,1,.7,0,.5.5,0,0,1,.5.471c-.019.257-.09.595-.09.716v2.281Z" transform="translate(-254.568 -4.449)" fill="#fff"/>
      <path id="Path_15581" data-name="Path 15581" d="M514.389,10.76a8.5,8.5,0,0,1,.807.835c.269.319.538.675.81,1.07h2.024l.5-.954c.17-.354.34-.673.509-.952Zm3.355-.594V8.118c-.134-.4-.167-.578-.2-.714a.183.183,0,0,1,.158-.238,2.736,2.736,0,0,1,.695,0,.5.5,0,0,1,.5.473c-.019.257-.1.6-.1.711v1.817h3.991v.594h-2.428a4.011,4.011,0,0,0-.659.892,10.189,10.189,0,0,0-.557,1.013h3.141v.6h-4.759v1.189h4.051v.716h-4.051V16.6h5.568v.6h-4.454a10.883,10.883,0,0,0,1.872,2.022,12.538,12.538,0,0,0,2.276,1.432l-.605.714a12.6,12.6,0,0,1-2.482-1.61,14.5,14.5,0,0,1-2.175-2.2v4.167h-1.011V17.787a17.374,17.374,0,0,1-2.225,2.024,17.108,17.108,0,0,1-2.532,1.548l-.4-.476a19.2,19.2,0,0,0,2.175-1.551,9.453,9.453,0,0,0,1.874-2.141h-4.354v-.6h5.466V15.168H512.36v-.716h4.151V13.263h-4.757v-.6h2.935a10.037,10.037,0,0,0-.555-1.013,8.689,8.689,0,0,0-.659-.892h-2.227v-.594h4.015V8.156a6.9,6.9,0,0,1-.2-.718.18.18,0,0,1,.159-.233,2.4,2.4,0,0,1,.687,0,.489.489,0,0,1,.507.469c-.016.257-.1.6-.1.714v1.779Zm-3.865-.119-.655-1.192c-.238-.395-.458-.792-.657-1.189l.5-.6a13.451,13.451,0,0,1,.911,1.073l.909,1.073Zm7.662-1.572a5.939,5.939,0,0,0-1.616,1.465l-.683-.488c.238-.359.515-.795.832-1.242.377-.525.524-.863.789-.825a1.192,1.192,0,0,1,.639.338c.488.34.339.64.04.752" transform="translate(-330.346 -4.569)" fill="#fff"/>
      <path id="Path_15582" data-name="Path 15582" d="M497.724,12.807c-.228-.545-1.011-2.514-1.241-2.892l-.73.4c.094.442.886,2.571.981,3.051Z" transform="translate(-320.46 -6.409)" fill="#fff"/>
      <path id="Path_15583" data-name="Path 15583" d="M486.205,16.507a.2.2,0,0,0-.2.112.248.248,0,0,0,0,.217l-.6,1.594.6.323s1.153-1.679,1.16-1.772-.241-.226-.408-.3a2.408,2.408,0,0,0-.543-.176" transform="translate(-313.768 -10.67)" fill="#fff"/>
      <path id="Path_15584" data-name="Path 15584" d="M479.632,16.835c.132.285.262.611.4.97a4.736,4.736,0,0,1,.3.947l1-.65a4.5,4.5,0,0,0-.556-.837,4.543,4.543,0,0,0-.646-.759Z" transform="translate(-310.039 -10.67)" fill="#fff"/>
      <path id="Path_15585" data-name="Path 15585" d="M483.127,27.667h-3.595v5h3.595Zm-1.1,4.348h-1.4V30.488h1.4Zm0-2.231h-1.4v-1.41h1.4Z" transform="translate(-309.975 -17.884)" fill="#fff"/>
      <path id="Path_15586" data-name="Path 15586" d="M471.9,9.727h-4.894v.585h.5v9.4l-.547.116a2.163,2.163,0,0,0,.1.588.692.692,0,0,0,.352.473c.064-.041.13-.078.2-.119s.134-.078.2-.119l1.895-.823v3.406h1V10.312h1.2Zm-2.2,9.281-1.1.354V16.425h1.1Zm0-3.173h-1.1v-2.35h1.1Zm0-2.935h-1.1V10.31h1.1Z" transform="translate(-301.845 -6.288)" fill="#fff"/>
      <path id="Path_15587" data-name="Path 15587" d="M479.343,9.181h1.4V7.713a5.067,5.067,0,0,1-.2-.709.173.173,0,0,1,.153-.231,2.355,2.355,0,0,1,.683,0,.481.481,0,0,1,.5.461c-.019.255-.1.59-.1.709V9.181h1.507v.7h-3.939Z" transform="translate(-309.853 -4.362)" fill="#fff"/>
      <path id="Path_15588" data-name="Path 15588" d="M486.214,18.885l.588.333a9.5,9.5,0,0,1-.777,2.179c-.1.214-1-.25-1.421-.826a4.9,4.9,0,0,1-.7-1.47c-.368.39-.748.763-1.148,1.116a14.214,14.214,0,0,1-1.148,1l-.4-.585a13.1,13.1,0,0,0,1.2-1.236c.365-.469.732-.961,1.1-1.468a43.343,43.343,0,0,1-.5-4.584h-4.8v-.587H482.9l0-4.966a6.029,6.029,0,0,1-.2-.706.175.175,0,0,1,.157-.231,3.03,3.03,0,0,1,.753-.007.494.494,0,0,1,.5.469c-.023.252-.112.585-.112.7v4.738h2.5v.587H484a20.121,20.121,0,0,0,.334,3.368,15.564,15.564,0,0,0,.865-2.781l.5.412a2.351,2.351,0,0,1,.495.528A16.863,16.863,0,0,1,484.66,17.9a4.15,4.15,0,0,0,.757,2c.479.309.729-.892.8-1.011" transform="translate(-309.12 -4.412)" fill="#fff"/>
      <path id="Path_15589" data-name="Path 15589" d="M598.257,15.813V9.265h8.924V8.67H597.144v6.907a10.838,10.838,0,0,1-1.925,6.189l.509.476a8.921,8.921,0,0,0,2.53-6.429" transform="translate(-384.756 -5.604)" fill="#fff"/>
      <path id="Path_15590" data-name="Path 15590" d="M608.4,33.4h2.88v.592H608.4v2.029h3.693v.592h-9.718v-.592h2.093v-2.9a6.676,6.676,0,0,1-.2-.714.18.18,0,0,1,.157-.235,2.413,2.413,0,0,1,.688,0,.49.49,0,0,1,.509.469c-.017.257-.1.595-.1.714v2.666h1.79V32.066c-.134-.4-.168-.576-.2-.716a.185.185,0,0,1,.159-.235,2.813,2.813,0,0,1,.732,0,.5.5,0,0,1,.509.473c-.021.254-.106.594-.106.711Z" transform="translate(-389.381 -20.097)" fill="#fff"/>
      <path id="Path_15591" data-name="Path 15591" d="M607.281,12.571l-.07.033v1.113h3.222v-.763l-.848.276a6.521,6.521,0,0,0-.443-.6,6.728,6.728,0,0,0,2.008-1.011c.244-.183.467-.421.539-.464.139-.078.286.13.352.326.086.262.212.576.149.645a2.528,2.528,0,0,1-.71.426l-.188.078v1.087h1.691v.716h-1.717a10.144,10.144,0,0,0,2.149,2.088l-.568.671a5.751,5.751,0,0,1-1.555-1.977v2.79h-.859V15.3a12.777,12.777,0,0,1-1.52,2.086l-.529-.7a14.483,14.483,0,0,0,1.849-2.26h-3.049a15.266,15.266,0,0,0,1.6,1.308l-.495.618-1.078-1.227v2.873h-.856V15.218a26.342,26.342,0,0,1-1.518,2.488l-.534-.7a18.907,18.907,0,0,0,1.848-2.574h-1.458v-.716h1.661v-.78l-.879.283a6.032,6.032,0,0,0-.422-.571,6.26,6.26,0,0,0,1.914-.966c.233-.171.451-.4.517-.438.127-.076.273.124.331.309.078.247.2.547.141.611a2.258,2.258,0,0,1-.675.4" transform="translate(-390.628 -7.2)" fill="#fff"/>
      <path id="Path_15592" data-name="Path 15592" d="M682.32,9h9.915v2.74h1.013V8.4h-5.465l.2-1.31a1.144,1.144,0,0,0-.559-.235,2.445,2.445,0,0,0-.76-.06c-.066.022-.1.06-.1.176.035.24.066.478.1.716s.068.476.1.714H681.3v3.335h1.016Z" transform="translate(-440.403 -4.387)" fill="#fff"/>
      <path id="Path_15593" data-name="Path 15593" d="M686.3,22.924h-2.427v1.786H686.3Zm0-2.381h-2.427V22.33H686.3Zm0-.594v-1.9c-.4.276-.826.595-1.266.952-.4.316-.825.635-1.263.952Zm1.113-1.9v1.9h2.33A13.418,13.418,0,0,1,688.475,19c-.368-.316-.726-.638-1.062-.952m2.429,4.878h-2.428v1.786h2.428Zm0-2.381h-2.428V22.33h2.428Zm-3.606-3.337V15.392l-2.324.121a4.78,4.78,0,0,1,.655.535,3.307,3.307,0,0,1,.657.773l-.585.385ZM683.7,15.513h-1.006l-.2-.714q1.366,0,3.645-.24a15.76,15.76,0,0,0,3.542-.595l.406-.235c.136,0,.3.117.506.354.168.238.37.618.306.716a9.505,9.505,0,0,1-1.773.357,13.747,13.747,0,0,1-1.768.117v1.934h1.392l-.382-.267,1.014-1.667a11.135,11.135,0,0,0,1.006.6l-.6.714-.612.623h4.016v.6h-4.45a9.675,9.675,0,0,0,2.178,1.843,13.892,13.892,0,0,0,2.476,1.251l-.3.476a10.159,10.159,0,0,1-1.168-.295,8.039,8.039,0,0,1-.961-.417v4.729h-8.2v-4.85l-1.012.478-1.008.476-.1-.716a24.669,24.669,0,0,0,2.175-1.308q1.058-.774,2.075-1.667h-4.048v-.6h3.241a13.566,13.566,0,0,0-.78-1.218Z" transform="translate(-439.971 -8.875)" fill="#fff"/>
      <path id="Path_15594" data-name="Path 15594" d="M735.325,34.156h5.262V29.632h-5.262Zm1.01-3.929h3.142v3.335h-3.142Z" transform="translate(-475.322 -19.154)" fill="#fff"/>
      <path id="Path_15595" data-name="Path 15595" d="M736.3,13.343h-9.489V11.8h8.8V7.749h-9.916l-.1,6.31a17.958,17.958,0,0,1-.456,3.689,22.657,22.657,0,0,1-1.263,3.454l.608.357a11.964,11.964,0,0,0,1.723-3.57,16.045,16.045,0,0,0,.706-3.929h8.26V20.4c0,.259.017.578-.2.7a2.274,2.274,0,0,1-.96.01c-.271-.04-.525-.078-.762-.119l.2.89a6.491,6.491,0,0,0,2.135-.181c.488-.247.679-1.056.711-2.2v-.635c.031-1.272,0-5.52,0-5.52m-9.489-5H734.5V11.2h-7.692Z" transform="translate(-467.919 -5.009)" fill="#fff"/>
      <path id="Path_15596" data-name="Path 15596" d="M835.16,133.38c0-1.275-.822-1.734-2.016-1.843l-1.1-.1c-.855-.069-1.2-.416-1.2-1,0-.69.531-1.123,1.53-1.123a2.908,2.908,0,0,1,1.82.542l.65-.657a3.856,3.856,0,0,0-2.457-.733c-1.457,0-2.513.749-2.513,2,0,1.12.708,1.722,2.045,1.834l1.118.1c.794.071,1.143.4,1.143,1,0,.8-.7,1.206-1.817,1.206a2.8,2.8,0,0,1-2.126-.79l-.664.666a3.746,3.746,0,0,0,2.8.982c1.651,0,2.777-.761,2.777-2.081" transform="translate(-536.25 -83.043)" fill="#fff" fill-rule="evenodd"/>
    </g>
  </g>
</svg>
