<svg xmlns="http://www.w3.org/2000/svg" width="332.396" height="275.294" viewBox="0 0 332.396 275.294">
  <g id="triangle-graphic-3" transform="translate(14895.431 303.317)">
    <path id="Intersection_5" data-name="Intersection 5" d="M0,245.2a4.384,4.384,0,1,1,4.386,4.382A4.386,4.386,0,0,1,0,245.2Zm16.28,0a4.384,4.384,0,0,1,8.677-.883l-8.092,3.072A4.362,4.362,0,0,1,16.28,245.2Zm32.555-16.28a4.384,4.384,0,1,1,6.347,3.923l-.832.316a4.388,4.388,0,0,1-5.515-4.239Zm-16.275,0a4.381,4.381,0,1,1,4.382,4.386A4.38,4.38,0,0,1,32.561,228.92Zm-16.28,0a4.383,4.383,0,1,1,4.382,4.386A4.381,4.381,0,0,1,16.28,228.92ZM0,228.92a4.384,4.384,0,1,1,4.386,4.386A4.385,4.385,0,0,1,0,228.92Zm65.117,0a4.383,4.383,0,0,1,7.759-2.793l-7.756,2.944Q65.117,229,65.117,228.92ZM81.4,212.646a4.382,4.382,0,1,1,4.382,4.381A4.385,4.385,0,0,1,81.4,212.646Zm-16.279,0a4.383,4.383,0,1,1,4.381,4.381A4.384,4.384,0,0,1,65.117,212.646Zm-16.281,0a4.384,4.384,0,1,1,4.386,4.381A4.389,4.389,0,0,1,48.835,212.646Zm-16.275,0a4.381,4.381,0,1,1,4.382,4.381A4.384,4.384,0,0,1,32.561,212.646Zm-16.28,0a4.383,4.383,0,1,1,4.382,4.381A4.385,4.385,0,0,1,16.28,212.646Zm-16.28,0a4.384,4.384,0,1,1,4.386,4.381A4.389,4.389,0,0,1,0,212.646Zm97.671,0a4.383,4.383,0,1,1,8.7.766l-7.034,2.67A4.371,4.371,0,0,1,97.671,212.646Zm20.662-4.386a4.381,4.381,0,0,1,1.183.162l-4.866,1.847A4.377,4.377,0,0,1,118.333,208.259Zm11.9-11.894a4.381,4.381,0,1,1,4.381,4.381A4.38,4.38,0,0,1,130.232,196.365Zm-16.28,0a4.384,4.384,0,1,1,4.382,4.381A4.381,4.381,0,0,1,113.952,196.365Zm-16.28,0a4.383,4.383,0,1,1,4.386,4.381A4.384,4.384,0,0,1,97.671,196.365Zm-16.276,0a4.382,4.382,0,1,1,4.382,4.381A4.381,4.381,0,0,1,81.4,196.365Zm-16.279,0a4.383,4.383,0,1,1,4.381,4.381A4.38,4.38,0,0,1,65.117,196.365Zm-16.281,0a4.384,4.384,0,1,1,4.386,4.381A4.385,4.385,0,0,1,48.835,196.365Zm-16.275,0a4.381,4.381,0,1,1,4.382,4.381A4.381,4.381,0,0,1,32.561,196.365Zm-16.28,0a4.383,4.383,0,1,1,4.382,4.381A4.381,4.381,0,0,1,16.28,196.365Zm-16.28,0a4.384,4.384,0,1,1,4.386,4.381A4.385,4.385,0,0,1,0,196.365Zm146.508,0a4.384,4.384,0,0,1,8.529-1.428l-8.193,3.11A4.362,4.362,0,0,1,146.508,196.365Zm16.279-16.28a4.384,4.384,0,1,1,4.382,4.386A4.381,4.381,0,0,1,162.787,180.085Zm-16.279,0a4.383,4.383,0,1,1,4.385,4.386A4.384,4.384,0,0,1,146.508,180.085Zm-16.276,0a4.381,4.381,0,1,1,4.381,4.386A4.38,4.38,0,0,1,130.232,180.085Zm-16.28,0a4.384,4.384,0,1,1,4.382,4.386A4.381,4.381,0,0,1,113.952,180.085Zm-16.28,0a4.383,4.383,0,1,1,4.386,4.386A4.384,4.384,0,0,1,97.671,180.085Zm-16.276,0a4.382,4.382,0,1,1,4.382,4.386A4.381,4.381,0,0,1,81.4,180.085Zm-16.279,0a4.383,4.383,0,1,1,4.381,4.386A4.38,4.38,0,0,1,65.117,180.085Zm-16.281,0a4.384,4.384,0,1,1,4.386,4.386A4.385,4.385,0,0,1,48.835,180.085Zm-16.275,0a4.381,4.381,0,1,1,4.382,4.386A4.381,4.381,0,0,1,32.561,180.085Zm-16.28,0a4.383,4.383,0,1,1,4.382,4.386A4.381,4.381,0,0,1,16.28,180.085Zm-16.28,0a4.384,4.384,0,1,1,4.386,4.386A4.385,4.385,0,0,1,0,180.085Zm179.067,0a4.381,4.381,0,1,1,7.768,2.782l-4.082,1.55A4.387,4.387,0,0,1,179.067,180.085Zm20.662-4.382a4.365,4.365,0,0,1,2.956,1.146l-7.318,2.778A4.387,4.387,0,0,1,199.729,175.7Zm11.894-11.894A4.384,4.384,0,1,1,216,168.191,4.385,4.385,0,0,1,211.623,163.809Zm-16.28,0a4.384,4.384,0,1,1,4.386,4.382A4.39,4.39,0,0,1,195.343,163.809Zm-16.276,0a4.381,4.381,0,1,1,4.382,4.382A4.385,4.385,0,0,1,179.067,163.809Zm-16.28,0a4.384,4.384,0,1,1,4.382,4.382A4.386,4.386,0,0,1,162.787,163.809Zm-16.279,0a4.383,4.383,0,1,1,4.385,4.382A4.389,4.389,0,0,1,146.508,163.809Zm-16.276,0a4.381,4.381,0,1,1,4.381,4.382A4.385,4.385,0,0,1,130.232,163.809Zm-16.28,0a4.384,4.384,0,1,1,4.382,4.382A4.385,4.385,0,0,1,113.952,163.809Zm-16.28,0a4.383,4.383,0,1,1,4.386,4.382A4.389,4.389,0,0,1,97.671,163.809Zm-16.276,0a4.382,4.382,0,1,1,4.382,4.382A4.386,4.386,0,0,1,81.4,163.809Zm-16.279,0a4.383,4.383,0,1,1,4.381,4.382A4.385,4.385,0,0,1,65.117,163.809Zm-16.281,0a4.384,4.384,0,1,1,4.386,4.382A4.39,4.39,0,0,1,48.835,163.809Zm-16.275,0a4.381,4.381,0,1,1,4.382,4.382A4.385,4.385,0,0,1,32.561,163.809Zm-16.28,0a4.383,4.383,0,1,1,4.382,4.382A4.386,4.386,0,0,1,16.28,163.809Zm-16.28,0a4.384,4.384,0,1,1,4.386,4.382A4.39,4.39,0,0,1,0,163.809Zm227.9,0a4.381,4.381,0,1,1,8.762,0c0,.048,0,.095,0,.142l-7.561,2.87A4.368,4.368,0,0,1,227.9,163.809Zm20.662-4.386h.026l-2.954,1.121A4.371,4.371,0,0,1,248.565,159.423Zm11.893-11.894a4.382,4.382,0,1,1,4.382,4.382A4.381,4.381,0,0,1,260.458,147.529Zm-16.28,0a4.384,4.384,0,1,1,4.387,4.382A4.386,4.386,0,0,1,244.178,147.529Zm-16.275,0a4.381,4.381,0,1,1,4.381,4.382A4.381,4.381,0,0,1,227.9,147.529Zm-16.28,0A4.384,4.384,0,1,1,216,151.911,4.381,4.381,0,0,1,211.623,147.529Zm-16.28,0a4.384,4.384,0,1,1,4.386,4.382A4.386,4.386,0,0,1,195.343,147.529Zm-16.276,0a4.381,4.381,0,1,1,4.382,4.382A4.381,4.381,0,0,1,179.067,147.529Zm-16.28,0a4.384,4.384,0,1,1,4.382,4.382A4.382,4.382,0,0,1,162.787,147.529Zm-16.279,0a4.383,4.383,0,1,1,4.385,4.382A4.385,4.385,0,0,1,146.508,147.529Zm-16.276,0a4.381,4.381,0,1,1,4.381,4.382A4.381,4.381,0,0,1,130.232,147.529Zm-16.28,0a4.384,4.384,0,1,1,4.382,4.382A4.381,4.381,0,0,1,113.952,147.529Zm-16.28,0a4.383,4.383,0,1,1,4.386,4.382A4.385,4.385,0,0,1,97.671,147.529Zm-16.276,0a4.382,4.382,0,1,1,4.382,4.382A4.382,4.382,0,0,1,81.4,147.529Zm-16.279,0a4.383,4.383,0,1,1,4.381,4.382A4.381,4.381,0,0,1,65.117,147.529Zm-16.281,0a4.384,4.384,0,1,1,4.386,4.382A4.386,4.386,0,0,1,48.835,147.529Zm-16.275,0a4.381,4.381,0,1,1,4.382,4.382A4.381,4.381,0,0,1,32.561,147.529Zm-16.28,0a4.383,4.383,0,1,1,4.382,4.382A4.382,4.382,0,0,1,16.28,147.529Zm-16.28,0a4.384,4.384,0,1,1,4.386,4.382A4.386,4.386,0,0,1,0,147.529Zm276.74,0a4.381,4.381,0,0,1,8.307-1.945l-8.155,3.1A4.39,4.39,0,0,1,276.74,147.529Zm16.275-16.28a4.384,4.384,0,1,1,4.386,4.386A4.385,4.385,0,0,1,293.014,131.249Zm-16.275,0a4.381,4.381,0,1,1,4.381,4.386A4.38,4.38,0,0,1,276.74,131.249Zm-16.281,0a4.382,4.382,0,1,1,4.382,4.386A4.38,4.38,0,0,1,260.458,131.249Zm-16.28,0a4.384,4.384,0,1,1,4.387,4.386A4.385,4.385,0,0,1,244.178,131.249Zm-16.275,0a4.381,4.381,0,1,1,4.381,4.386A4.38,4.38,0,0,1,227.9,131.249Zm-16.28,0A4.384,4.384,0,1,1,216,135.635,4.38,4.38,0,0,1,211.623,131.249Zm-16.28,0a4.384,4.384,0,1,1,4.386,4.386A4.385,4.385,0,0,1,195.343,131.249Zm-16.276,0a4.381,4.381,0,1,1,4.382,4.386A4.38,4.38,0,0,1,179.067,131.249Zm-16.28,0a4.384,4.384,0,1,1,4.382,4.386A4.381,4.381,0,0,1,162.787,131.249Zm-16.279,0a4.383,4.383,0,1,1,4.385,4.386A4.384,4.384,0,0,1,146.508,131.249Zm-16.276,0a4.381,4.381,0,1,1,4.381,4.386A4.38,4.38,0,0,1,130.232,131.249Zm-16.28,0a4.384,4.384,0,1,1,4.382,4.386A4.38,4.38,0,0,1,113.952,131.249Zm-16.28,0a4.383,4.383,0,1,1,4.386,4.386A4.384,4.384,0,0,1,97.671,131.249Zm-16.276,0a4.382,4.382,0,1,1,4.382,4.386A4.381,4.381,0,0,1,81.4,131.249Zm-16.279,0a4.383,4.383,0,1,1,4.381,4.386A4.38,4.38,0,0,1,65.117,131.249Zm-16.281,0a4.384,4.384,0,1,1,4.386,4.386A4.385,4.385,0,0,1,48.835,131.249Zm-16.275,0a4.381,4.381,0,1,1,4.382,4.386A4.38,4.38,0,0,1,32.561,131.249Zm-16.28,0a4.383,4.383,0,1,1,4.382,4.386A4.381,4.381,0,0,1,16.28,131.249Zm-16.28,0a4.384,4.384,0,1,1,4.386,4.386A4.385,4.385,0,0,1,0,131.249Zm309.294,0a4.381,4.381,0,1,1,8.289,1.984l-5.52,2.1A4.389,4.389,0,0,1,309.294,131.249Zm20.662-4.381a4.362,4.362,0,0,1,2.44.742l-6.682,2.536A4.383,4.383,0,0,1,329.956,126.868Zm-19.68-9.129,4.106,1.559a4.388,4.388,0,0,1-4.106-1.559Zm-17.263-2.765a4.375,4.375,0,0,1,1.435-3.244l7.308,2.774a4.384,4.384,0,1,1-8.743.47Zm-16.275,0a4.381,4.381,0,1,1,4.381,4.381A4.384,4.384,0,0,1,276.74,114.974Zm-16.281,0a4.382,4.382,0,1,1,4.382,4.381A4.384,4.384,0,0,1,260.458,114.974Zm-16.28,0a4.384,4.384,0,1,1,4.387,4.381A4.389,4.389,0,0,1,244.178,114.974Zm-16.275,0a4.381,4.381,0,1,1,4.381,4.381A4.384,4.384,0,0,1,227.9,114.974Zm-16.28,0A4.384,4.384,0,1,1,216,119.355,4.384,4.384,0,0,1,211.623,114.974Zm-16.28,0a4.384,4.384,0,1,1,4.386,4.381A4.389,4.389,0,0,1,195.343,114.974Zm-16.276,0a4.381,4.381,0,1,1,4.382,4.381A4.384,4.384,0,0,1,179.067,114.974Zm-16.28,0a4.384,4.384,0,1,1,4.382,4.381A4.385,4.385,0,0,1,162.787,114.974Zm-16.279,0a4.383,4.383,0,1,1,4.385,4.381A4.388,4.388,0,0,1,146.508,114.974Zm-16.276,0a4.381,4.381,0,1,1,4.381,4.381A4.384,4.384,0,0,1,130.232,114.974Zm-16.28,0a4.384,4.384,0,1,1,4.382,4.381A4.384,4.384,0,0,1,113.952,114.974Zm-16.28,0a4.383,4.383,0,1,1,4.386,4.381A4.388,4.388,0,0,1,97.671,114.974Zm-16.276,0a4.382,4.382,0,1,1,4.382,4.381A4.385,4.385,0,0,1,81.4,114.974Zm-16.279,0a4.383,4.383,0,1,1,4.381,4.381A4.384,4.384,0,0,1,65.117,114.974Zm-16.281,0a4.384,4.384,0,1,1,4.386,4.381A4.389,4.389,0,0,1,48.835,114.974Zm-16.275,0a4.381,4.381,0,1,1,4.382,4.381A4.384,4.384,0,0,1,32.561,114.974Zm-16.28,0a4.383,4.383,0,1,1,4.382,4.381A4.385,4.385,0,0,1,16.28,114.974Zm-16.28,0a4.384,4.384,0,1,1,4.386,4.381A4.389,4.389,0,0,1,0,114.974ZM260.46,98.828l7.566,2.872a4.382,4.382,0,0,1-7.566-2.872Zm-16.282-.134a4.385,4.385,0,0,1,4.387-4.382l2.908,1.1a4.383,4.383,0,1,1-7.295,3.278Zm-16.275,0a4.381,4.381,0,1,1,4.381,4.381A4.38,4.38,0,0,1,227.9,98.694Zm-16.28,0A4.384,4.384,0,1,1,216,103.075,4.38,4.38,0,0,1,211.623,98.694Zm-16.28,0a4.384,4.384,0,1,1,4.386,4.381A4.385,4.385,0,0,1,195.343,98.694Zm-16.276,0a4.381,4.381,0,1,1,4.382,4.381A4.381,4.381,0,0,1,179.067,98.694Zm-16.28,0a4.384,4.384,0,1,1,4.382,4.381A4.381,4.381,0,0,1,162.787,98.694Zm-16.279,0a4.383,4.383,0,1,1,4.385,4.381A4.384,4.384,0,0,1,146.508,98.694Zm-16.276,0a4.381,4.381,0,1,1,4.381,4.381A4.38,4.38,0,0,1,130.232,98.694Zm-16.28,0a4.384,4.384,0,1,1,4.382,4.381A4.381,4.381,0,0,1,113.952,98.694Zm-16.28,0a4.383,4.383,0,1,1,4.386,4.381A4.384,4.384,0,0,1,97.671,98.694Zm-16.276,0a4.382,4.382,0,1,1,4.382,4.381A4.381,4.381,0,0,1,81.4,98.694Zm-16.279,0a4.383,4.383,0,1,1,4.381,4.381A4.38,4.38,0,0,1,65.117,98.694Zm-16.281,0a4.384,4.384,0,1,1,4.386,4.381A4.385,4.385,0,0,1,48.835,98.694Zm-16.275,0a4.381,4.381,0,1,1,4.382,4.381A4.381,4.381,0,0,1,32.561,98.694Zm-16.28,0a4.383,4.383,0,1,1,4.382,4.381A4.381,4.381,0,0,1,16.28,98.694ZM0,98.694a4.384,4.384,0,1,1,4.386,4.381A4.385,4.385,0,0,1,0,98.694Zm211.623-16.28a4.366,4.366,0,0,1,.457-1.951l8.159,3.1a4.384,4.384,0,0,1-8.617-1.146Zm-16.28,0a4.384,4.384,0,1,1,4.386,4.386A4.385,4.385,0,0,1,195.343,82.414Zm-16.276,0a4.381,4.381,0,1,1,4.382,4.386A4.381,4.381,0,0,1,179.067,82.414Zm-16.28,0a4.384,4.384,0,1,1,4.382,4.386A4.381,4.381,0,0,1,162.787,82.414Zm-16.279,0a4.383,4.383,0,1,1,4.385,4.386A4.384,4.384,0,0,1,146.508,82.414Zm-16.276,0a4.381,4.381,0,1,1,4.381,4.386A4.38,4.38,0,0,1,130.232,82.414Zm-16.28,0a4.384,4.384,0,1,1,4.382,4.386A4.381,4.381,0,0,1,113.952,82.414Zm-16.28,0a4.383,4.383,0,1,1,4.386,4.386A4.384,4.384,0,0,1,97.671,82.414Zm-16.276,0A4.382,4.382,0,1,1,85.777,86.8,4.381,4.381,0,0,1,81.4,82.414Zm-16.279,0A4.383,4.383,0,1,1,69.5,86.8,4.38,4.38,0,0,1,65.117,82.414Zm-16.281,0A4.384,4.384,0,1,1,53.221,86.8,4.385,4.385,0,0,1,48.835,82.414Zm-16.275,0A4.381,4.381,0,1,1,36.942,86.8,4.381,4.381,0,0,1,32.561,82.414Zm-16.28,0A4.383,4.383,0,1,1,20.662,86.8,4.381,4.381,0,0,1,16.28,82.414ZM0,82.414A4.384,4.384,0,1,1,4.386,86.8,4.385,4.385,0,0,1,0,82.414ZM179.533,68.107l5.537,2.1a4.386,4.386,0,0,1-5.537-2.1Zm-16.747-1.969a4.385,4.385,0,0,1,1.949-3.648l6.675,2.534a4.384,4.384,0,1,1-8.625,1.114Zm-16.279,0a4.383,4.383,0,1,1,4.385,4.382A4.389,4.389,0,0,1,146.508,66.138Zm-16.276,0a4.381,4.381,0,1,1,4.381,4.382A4.385,4.385,0,0,1,130.232,66.138Zm-16.28,0a4.384,4.384,0,1,1,4.382,4.382A4.385,4.385,0,0,1,113.952,66.138Zm-16.28,0a4.383,4.383,0,1,1,4.386,4.382A4.389,4.389,0,0,1,97.671,66.138Zm-16.276,0a4.382,4.382,0,1,1,4.382,4.382A4.386,4.386,0,0,1,81.4,66.138Zm-16.279,0A4.383,4.383,0,1,1,69.5,70.52,4.385,4.385,0,0,1,65.117,66.138Zm-16.281,0a4.384,4.384,0,1,1,4.386,4.382A4.39,4.39,0,0,1,48.835,66.138Zm-16.275,0a4.381,4.381,0,1,1,4.382,4.382A4.385,4.385,0,0,1,32.561,66.138Zm-16.28,0a4.383,4.383,0,1,1,4.382,4.382A4.386,4.386,0,0,1,16.28,66.138ZM0,66.138A4.384,4.384,0,1,1,4.386,70.52,4.39,4.39,0,0,1,0,66.138Zm130.232-16.28a4.428,4.428,0,0,1,.024-.457l7.921,3.007a4.381,4.381,0,0,1-7.945-2.55Zm-16.28,0a4.384,4.384,0,1,1,4.382,4.382A4.381,4.381,0,0,1,113.952,49.858Zm-16.28,0a4.383,4.383,0,1,1,4.386,4.382A4.385,4.385,0,0,1,97.671,49.858Zm-16.276,0a4.382,4.382,0,1,1,4.382,4.382A4.382,4.382,0,0,1,81.4,49.858Zm-16.279,0A4.383,4.383,0,1,1,69.5,54.239,4.381,4.381,0,0,1,65.117,49.858Zm-16.281,0a4.384,4.384,0,1,1,4.386,4.382A4.386,4.386,0,0,1,48.835,49.858Zm-16.275,0a4.381,4.381,0,1,1,4.382,4.382A4.381,4.381,0,0,1,32.561,49.858Zm-16.28,0a4.383,4.383,0,1,1,4.382,4.382A4.382,4.382,0,0,1,16.28,49.858ZM0,49.858a4.384,4.384,0,1,1,4.386,4.382A4.386,4.386,0,0,1,0,49.858Zm81.4-16.28a4.359,4.359,0,0,1,.744-2.442l7.981,3.03a4.382,4.382,0,0,1-8.724-.587Zm-16.279,0A4.383,4.383,0,1,1,69.5,37.964,4.38,4.38,0,0,1,65.117,33.577Zm-16.281,0a4.384,4.384,0,1,1,4.386,4.386A4.385,4.385,0,0,1,48.835,33.577Zm-16.275,0a4.381,4.381,0,1,1,4.382,4.386A4.38,4.38,0,0,1,32.561,33.577Zm-16.28,0a4.383,4.383,0,1,1,4.382,4.386A4.381,4.381,0,0,1,16.28,33.577ZM0,33.577a4.384,4.384,0,1,1,4.386,4.386A4.385,4.385,0,0,1,0,33.577ZM49.019,18.563l6.5,2.469a4.389,4.389,0,0,1-6.5-2.469ZM32.561,17.3a4.388,4.388,0,0,1,2.591-4l5.781,2.195a4.382,4.382,0,1,1-8.373,1.81Zm-16.28,0a4.383,4.383,0,1,1,4.382,4.381A4.385,4.385,0,0,1,16.28,17.3ZM0,17.3a4.384,4.384,0,1,1,4.386,4.381A4.389,4.389,0,0,1,0,17.3ZM0,1.023A4.387,4.387,0,0,1,.12,0L8.252,3.087A4.385,4.385,0,0,1,0,1.023Z" transform="translate(-14895.431 -303.317)" fill="#f8f354"/>
    <path id="Polygon_28" data-name="Polygon 28" d="M61.314,0l61.314,160.87H0Z" transform="translate(-14594.425 -150.651) rotate(90)" fill="rgba(255,255,255,0.6)"/>
  </g>
</svg>
